<svg width="322" height="366" viewBox="0 0 322 366" fill="none" xmlns="http://www.w3.org/2000/svg">
<mask id="mask0_120_2513" style="mask-type:luminance" maskUnits="userSpaceOnUse" x="87" y="7" width="15" height="16">
<path d="M87.3335 7.78125H102V22.3333H87.3335V7.78125Z" fill="white"/>
</mask>
<g mask="url(#mask0_120_2513)">
<path d="M91.4219 22.3232L101.63 7.97949H97.526L88.1875 21.0941C89.9792 21.3805 90.9271 21.818 91.4219 22.3232Z" fill="white"/>
</g>
<mask id="mask1_120_2513" style="mask-type:luminance" maskUnits="userSpaceOnUse" x="80" y="7" width="12" height="13">
<path d="M80.6665 7.78125H91.3332V19.6667H80.6665V7.78125Z" fill="white"/>
</mask>
<g mask="url(#mask1_120_2513)">
<path d="M86.4427 18.3542C89.3906 18.3542 91.2552 16.3385 91.2552 13.1198C91.2552 9.92187 89.3906 7.90625 86.4427 7.90625C83.4896 7.90625 81.625 9.92187 81.625 13.1198C81.625 16.3385 83.4896 18.3542 86.4427 18.3542ZM86.4427 10.2917C87.7187 10.2917 88.4792 11.349 88.4792 13.1198C88.4792 14.8906 87.7187 15.9688 86.4427 15.9688C85.1615 15.9688 84.401 14.8854 84.401 13.1198C84.401 11.349 85.1615 10.2917 86.4427 10.2917Z" fill="white"/>
</g>
<path d="M98.4323 24.8903C99.6406 24.7028 101.219 24.5882 103.271 24.5622C104.599 23.6976 105.365 22.1351 105.365 20.0726C105.365 16.8799 103.5 14.8643 100.552 14.8643C97.6042 14.8643 95.7344 16.8799 95.7344 20.0726C95.7292 22.432 96.7344 24.1403 98.4323 24.8903ZM100.547 17.2497C101.828 17.2497 102.589 18.3018 102.589 20.0726C102.589 21.8434 101.828 22.9268 100.547 22.9268C99.2709 22.9268 98.5052 21.8434 98.5052 20.0726C98.5104 18.3018 99.2709 17.2497 100.547 17.2497Z" fill="white"/>
<mask id="mask2_120_2513" style="mask-type:luminance" maskUnits="userSpaceOnUse" x="202" y="5" width="22" height="23">
<path d="M202.938 5.41113H223.938V27.6663H202.938V5.41113Z" fill="white"/>
</mask>
<g mask="url(#mask2_120_2513)">
<path d="M213.615 5.41602C207.719 5.41602 202.938 10.1973 202.938 16.0983C202.938 21.9941 207.719 26.7754 213.615 26.7754C219.516 26.7754 224.297 21.9941 224.297 16.0983C224.297 10.1973 219.516 5.41602 213.615 5.41602ZM213.615 23.2337C209.672 23.2337 206.479 20.041 206.479 16.0983C206.479 12.1556 209.672 8.96289 213.615 8.96289C217.557 8.96289 220.75 12.1556 220.75 16.0983C220.75 20.041 217.557 23.2337 213.615 23.2337Z" fill="white"/>
</g>
<mask id="mask3_120_2513" style="mask-type:luminance" maskUnits="userSpaceOnUse" x="142" y="0" width="23" height="23">
<path d="M142 0.0732422H164.328V22.3285H142V0.0732422Z" fill="white"/>
</mask>
<g mask="url(#mask3_120_2513)">
<mask id="mask4_120_2513" style="mask-type:luminance" maskUnits="userSpaceOnUse" x="142" y="0" width="23" height="23">
<path d="M142.953 3.70341C141.026 7.08362 142.422 10.3805 144.015 12.1305L153.318 22.3284L162.427 12.167C163.906 10.2815 164.505 8.28675 164.161 6.068C163.724 2.99508 161.51 0.609662 158.771 0.271121C157.094 0.0627876 155.469 0.604454 154.203 1.80758C153.864 2.1305 153.557 2.49508 153.297 2.8857C152.979 2.43779 152.609 2.03154 152.193 1.66695C150.739 0.401329 148.885 -0.098671 147.104 0.291954C145.416 0.661746 143.906 1.90654 142.953 3.70341Z" fill="white"/>
</mask>
<g mask="url(#mask4_120_2513)">
<path d="M142.073 0.162109H164.245V22.3288H142.073V0.162109Z" fill="white"/>
</g>
</g>
<mask id="mask5_120_2513" style="mask-type:luminance" maskUnits="userSpaceOnUse" x="112" y="1" width="24" height="23">
<path d="M112.667 1H135.333V23.6667H112.667V1Z" fill="white"/>
</mask>
<g mask="url(#mask5_120_2513)">
<mask id="mask6_120_2513" style="mask-type:luminance" maskUnits="userSpaceOnUse" x="108" y="-4" width="33" height="33">
<path d="M118.448 -3.4375L140.156 6.79688L129.922 28.5052L108.213 18.276L118.448 -3.4375Z" fill="white"/>
</mask>
<g mask="url(#mask6_120_2513)">
<mask id="mask7_120_2513" style="mask-type:luminance" maskUnits="userSpaceOnUse" x="108" y="-4" width="33" height="33">
<path d="M118.448 -3.4375L140.156 6.79688L129.922 28.5052L108.213 18.276L118.448 -3.4375Z" fill="white"/>
</mask>
<g mask="url(#mask7_120_2513)">
<path d="M134.833 17.3902C134.427 18.2548 133.39 18.6246 132.526 18.2183L125.463 14.8902C125.177 14.7548 124.833 14.8798 124.698 15.1663L121.37 22.2288C120.963 23.0933 119.927 23.4631 119.062 23.0569C118.193 22.6506 117.823 21.6142 118.229 20.7496L121.557 13.6871C121.693 13.4006 121.568 13.0569 121.281 12.9215L114.224 9.59334C113.354 9.18709 112.984 8.15063 113.39 7.28605C113.802 6.42146 114.833 6.04646 115.703 6.45272L122.76 9.78084C123.047 9.91626 123.396 9.79126 123.531 9.5048L126.859 2.44751C127.265 1.58292 128.302 1.20792 129.166 1.61417C130.031 2.02563 130.401 3.05688 129.995 3.92667L126.666 10.984C126.531 11.2704 126.656 11.6194 126.943 11.7548L134.005 15.0829C134.87 15.4892 135.239 16.5256 134.833 17.3902Z" fill="white"/>
</g>
</g>
</g>
<mask id="mask8_120_2513" style="mask-type:luminance" maskUnits="userSpaceOnUse" x="172" y="199" width="104" height="88">
<path d="M172.667 199.667H275.333V286.334H172.667V199.667Z" fill="white"/>
</mask>
<g mask="url(#mask8_120_2513)">
<mask id="mask9_120_2513" style="mask-type:luminance" maskUnits="userSpaceOnUse" x="162" y="170" width="168" height="173">
<path d="M219.901 170.297L329.114 222.385L271.859 342.432L162.646 290.344L219.901 170.297Z" fill="white"/>
</mask>
<g mask="url(#mask9_120_2513)">
<mask id="mask10_120_2513" style="mask-type:luminance" maskUnits="userSpaceOnUse" x="162" y="170" width="168" height="173">
<path d="M219.901 170.297L329.114 222.385L271.859 342.432L162.646 290.344L219.901 170.297Z" fill="white"/>
</mask>
<g mask="url(#mask10_120_2513)">
<path d="M274.265 276.802L267.677 199.995C267.677 199.995 259.968 200.922 250.849 203.761L251.505 211.453C253.963 211.334 256.562 211.391 259.291 211.683L264.974 267.339C264.974 267.339 201.875 260.073 172.724 285.917C172.724 285.917 209.151 264.058 274.265 276.802Z" fill="white"/>
</g>
</g>
</g>
<mask id="mask11_120_2513" style="mask-type:luminance" maskUnits="userSpaceOnUse" x="168" y="217" width="128" height="79">
<path d="M168.667 217H295.333V295.667H168.667V217Z" fill="white"/>
</mask>
<g mask="url(#mask11_120_2513)">
<mask id="mask12_120_2513" style="mask-type:luminance" maskUnits="userSpaceOnUse" x="162" y="170" width="168" height="173">
<path d="M219.901 170.297L329.114 222.385L271.859 342.432L162.646 290.344L219.901 170.297Z" fill="white"/>
</mask>
<g mask="url(#mask12_120_2513)">
<mask id="mask13_120_2513" style="mask-type:luminance" maskUnits="userSpaceOnUse" x="162" y="170" width="168" height="173">
<path d="M219.901 170.297L329.114 222.385L271.859 342.432L162.646 290.344L219.901 170.297Z" fill="white"/>
</mask>
<g mask="url(#mask13_120_2513)">
<path d="M288.229 217.688C288.229 217.688 280.521 218.615 271.396 221.453L272.057 229.141C274.515 229.021 277.114 229.078 279.843 229.37L285.521 285.031C285.521 285.031 210.76 268.214 169.661 294.005C169.661 294.005 214.974 278.135 294.817 294.495L288.229 217.688Z" fill="white"/>
</g>
</g>
</g>
<mask id="mask14_120_2513" style="mask-type:luminance" maskUnits="userSpaceOnUse" x="175" y="182" width="79" height="95">
<path d="M175.333 182.333H254V277H175.333V182.333Z" fill="white"/>
</mask>
<g mask="url(#mask14_120_2513)">
<mask id="mask15_120_2513" style="mask-type:luminance" maskUnits="userSpaceOnUse" x="162" y="170" width="168" height="173">
<path d="M219.901 170.297L329.115 222.385L271.86 342.432L162.646 290.344L219.901 170.297Z" fill="white"/>
</mask>
<g mask="url(#mask15_120_2513)">
<mask id="mask16_120_2513" style="mask-type:luminance" maskUnits="userSpaceOnUse" x="162" y="170" width="168" height="173">
<path d="M219.901 170.297L329.115 222.385L271.86 342.432L162.646 290.344L219.901 170.297Z" fill="white"/>
</mask>
<g mask="url(#mask16_120_2513)">
<path d="M176.333 276.386C176.333 276.386 207.568 251.552 253.823 260.146L247.235 183.339C247.235 183.339 212.458 187.511 203.24 205.323C203.24 205.323 216.943 192.677 238.844 195.026L244.526 250.683C244.526 250.683 199.792 249.104 176.333 276.386Z" fill="white"/>
</g>
</g>
</g>
<mask id="mask17_120_2513" style="mask-type:luminance" maskUnits="userSpaceOnUse" x="44" y="199" width="104" height="88">
<path d="M44.6665 199.667H147.333V286.334H44.6665V199.667Z" fill="white"/>
</mask>
<g mask="url(#mask17_120_2513)">
<mask id="mask18_120_2513" style="mask-type:luminance" maskUnits="userSpaceOnUse" x="-10" y="170" width="167" height="173">
<path d="M-9.23438 222.042L100.203 170.428L156.938 290.719L47.4948 342.334L-9.23438 222.042Z" fill="white"/>
</mask>
<g mask="url(#mask18_120_2513)">
<mask id="mask19_120_2513" style="mask-type:luminance" maskUnits="userSpaceOnUse" x="-9" y="170" width="167" height="173">
<path d="M100.474 170.298L-8.96875 221.912L47.7656 342.209L157.203 290.595L100.474 170.298Z" fill="white"/>
</mask>
<g mask="url(#mask19_120_2513)">
<path d="M45.5625 276.73L52.5 199.834C52.5 199.834 60.2188 200.798 69.3385 203.678L68.6458 211.376C66.1823 211.245 63.5781 211.292 60.849 211.574L54.9167 267.292C54.9167 267.292 118.141 260.287 147.224 286.298C147.224 286.298 110.839 264.245 45.5625 276.73Z" fill="white"/>
</g>
</g>
</g>
<mask id="mask20_120_2513" style="mask-type:luminance" maskUnits="userSpaceOnUse" x="24" y="217" width="128" height="79">
<path d="M24.6665 217H151.333V295.667H24.6665V217Z" fill="white"/>
</mask>
<g mask="url(#mask20_120_2513)">
<mask id="mask21_120_2513" style="mask-type:luminance" maskUnits="userSpaceOnUse" x="-10" y="170" width="167" height="173">
<path d="M-9.23438 222.041L100.203 170.427L156.938 290.718L47.4948 342.333L-9.23438 222.041Z" fill="white"/>
</mask>
<g mask="url(#mask21_120_2513)">
<mask id="mask22_120_2513" style="mask-type:luminance" maskUnits="userSpaceOnUse" x="-9" y="170" width="167" height="173">
<path d="M100.474 170.297L-8.96875 221.911L47.7656 342.208L157.203 290.594L100.474 170.297Z" fill="white"/>
</mask>
<g mask="url(#mask22_120_2513)">
<path d="M31.8385 217.458C31.8385 217.458 39.5573 218.422 48.6823 221.302L47.9896 229C45.526 228.869 42.9219 228.916 40.1875 229.198L34.2604 284.916C34.2604 284.916 109.203 268.401 150.255 294.411C150.255 294.411 104.943 278.317 24.9062 294.354L31.8385 217.458Z" fill="white"/>
</g>
</g>
</g>
<mask id="mask23_120_2513" style="mask-type:luminance" maskUnits="userSpaceOnUse" x="66" y="182" width="79" height="95">
<path d="M66 182.333H144.667V277H66V182.333Z" fill="white"/>
</mask>
<g mask="url(#mask23_120_2513)">
<mask id="mask24_120_2513" style="mask-type:luminance" maskUnits="userSpaceOnUse" x="-10" y="170" width="167" height="173">
<path d="M-9.23438 222.041L100.203 170.427L156.938 290.718L47.4948 342.333L-9.23438 222.041Z" fill="white"/>
</mask>
<g mask="url(#mask24_120_2513)">
<mask id="mask25_120_2513" style="mask-type:luminance" maskUnits="userSpaceOnUse" x="-9" y="170" width="167" height="173">
<path d="M100.474 170.297L-8.96875 221.911L47.7656 342.208L157.203 290.594L100.474 170.297Z" fill="white"/>
</mask>
<g mask="url(#mask25_120_2513)">
<path d="M143.651 276.734C143.651 276.734 112.479 251.724 66.1147 260.135L73.047 183.234C73.047 183.234 107.854 187.568 117.016 205.448C117.016 205.448 103.344 192.724 81.396 194.979L75.4689 250.693C75.4689 250.693 120.276 249.307 143.651 276.734Z" fill="white"/>
</g>
</g>
</g>
<mask id="mask26_120_2513" style="mask-type:luminance" maskUnits="userSpaceOnUse" x="85" y="89" width="53" height="48">
<path d="M85.4062 89.667H137.406V136.667H85.4062V89.667Z" fill="white"/>
</mask>
<g mask="url(#mask26_120_2513)">
<path d="M87.9377 114.87C86.4742 115.938 85.4065 118.188 86.193 120.328C86.7555 121.792 88.0523 122.86 89.344 123.141C89.9065 123.256 90.1357 123.141 91.8752 123.141C93.0002 123.141 93.9586 123.141 94.5784 123.198C96.1513 125.506 97.3909 127.417 98.2346 128.709C99.9221 131.297 100.485 132.256 101.834 133.49C103.183 134.729 104.87 136.25 106.787 135.969C108.474 135.688 109.599 134.224 110.104 133.381C110.834 132.141 111.229 130.735 111.677 129.328C114.49 119.427 117.308 109.526 120.12 99.6253C122.37 99.6826 124.62 99.7399 126.813 99.792C128.615 99.8493 130.412 99.9066 132.157 99.5107C133.901 99.1201 135.589 98.2191 136.599 96.7555C137.615 95.292 137.782 93.1566 136.714 91.7503C135.365 90.0055 132.834 89.8389 130.636 89.8389C126.755 89.8389 122.818 89.8389 118.938 89.8389C116.912 89.8389 114.662 89.9482 113.255 91.2972C111.959 92.5368 111.625 94.0576 111.453 94.9535C109.88 102.495 107.177 109.693 105.099 117.063C104.818 118.021 104.589 118.417 104.365 119.542C104.198 120.328 104.198 120.61 104.026 120.667C103.578 120.776 103.016 119.203 101.443 117.063C100.427 115.657 99.8648 114.927 98.9638 114.479C98.2919 114.141 97.3336 114.084 95.3648 113.969C93.9586 113.917 93.2815 113.86 92.3857 113.917C90.1357 114.084 88.9534 114.141 87.9377 114.87Z" fill="white"/>
</g>
<path d="M96.2083 115.375C95.25 115.265 94.2969 115.375 93.3385 115.432C92.3854 115.489 91.4271 115.547 90.4688 115.604C90.1354 115.604 90.1354 116.109 90.4688 116.109C91.4271 116.109 92.4375 116.052 93.3958 116.052C94.3542 116.052 95.3646 116.052 96.2656 115.885C96.5469 115.771 96.4896 115.432 96.2083 115.375Z" fill="#A5A5A5"/>
<path d="M115.109 110.204C114.604 111.943 114.156 113.745 113.76 115.49C113.365 117.178 112.802 118.922 112.635 120.719C112.578 121 113.031 121 113.083 120.777C113.703 119.146 114.042 117.344 114.437 115.605C114.828 113.86 115.224 112.115 115.62 110.37C115.729 109.974 115.224 109.865 115.109 110.204Z" fill="#A5A5A5"/>
<path d="M112.13 122.464C111.906 123.256 111.734 124.042 111.568 124.886C111.453 125.276 111.396 125.672 111.344 126.068C111.286 126.459 111.172 126.854 111.229 127.302C111.229 127.474 111.51 127.584 111.568 127.417C111.906 126.683 112.073 125.839 112.239 125.11C112.411 124.323 112.578 123.479 112.693 122.693C112.75 122.297 112.239 122.125 112.13 122.464Z" fill="#A5A5A5"/>
<path d="M135.422 93.2661C135.365 93.0421 135.25 92.7608 135.083 92.5942C134.745 92.1411 134.297 91.6931 133.787 91.4119C132.495 90.6827 130.974 90.9067 129.568 91.0733C129.177 91.1306 129.177 91.7504 129.568 91.6931C130.807 91.5265 132.099 91.4119 133.339 91.8598C134.349 92.2556 134.912 93.0421 135.141 94.0577C135.193 94.1671 135.365 94.1671 135.422 94.0577C135.474 93.7765 135.531 93.5473 135.422 93.2661Z" fill="#A5A5A5"/>
<path d="M111.625 101.031C111.906 100.354 112.187 99.6825 112.411 99.0054C112.521 98.6668 112.016 98.5002 111.906 98.8387C111.677 99.5106 111.396 100.188 111.172 100.865C111.062 101.198 110.948 101.537 110.833 101.818C110.724 102.156 110.609 102.552 110.5 102.886C110.443 103.057 110.667 103.167 110.781 103C110.948 102.662 111.115 102.323 111.286 101.99C111.396 101.708 111.51 101.37 111.625 101.031Z" fill="#A5A5A5"/>
<path fill-rule="evenodd" clip-rule="evenodd" d="M170.563 157.25C170.396 157.25 170.224 157.219 170.052 157.157C169.318 156.87 168.948 156.042 169.229 155.308C169.313 155.084 169.266 154.787 169.172 154.235C169.094 153.761 168.99 153.167 168.99 152.453C168.99 145.953 171.99 142.709 174.886 139.573C177.781 136.443 180.511 133.49 180.511 126.995C180.511 116.49 171.969 107.948 161.464 107.948C150.958 107.948 142.417 116.49 142.417 126.995C142.417 133.49 145.146 136.443 148.042 139.573C150.938 142.709 153.938 145.953 153.938 152.453C153.938 153.167 153.833 153.761 153.755 154.235C153.662 154.787 153.615 155.084 153.698 155.308C153.985 156.042 153.61 156.87 152.875 157.157C152.136 157.438 151.307 157.068 151.026 156.328C150.656 155.37 150.802 154.511 150.932 153.756C151.005 153.328 151.073 152.927 151.073 152.459C151.073 147.073 148.693 144.5 145.938 141.521C142.943 138.282 139.552 134.615 139.552 127C139.552 114.917 149.38 105.089 161.464 105.089C173.547 105.089 183.375 114.917 183.375 127C183.375 134.615 179.985 138.282 176.99 141.526C174.235 144.506 171.854 147.078 171.854 152.459C171.854 152.927 171.922 153.334 171.995 153.756C172.125 154.516 172.271 155.37 171.901 156.334C171.682 156.901 171.141 157.25 170.563 157.25Z" fill="white"/>
<path fill-rule="evenodd" clip-rule="evenodd" d="M147.693 128.427C146.901 128.427 146.26 127.787 146.26 126.995C146.26 118.615 153.083 111.792 161.463 111.792C162.255 111.792 162.896 112.438 162.896 113.224C162.896 114.016 162.255 114.657 161.463 114.657C154.661 114.657 149.125 120.193 149.125 126.995C149.125 127.787 148.484 128.427 147.693 128.427Z" fill="white"/>
<mask id="mask27_120_2513" style="mask-type:luminance" maskUnits="userSpaceOnUse" x="154" y="166" width="15" height="11">
<path d="M154 166.333H168.667V176.797H154V166.333Z" fill="white"/>
</mask>
<g mask="url(#mask27_120_2513)">
<path fill-rule="evenodd" clip-rule="evenodd" d="M163.271 177.224H159.651C156.698 177.224 154.292 174.823 154.292 171.864V167.932C154.292 167.146 154.932 166.505 155.724 166.505C156.515 166.505 157.156 167.146 157.156 167.932V171.864C157.156 173.239 158.276 174.364 159.651 174.364H163.271C164.651 174.364 165.771 173.239 165.771 171.864V167.932C165.771 167.146 166.411 166.505 167.203 166.505C167.995 166.505 168.635 167.146 168.635 167.932V171.864C168.635 174.823 166.229 177.224 163.271 177.224Z" fill="white"/>
</g>
<path fill-rule="evenodd" clip-rule="evenodd" d="M169.552 163.219H153.375C150.89 163.219 148.87 161.198 148.87 158.719C148.87 156.235 150.89 154.214 153.375 154.214H169.552C172.036 154.214 174.057 156.235 174.057 158.719C174.057 161.203 172.036 163.219 169.552 163.219ZM153.375 157.078C152.469 157.078 151.734 157.813 151.734 158.719C151.734 159.62 152.469 160.36 153.375 160.36H169.552C170.458 160.36 171.193 159.62 171.193 158.719C171.193 157.813 170.458 157.078 169.552 157.078H153.375Z" fill="white"/>
<path fill-rule="evenodd" clip-rule="evenodd" d="M167.776 169.37H155.151C152.672 169.37 150.651 167.349 150.651 164.865C150.651 162.38 152.672 160.359 155.151 160.359C155.943 160.359 156.583 161 156.583 161.792C156.583 162.583 155.943 163.224 155.151 163.224C154.25 163.224 153.51 163.958 153.51 164.865C153.51 165.766 154.25 166.505 155.151 166.505H167.776C168.677 166.505 169.417 165.766 169.417 164.865C169.417 163.958 168.677 163.224 167.776 163.224C166.984 163.224 166.344 162.583 166.344 161.792C166.344 161 166.984 160.359 167.776 160.359C170.255 160.359 172.276 162.38 172.276 164.865C172.276 167.349 170.255 169.37 167.776 169.37Z" fill="white"/>
<mask id="mask28_120_2513" style="mask-type:luminance" maskUnits="userSpaceOnUse" x="159" y="93" width="5" height="10">
<path d="M159.333 93.7969H163.333V102.333H159.333V93.7969Z" fill="white"/>
</mask>
<g mask="url(#mask28_120_2513)">
<path fill-rule="evenodd" clip-rule="evenodd" d="M161.464 102.209C160.672 102.209 160.031 101.568 160.031 100.776V95.2555C160.031 94.4639 160.672 93.8232 161.464 93.8232C162.255 93.8232 162.896 94.4639 162.896 95.2555V100.776C162.896 101.568 162.255 102.209 161.464 102.209Z" fill="white"/>
</g>
<path fill-rule="evenodd" clip-rule="evenodd" d="M176.656 106.281C176.411 106.281 176.166 106.219 175.943 106.089C175.255 105.693 175.021 104.818 175.416 104.136L178.177 99.3491C178.573 98.6668 179.453 98.4324 180.135 98.8283C180.818 99.2241 181.052 100.099 180.661 100.781L177.896 105.568C177.63 106.026 177.151 106.281 176.656 106.281Z" fill="white"/>
<path fill-rule="evenodd" clip-rule="evenodd" d="M187.781 117.406C187.286 117.406 186.802 117.146 186.536 116.687C186.141 116.005 186.38 115.13 187.062 114.734L191.844 111.969C192.531 111.573 193.406 111.807 193.802 112.495C194.198 113.177 193.964 114.052 193.276 114.448L188.495 117.214C188.271 117.344 188.021 117.406 187.781 117.406Z" fill="white"/>
<mask id="mask29_120_2513" style="mask-type:luminance" maskUnits="userSpaceOnUse" x="190" y="129" width="10" height="4">
<path d="M190 129H199.12V133H190V129Z" fill="white"/>
</mask>
<g mask="url(#mask29_120_2513)">
<path fill-rule="evenodd" clip-rule="evenodd" d="M197.375 132.599H191.849C191.057 132.599 190.417 131.958 190.417 131.167C190.417 130.375 191.057 129.734 191.849 129.734H197.375C198.167 129.734 198.807 130.375 198.807 131.167C198.807 131.958 198.167 132.599 197.375 132.599Z" fill="white"/>
</g>
<path fill-rule="evenodd" clip-rule="evenodd" d="M192.562 150.552C192.318 150.552 192.073 150.495 191.849 150.36L187.062 147.599C186.38 147.203 186.146 146.328 186.542 145.646C186.932 144.959 187.807 144.724 188.495 145.12L193.281 147.881C193.964 148.276 194.198 149.151 193.802 149.839C193.536 150.297 193.057 150.552 192.562 150.552Z" fill="white"/>
<path fill-rule="evenodd" clip-rule="evenodd" d="M130.365 150.552C129.87 150.552 129.386 150.297 129.12 149.839C128.724 149.151 128.964 148.276 129.646 147.881L134.427 145.12C135.115 144.724 135.99 144.959 136.386 145.646C136.781 146.328 136.547 147.203 135.86 147.599L131.078 150.36C130.854 150.495 130.604 150.552 130.365 150.552Z" fill="white"/>
<mask id="mask30_120_2513" style="mask-type:luminance" maskUnits="userSpaceOnUse" x="124" y="129" width="9" height="4">
<path d="M124.12 129H132.667V133H124.12V129Z" fill="white"/>
</mask>
<g mask="url(#mask30_120_2513)">
<path fill-rule="evenodd" clip-rule="evenodd" d="M131.073 132.599H125.552C124.76 132.599 124.12 131.958 124.12 131.167C124.12 130.375 124.76 129.734 125.552 129.734H131.073C131.864 129.734 132.505 130.375 132.505 131.167C132.505 131.958 131.864 132.599 131.073 132.599Z" fill="white"/>
</g>
<path fill-rule="evenodd" clip-rule="evenodd" d="M135.146 117.406C134.901 117.406 134.656 117.344 134.432 117.214L129.646 114.448C128.964 114.052 128.729 113.177 129.125 112.495C129.516 111.807 130.396 111.573 131.078 111.969L135.86 114.734C136.547 115.13 136.781 116.005 136.386 116.687C136.12 117.146 135.641 117.406 135.146 117.406Z" fill="white"/>
<path fill-rule="evenodd" clip-rule="evenodd" d="M146.271 106.281C145.776 106.281 145.292 106.026 145.026 105.568L142.266 100.781C141.87 100.099 142.104 99.2241 142.787 98.8283C143.474 98.4324 144.349 98.6668 144.745 99.3491L147.505 104.136C147.901 104.818 147.667 105.693 146.985 106.089C146.761 106.219 146.511 106.281 146.271 106.281Z" fill="white"/>
<path fill-rule="evenodd" clip-rule="evenodd" d="M164.37 157.078C163.583 157.078 162.938 156.438 162.938 155.646V142.698C162.938 142.318 163.089 141.953 163.359 141.688L167.729 137.318C168.005 137.037 168.161 136.672 168.161 136.276C168.161 135.881 168.005 135.511 167.729 135.229C167.448 134.953 167.078 134.797 166.682 134.797C166.286 134.797 165.917 134.953 165.641 135.229L162.474 138.396C162.208 138.662 161.844 138.813 161.464 138.813C161.083 138.813 160.719 138.662 160.453 138.396L157.286 135.229C156.714 134.657 155.776 134.657 155.198 135.229C154.922 135.511 154.766 135.881 154.766 136.276C154.766 136.672 154.922 137.037 155.198 137.318L159.568 141.688C159.839 141.953 159.99 142.318 159.99 142.698V155.646C159.99 156.438 159.349 157.078 158.557 157.078C157.766 157.078 157.125 156.438 157.125 155.646V143.292L153.177 139.344C152.354 138.521 151.906 137.433 151.906 136.276C151.906 135.115 152.354 134.026 153.177 133.203C154.87 131.511 157.62 131.511 159.312 133.203L161.464 135.354L163.615 133.203C164.438 132.386 165.526 131.933 166.682 131.933C167.844 131.933 168.932 132.386 169.75 133.203C170.573 134.026 171.021 135.115 171.021 136.276C171.021 137.433 170.573 138.521 169.75 139.344L165.802 143.292V155.646C165.802 156.438 165.161 157.078 164.37 157.078Z" fill="white"/>
<mask id="mask31_120_2513" style="mask-type:luminance" maskUnits="userSpaceOnUse" x="183" y="39" width="81" height="81">
<path d="M183.333 39.667H263.333V119.667H183.333V39.667Z" fill="white"/>
</mask>
<g mask="url(#mask31_120_2513)">
<mask id="mask32_120_2513" style="mask-type:luminance" maskUnits="userSpaceOnUse" x="173" y="29" width="100" height="100">
<path d="M173.24 55.1257L247.068 29.959L272.24 103.782L198.412 128.954L173.24 55.1257Z" fill="white"/>
</mask>
<g mask="url(#mask32_120_2513)">
<mask id="mask33_120_2513" style="mask-type:luminance" maskUnits="userSpaceOnUse" x="173" y="29" width="100" height="100">
<path d="M173.24 55.1257L247.068 29.959L272.24 103.782L198.412 128.954L173.24 55.1257Z" fill="white"/>
</mask>
<g mask="url(#mask33_120_2513)">
<path d="M210.266 42.5058C189.844 49.4642 178.906 71.7402 185.865 92.1517C192.823 112.563 215.089 123.516 235.511 116.553C255.927 109.594 266.875 87.3183 259.912 66.9069C252.953 46.4954 230.677 35.5423 210.266 42.5058ZM234.391 113.261C215.787 119.605 195.5 109.631 189.156 91.0319C182.813 72.4277 192.787 52.136 211.391 45.7975C229.984 39.4537 250.281 49.4225 256.625 68.0266C262.964 86.6308 252.984 106.922 234.391 113.261Z" fill="white"/>
</g>
</g>
</g>
<mask id="mask34_120_2513" style="mask-type:luminance" maskUnits="userSpaceOnUse" x="204" y="81" width="45" height="30">
<path d="M204.667 81H248.667V110.333H204.667V81Z" fill="white"/>
</mask>
<g mask="url(#mask34_120_2513)">
<mask id="mask35_120_2513" style="mask-type:luminance" maskUnits="userSpaceOnUse" x="173" y="29" width="100" height="100">
<path d="M173.239 55.1247L247.067 29.958L272.239 103.781L198.411 128.953L173.239 55.1247Z" fill="white"/>
</mask>
<g mask="url(#mask35_120_2513)">
<mask id="mask36_120_2513" style="mask-type:luminance" maskUnits="userSpaceOnUse" x="173" y="29" width="100" height="100">
<path d="M173.239 55.1247L247.067 29.958L272.239 103.781L198.411 128.953L173.239 55.1247Z" fill="white"/>
</mask>
<g mask="url(#mask36_120_2513)">
<path d="M245.443 81.9425L206.5 95.2185C206.021 95.38 205.635 95.7498 205.448 96.2289C205.26 96.7029 205.286 97.2394 205.531 97.6873C210.786 107.422 222.219 111.901 232.708 108.323C243.187 104.75 249.5 94.2237 247.713 83.3071C247.635 82.8019 247.328 82.3644 246.89 82.0987C246.453 81.8331 245.927 81.7758 245.443 81.9425ZM231.583 105.036C228.474 106.094 225.281 106.312 222.239 105.802C224.125 103.161 226.776 101.161 229.901 100.099C233.021 99.0362 236.338 98.9946 239.453 99.9373C237.349 102.198 234.687 103.974 231.583 105.036ZM241.661 97.0154C237.521 95.4581 233.01 95.3644 228.781 96.8071C224.552 98.2498 221.026 101.083 218.698 104.844C215.12 103.5 211.943 101.104 209.677 97.8071L244.515 85.9321C244.729 89.9269 243.677 93.7654 241.661 97.0154Z" fill="white"/>
</g>
</g>
</g>
<mask id="mask37_120_2513" style="mask-type:luminance" maskUnits="userSpaceOnUse" x="223" y="57" width="23" height="23">
<path d="M223.333 57H246V79.6667H223.333V57Z" fill="white"/>
</mask>
<g mask="url(#mask37_120_2513)">
<mask id="mask38_120_2513" style="mask-type:luminance" maskUnits="userSpaceOnUse" x="173" y="29" width="100" height="100">
<path d="M173.24 55.1247L247.068 29.958L272.24 103.781L198.412 128.953L173.24 55.1247Z" fill="white"/>
</mask>
<g mask="url(#mask38_120_2513)">
<mask id="mask39_120_2513" style="mask-type:luminance" maskUnits="userSpaceOnUse" x="173" y="29" width="100" height="100">
<path d="M173.24 55.1247L247.068 29.958L272.24 103.781L198.412 128.953L173.24 55.1247Z" fill="white"/>
</mask>
<g mask="url(#mask39_120_2513)">
<path d="M244.188 62.203C243.391 61.1301 242.078 60.6249 240.766 60.8697L237.594 61.453L235.313 59.1822C234.37 58.2447 233 57.9218 231.74 58.3541C230.474 58.7864 229.589 59.8749 229.412 61.1926L228.995 64.3853L226.125 65.8593C224.938 66.4686 224.219 67.6666 224.235 69.0051C224.255 70.3384 225.016 71.5207 226.224 72.0936L229.13 73.4791L229.636 76.6614C229.844 77.9739 230.766 79.0364 232.042 79.4322C232.761 79.6509 233.505 79.6353 234.188 79.4061C234.714 79.2239 235.198 78.9218 235.599 78.4999L237.813 76.1561L240.995 76.6614C242.308 76.8645 243.604 76.3124 244.375 75.2239C245.141 74.1353 245.224 72.7291 244.584 71.5624L243.042 68.7343L244.505 65.8593C245.11 64.6718 244.979 63.2707 244.188 62.203ZM239.943 67.1561C239.427 68.177 239.448 69.3905 239.99 70.3905L241.531 73.2291L238.349 72.7239C237.214 72.552 236.073 72.9374 235.287 73.7655L233.068 76.1145L232.558 72.927C232.38 71.802 231.651 70.828 230.62 70.3332L227.714 68.9582L230.584 67.4843C231.599 66.9634 232.292 65.9791 232.448 64.8332L232.854 61.6405L232.865 61.6457L235.146 63.9166C235.953 64.7343 237.115 65.0832 238.235 64.8749L241.406 64.2864L239.943 67.1561Z" fill="white"/>
</g>
</g>
</g>
<mask id="mask40_120_2513" style="mask-type:luminance" maskUnits="userSpaceOnUse" x="195" y="67" width="22" height="24">
<path d="M195.333 67.667H216.667V90.3337H195.333V67.667Z" fill="white"/>
</mask>
<g mask="url(#mask40_120_2513)">
<mask id="mask41_120_2513" style="mask-type:luminance" maskUnits="userSpaceOnUse" x="173" y="29" width="100" height="100">
<path d="M173.24 55.1257L247.068 29.959L272.24 103.782L198.412 128.954L173.24 55.1257Z" fill="white"/>
</mask>
<g mask="url(#mask41_120_2513)">
<mask id="mask42_120_2513" style="mask-type:luminance" maskUnits="userSpaceOnUse" x="173" y="29" width="100" height="100">
<path d="M173.24 55.1257L247.068 29.959L272.24 103.782L198.412 128.954L173.24 55.1257Z" fill="white"/>
</mask>
<g mask="url(#mask42_120_2513)">
<path d="M203.245 89.2506C203.964 89.4693 204.709 89.4537 205.391 89.2245C205.917 89.0422 206.401 88.7402 206.802 88.3183L209.016 85.9745L212.198 86.4797C213.511 86.6829 214.813 86.1412 215.578 85.0422C216.344 83.9537 216.427 82.5474 215.787 81.3808L214.245 78.5527L215.709 75.6777C216.313 74.4902 216.183 73.0891 215.391 72.0214C214.594 70.9485 213.282 70.4433 211.969 70.6881L208.797 71.2714L206.516 69.0006C205.573 68.0683 204.203 67.7402 202.943 68.1724C201.677 68.6047 200.792 69.6933 200.615 71.011L200.198 74.2037L197.328 75.6777C196.141 76.287 195.422 77.4849 195.438 78.8235C195.459 80.1568 196.219 81.3391 197.417 81.912L200.334 83.2974L200.839 86.4797C201.047 87.7922 201.969 88.8547 203.245 89.2506ZM201.776 77.3027C202.802 76.7818 203.495 75.7974 203.651 74.662L204.058 71.4589L206.349 73.7349C207.156 74.5527 208.308 74.9016 209.438 74.6933L212.61 74.1047L211.146 76.9745C210.63 77.9954 210.651 79.2089 211.193 80.2089L212.735 83.0474L209.552 82.5422C208.985 82.4589 208.422 82.5058 207.891 82.6829C207.365 82.8652 206.886 83.1777 206.49 83.5839L204.271 85.9329L203.761 82.7454C203.584 81.6204 202.854 80.6464 201.823 80.1516L198.917 78.7766L201.776 77.3027Z" fill="white"/>
</g>
</g>
</g>
<mask id="mask43_120_2513" style="mask-type:luminance" maskUnits="userSpaceOnUse" x="155" y="51" width="30" height="38">
<path d="M155.333 51.667H184.667V89.0003H155.333V51.667Z" fill="white"/>
</mask>
<g mask="url(#mask43_120_2513)">
<mask id="mask44_120_2513" style="mask-type:luminance" maskUnits="userSpaceOnUse" x="153" y="52" width="32" height="40">
<path d="M162.927 52.209L184.932 58.9017L175.036 91.4329L153.031 84.7402L162.927 52.209Z" fill="white"/>
</mask>
<g mask="url(#mask44_120_2513)">
<mask id="mask45_120_2513" style="mask-type:luminance" maskUnits="userSpaceOnUse" x="153" y="52" width="32" height="40">
<path d="M162.927 52.209L184.932 58.9017L175.036 91.4329L153.031 84.7402L162.927 52.209Z" fill="white"/>
</mask>
<g mask="url(#mask45_120_2513)">
<path d="M165.219 52.9072L184 58.6208L182.167 64.6416L168.839 60.5843L167.214 64.4801L170.912 65.6051C177.011 67.4593 180.448 73.902 178.594 79.9958C176.74 86.0947 170.297 89.5322 164.198 87.6781C158.104 85.8239 154.667 79.3812 156.521 73.2822L162.542 75.1156C161.698 77.8864 163.261 80.8135 166.031 81.6572C168.802 82.501 171.729 80.9385 172.573 78.1676C173.417 75.3968 171.854 72.4645 169.084 71.626L158.735 68.4749L165.219 52.9072Z" fill="white"/>
</g>
</g>
</g>
<mask id="mask46_120_2513" style="mask-type:luminance" maskUnits="userSpaceOnUse" x="151" y="220" width="19" height="27">
<path d="M151.109 220.364H169.109V246.364H151.109V220.364Z" fill="white"/>
</mask>
<g mask="url(#mask46_120_2513)">
<path fill-rule="evenodd" clip-rule="evenodd" d="M152.745 227.708C152.745 223.651 156.031 220.364 160.089 220.364C164.141 220.364 167.432 223.651 167.432 227.708C167.432 228.989 167.104 230.192 166.526 231.244C168.094 232.859 169.063 235.067 169.063 237.5C169.063 242.453 165.047 246.474 160.089 246.474C155.13 246.474 151.115 242.453 151.115 237.5C151.115 235.067 152.078 232.859 153.651 231.244C153.073 230.192 152.745 228.989 152.745 227.708ZM160.089 225.26C158.735 225.26 157.641 226.354 157.641 227.708C157.641 229.057 158.735 230.156 160.089 230.156C161.438 230.156 162.537 229.057 162.537 227.708C162.537 226.354 161.438 225.26 160.089 225.26ZM160.089 233.416C157.833 233.416 156.011 235.244 156.011 237.5C156.011 239.75 157.833 241.578 160.089 241.578C162.339 241.578 164.167 239.75 164.167 237.5C164.167 235.244 162.344 233.422 160.094 233.416H160.089Z" fill="white"/>
</g>
<mask id="mask47_120_2513" style="mask-type:luminance" maskUnits="userSpaceOnUse" x="56" y="99" width="26" height="38">
<path d="M56.6665 99.667H81.9998V137H56.6665V99.667Z" fill="white"/>
</mask>
<g mask="url(#mask47_120_2513)">
<mask id="mask48_120_2513" style="mask-type:luminance" maskUnits="userSpaceOnUse" x="56" y="99" width="26" height="38">
<path d="M56.5361 100.469L79.5101 99.4014L81.1768 135.365L58.2028 136.427L56.5361 100.469Z" fill="white"/>
</mask>
<g mask="url(#mask48_120_2513)">
<mask id="mask49_120_2513" style="mask-type:luminance" maskUnits="userSpaceOnUse" x="56" y="99" width="26" height="38">
<path d="M56.5361 100.469L79.5101 99.4014L81.1768 135.365L58.2028 136.427L56.5361 100.469Z" fill="white"/>
</mask>
<g mask="url(#mask49_120_2513)">
<path d="M63.8696 111.495C63.755 108.99 65.6925 106.865 68.1977 106.75C70.7029 106.631 72.8331 108.568 72.9477 111.079C73.005 112.355 72.5571 113.599 71.6925 114.547L57.8904 129.688L58.2186 136.771L80.9113 135.719L80.5936 128.912L67.255 129.532L76.729 119.136C78.8071 116.855 79.8956 113.844 79.755 110.761C79.4634 104.495 74.1509 99.6515 67.8852 99.9432C61.6144 100.23 56.7706 105.547 57.0623 111.813L63.8696 111.495Z" fill="white"/>
</g>
</g>
</g>
<mask id="mask50_120_2513" style="mask-type:luminance" maskUnits="userSpaceOnUse" x="82" y="137" width="43" height="26">
<path d="M82 137H124.667V162.333H82V137Z" fill="white"/>
</mask>
<g mask="url(#mask50_120_2513)">
<mask id="mask51_120_2513" style="mask-type:luminance" maskUnits="userSpaceOnUse" x="75" y="136" width="49" height="41">
<path d="M85.5104 136.786L123.833 153.974L113.604 176.781L75.2812 159.599L85.5104 136.786Z" fill="white"/>
</mask>
<g mask="url(#mask51_120_2513)">
<mask id="mask52_120_2513" style="mask-type:luminance" maskUnits="userSpaceOnUse" x="75" y="136" width="49" height="41">
<path d="M85.5104 136.786L123.833 153.974L113.604 176.781L75.2812 159.599L85.5104 136.786Z" fill="white"/>
</mask>
<g mask="url(#mask52_120_2513)">
<path d="M118.714 160.947L83.9844 145.369C82.823 144.849 82.4011 143.734 82.9167 142.572L84.6459 138.718C85.1667 137.557 86.2865 137.135 87.4427 137.651L122.172 153.229C123.328 153.744 123.755 154.864 123.234 156.02L121.505 159.88C120.99 161.036 119.87 161.463 118.714 160.947Z" fill="white"/>
</g>
</g>
</g>
<mask id="mask53_120_2513" style="mask-type:luminance" maskUnits="userSpaceOnUse" x="75" y="151" width="42" height="26">
<path d="M75.3335 151.667H116.667V177H75.3335V151.667Z" fill="white"/>
</mask>
<g mask="url(#mask53_120_2513)">
<mask id="mask54_120_2513" style="mask-type:luminance" maskUnits="userSpaceOnUse" x="75" y="136" width="49" height="41">
<path d="M85.5104 136.787L123.833 153.975L113.604 176.782L75.2812 159.6L85.5104 136.787Z" fill="white"/>
</mask>
<g mask="url(#mask54_120_2513)">
<mask id="mask55_120_2513" style="mask-type:luminance" maskUnits="userSpaceOnUse" x="75" y="136" width="49" height="41">
<path d="M85.5104 136.787L123.833 153.975L113.604 176.782L75.2812 159.6L85.5104 136.787Z" fill="white"/>
</mask>
<g mask="url(#mask55_120_2513)">
<path d="M111.792 176.381L77.0573 160.808C75.901 160.287 75.474 159.168 75.9948 158.011L77.724 154.152C78.2448 152.996 79.3646 152.569 80.5208 153.09L115.25 168.662C116.406 169.183 116.833 170.303 116.312 171.459L114.583 175.319C114.062 176.475 112.948 176.902 111.792 176.381Z" fill="white"/>
</g>
</g>
</g>
<mask id="mask56_120_2513" style="mask-type:luminance" maskUnits="userSpaceOnUse" x="116" y="22" width="40" height="39">
<path d="M116.667 22.6045H155.333V61.0003H116.667V22.6045Z" fill="white"/>
</mask>
<g mask="url(#mask56_120_2513)">
<path d="M151.958 41.3805C151.958 50.042 144.911 57.0889 136.25 57.0889C127.588 57.0889 120.542 50.042 120.542 41.3805C120.542 32.7139 127.588 25.667 136.25 25.667C144.911 25.667 151.958 32.7139 151.958 41.3805ZM117.479 41.3805C117.479 51.7451 125.885 60.1514 136.25 60.1514C146.62 60.1514 155.026 51.7451 155.026 41.3805C155.026 31.0107 146.62 22.6045 136.25 22.6045C125.885 22.6045 117.479 31.0107 117.479 41.3805Z" fill="white"/>
</g>
<path d="M134.995 29.4482V32.3545C132.287 32.943 130.693 34.8962 130.693 37.7191C130.693 42.6097 137.901 42.9118 137.901 45.1462C137.901 46.2399 137.344 46.7139 135.943 46.7139C134.771 46.7139 133.599 46.266 132.089 45.1462L130.021 48.391C131.422 49.6462 133.401 50.318 134.995 50.5107V53.3076H138.125V50.3441C141.057 49.6462 142.479 47.5212 142.479 44.8128C142.479 39.7295 135.276 39.6201 135.276 37.4951C135.276 36.3805 135.86 36.042 137.063 36.042C138.094 36.042 138.964 36.4899 139.969 37.3805L142.344 34.6462C141.224 33.4743 139.886 32.5785 138.125 32.2972V29.4482H134.995Z" fill="white"/>
<mask id="mask57_120_2513" style="mask-type:luminance" maskUnits="userSpaceOnUse" x="101" y="65" width="21" height="22">
<path d="M101.057 65H122V86.6042H101.057V65Z" fill="white"/>
</mask>
<g mask="url(#mask57_120_2513)">
<path d="M117.515 85.9527L121.396 82.0413C121.911 81.5204 121.917 80.6819 121.406 80.1558L119.953 78.635L108.552 67.6923L107.224 66.51C106.677 66.0256 105.849 66.0621 105.344 66.5881L101.573 70.5725C101.062 71.109 101.083 71.9579 101.614 72.4735L115.62 85.9735C116.151 86.4892 116.995 86.4788 117.515 85.9527Z" fill="white"/>
</g>
<mask id="mask58_120_2513" style="mask-type:luminance" maskUnits="userSpaceOnUse" x="111" y="55" width="48" height="22">
<path d="M111.333 55.667H158.776V76.5368H111.333V55.667Z" fill="white"/>
</mask>
<g mask="url(#mask58_120_2513)">
<path d="M147.286 69.5632H147.271C147.286 69.558 147.292 69.558 147.286 69.5632ZM141.672 76.1673C142.484 75.8705 143.141 75.2611 143.771 74.6673C149.589 69.1517 160.661 57.4694 158.505 55.8809C158.385 55.834 158.271 55.7975 158.156 55.7715C156.781 55.433 155.313 56.2038 154.057 56.9538C151.198 58.6673 148.333 60.3809 145.469 62.0944C145.094 62.3184 144.943 62.7871 145.125 63.183C145.562 64.1569 145.635 65.0944 145.464 65.9746C145.026 68.2455 142.995 69.8601 140.688 69.8601H129.005C128.594 69.8601 128.26 69.5215 128.26 69.1101V68.5632C128.26 68.1465 128.594 67.8132 129.01 67.8132C132.099 67.834 135.188 67.8496 138.276 67.8653C140.26 67.8757 142.906 67.3028 142.99 65.3184C143.031 64.2715 142.203 63.3444 141.234 62.9434C140.271 62.5371 139.187 62.5371 138.141 62.5476C135.146 62.5684 131.672 62.808 128.609 62.0059C125.292 61.1413 122.766 59.9538 119.286 61.1517C116.198 62.2142 113.615 64.3861 111.359 66.7507C114.052 69.36 116.75 71.9642 119.443 74.5736C120.089 75.1986 120.755 75.8392 121.599 76.1517C122.318 76.4173 123.104 76.4226 123.875 76.4226C129.068 76.4226 134.26 76.4226 139.458 76.4226C140.203 76.4226 140.969 76.4226 141.672 76.1673Z" fill="white"/>
</g>
<path d="M179.266 22.6455C179.943 22.6455 180.495 22.0986 180.495 21.4163C180.495 20.7393 179.943 20.1924 179.266 20.1924C174.448 20.1924 170.531 24.109 170.531 28.9268C170.531 33.7393 174.448 37.6611 179.266 37.6611C184.083 37.6611 188 33.7393 188 28.9268C188 28.2445 187.453 27.6976 186.776 27.6976C186.099 27.6976 185.547 28.2445 185.547 28.9268C185.547 32.3903 182.729 35.2028 179.266 35.2028C175.807 35.2028 172.99 32.3903 172.99 28.9268C172.99 25.4632 175.807 22.6455 179.266 22.6455Z" fill="white"/>
<path d="M179.266 13.8906C170.979 13.8906 164.234 20.6354 164.234 28.9271C164.234 37.2135 170.979 43.9583 179.266 43.9583C187.557 43.9583 194.302 37.2135 194.302 28.9271C194.302 28.2448 193.75 27.6979 193.073 27.6979C192.396 27.6979 191.844 28.2448 191.844 28.9271C191.844 35.8594 186.203 41.5052 179.266 41.5052C172.333 41.5052 166.688 35.8594 166.688 28.9271C166.688 21.9896 172.333 16.349 179.266 16.349C179.943 16.349 180.495 15.7969 180.495 15.1198C180.495 14.4427 179.943 13.8906 179.266 13.8906Z" fill="white"/>
<mask id="mask59_120_2513" style="mask-type:luminance" maskUnits="userSpaceOnUse" x="157" y="6" width="45" height="45">
<path d="M157.401 6.33301H202V50.4111H157.401V6.33301Z" fill="white"/>
</mask>
<g mask="url(#mask59_120_2513)">
<path d="M199.911 27.6973C199.234 27.6973 198.682 28.2441 198.682 28.9264C198.682 39.6296 189.974 48.3379 179.265 48.3379C168.562 48.3379 159.854 39.6296 159.854 28.9264C159.854 18.2181 168.562 9.50977 179.265 9.50977C179.942 9.50977 180.494 8.96289 180.494 8.2806C180.494 7.60352 179.942 7.05664 179.265 7.05664C167.208 7.05664 157.396 16.8639 157.396 28.9264C157.396 40.9837 167.208 50.7962 179.265 50.7962C191.328 50.7962 201.135 40.9837 201.135 28.9264C201.135 28.2441 200.588 27.6973 199.911 27.6973Z" fill="white"/>
</g>
<mask id="mask60_120_2513" style="mask-type:luminance" maskUnits="userSpaceOnUse" x="178" y="5" width="26" height="26">
<path d="M178 5.41113H203.333V30.333H178V5.41113Z" fill="white"/>
</mask>
<g mask="url(#mask60_120_2513)">
<path d="M195.229 18.27L192.484 17.6138L196.463 13.6346L199.208 14.2909L195.229 18.27ZM190.094 13.1294L194.073 9.15545L194.693 11.7596L190.713 15.7388L190.094 13.1294ZM202.812 13.2752C202.693 12.8482 202.349 12.5148 201.911 12.4159L197.099 11.2648L195.948 6.44712C195.844 6.01482 195.515 5.67107 195.088 5.55128C194.661 5.4367 194.203 5.55128 193.885 5.86378L187.87 11.8794C187.568 12.1815 187.448 12.619 187.547 13.0357L188.677 17.7752L178.401 28.0565C177.922 28.5357 177.922 29.3117 178.401 29.7909C178.64 30.0305 178.953 30.1502 179.265 30.1502C179.583 30.1502 179.896 30.0305 180.135 29.7909L190.312 19.619L195.328 20.8169C195.422 20.8377 195.521 20.8482 195.614 20.8482C195.937 20.8482 196.25 20.7232 196.479 20.494L202.495 14.4784C202.812 14.1607 202.932 13.7023 202.812 13.2752Z" fill="white"/>
</g>
<path d="M142.271 185.671C141.156 185.479 140.088 186.239 139.911 187.354C139.849 187.703 139.891 188.052 140 188.38L135.349 192.27C135.151 192.14 134.911 192.073 134.672 192.031C134.276 191.963 133.927 192.01 133.578 192.14L131.568 189.869C131.677 189.671 131.745 189.474 131.786 189.234C131.786 189.125 131.786 189.015 131.786 188.906C131.786 187.921 131.088 187.052 130.083 186.895C128.969 186.698 127.901 187.463 127.724 188.578C127.661 188.994 127.703 189.406 127.88 189.781L124.057 193.578C123.901 193.494 123.708 193.448 123.531 193.427C122.984 193.338 122.437 193.448 122 193.776C121.568 194.104 121.26 194.562 121.172 195.109C121 196.224 121.739 197.291 122.854 197.489C122.963 197.51 123.073 197.51 123.203 197.51C124.187 197.51 125.062 196.812 125.234 195.807C125.302 195.395 125.255 194.979 125.083 194.609L128.88 190.76C129.036 190.849 129.208 190.895 129.406 190.916C129.536 190.937 129.646 190.937 129.755 190.937C130.021 190.937 130.26 190.895 130.5 190.786L132.51 193.057C132.401 193.255 132.333 193.448 132.292 193.687C132.203 194.234 132.312 194.781 132.641 195.218C132.969 195.656 133.427 195.963 133.974 196.046C134.104 196.073 134.213 196.073 134.323 196.073C134.734 196.073 135.151 195.937 135.5 195.698C135.937 195.369 136.245 194.911 136.328 194.364C136.354 194.234 136.354 194.125 136.354 194.015C136.354 193.776 136.307 193.557 136.224 193.338L140.875 189.453C141.068 189.583 141.312 189.651 141.552 189.692C141.682 189.713 141.792 189.713 141.901 189.713C142.318 189.713 142.729 189.583 143.078 189.323C143.516 188.994 143.823 188.536 143.911 187.989C143.932 187.88 143.932 187.75 143.932 187.64C143.953 186.724 143.255 185.849 142.271 185.671ZM123.818 195.546C123.75 195.895 123.422 196.114 123.094 196.073C122.745 196.005 122.505 195.677 122.568 195.328C122.594 195.151 122.703 195 122.833 194.911C122.943 194.849 123.073 194.802 123.203 194.802C123.245 194.802 123.271 194.802 123.312 194.802C123.463 194.823 123.62 194.932 123.708 195.067C123.818 195.198 123.838 195.369 123.818 195.546ZM129.646 189.541C129.495 189.515 129.344 189.406 129.234 189.276C129.146 189.145 129.099 188.974 129.125 188.796C129.187 188.489 129.448 188.27 129.755 188.27C129.802 188.27 129.823 188.27 129.864 188.27C130.213 188.338 130.432 188.666 130.391 189.015C130.37 189.192 130.26 189.323 130.125 189.432C129.974 189.515 129.802 189.562 129.646 189.541ZM134.406 193.427C134.76 193.494 134.974 193.823 134.932 194.171C134.911 194.343 134.802 194.5 134.672 194.583C134.542 194.692 134.364 194.718 134.213 194.692C134.057 194.671 133.906 194.562 133.797 194.432C133.708 194.302 133.667 194.125 133.687 193.953C133.755 193.645 134.016 193.427 134.323 193.427C134.344 193.406 134.385 193.427 134.406 193.427ZM141.286 187.593C141.333 187.291 141.614 187.073 141.922 187.073C141.963 187.073 141.989 187.073 142.031 187.073C142.38 187.135 142.599 187.463 142.557 187.812C142.531 187.968 142.422 188.119 142.292 188.229C142.161 188.338 141.989 188.359 141.833 188.338C141.661 188.317 141.531 188.229 141.422 188.078C141.286 187.921 141.266 187.77 141.286 187.593Z" fill="white"/>
<path d="M142.339 181.042C136.682 175.386 127.485 175.386 121.849 181.042C116.193 186.698 116.193 195.896 121.849 201.532C124.578 204.261 128.229 205.766 132.094 205.766C135.958 205.766 139.61 204.261 142.339 201.532C145.068 198.802 146.573 195.151 146.573 191.287C146.573 187.401 145.068 183.776 142.339 181.042ZM141.333 200.526C138.865 202.995 135.589 204.349 132.094 204.349C128.599 204.349 125.323 202.995 122.854 200.526C117.766 195.438 117.766 187.136 122.854 182.026C127.943 176.938 136.245 176.938 141.354 182.026C143.823 184.495 145.177 187.771 145.177 191.266C145.156 194.782 143.802 198.058 141.333 200.526Z" fill="white"/>
<mask id="mask61_120_2513" style="mask-type:luminance" maskUnits="userSpaceOnUse" x="115" y="174" width="43" height="42">
<path d="M115.401 174.333H157.401V215.984H115.401V174.333Z" fill="white"/>
</mask>
<g mask="url(#mask61_120_2513)">
<path d="M156.839 210.968L149.917 204.062C149.37 203.541 148.453 203.541 147.906 204.062L147.057 204.916L144.521 202.38C150.354 195.827 150.156 185.76 143.885 179.494C137.38 172.984 126.786 172.984 120.276 179.494C117.13 182.635 115.406 186.833 115.406 191.286C115.406 195.744 117.13 199.937 120.297 203.083C123.552 206.338 127.833 207.952 132.094 207.952C136.224 207.952 140.349 206.421 143.563 203.385L146.073 205.9L145.219 206.749C144.958 207.015 144.807 207.385 144.807 207.755C144.807 208.124 144.958 208.499 145.219 208.76L152.12 215.661C152.385 215.926 152.755 216.077 153.125 216.077C153.5 216.077 153.87 215.926 154.13 215.661L156.859 212.932C157.406 212.406 157.406 211.51 156.839 210.968ZM121.302 202.077C118.422 199.192 116.828 195.369 116.828 191.286C116.828 187.202 118.422 183.359 121.302 180.473C124.276 177.505 128.182 176.02 132.094 176.02C136.005 176.02 139.911 177.505 142.885 180.473C148.844 186.437 148.844 196.114 142.885 202.077C136.943 208.041 127.245 208.041 121.302 202.077ZM153.125 214.676L146.203 207.775L148.932 205.046L155.859 211.968L153.125 214.676Z" fill="white"/>
</g>
<mask id="mask62_120_2513" style="mask-type:luminance" maskUnits="userSpaceOnUse" x="163" y="183" width="33" height="34">
<path d="M163.401 183.667H195.333V216.297H163.401V183.667Z" fill="white"/>
</mask>
<g mask="url(#mask62_120_2513)">
<path d="M193.771 197.167L191.547 196.802C191.281 195.911 190.932 195.062 190.489 194.255L191.797 192.422C191.927 192.24 191.984 192.036 191.969 191.812C191.948 191.594 191.859 191.401 191.703 191.245L188.25 187.786C188.088 187.63 187.901 187.542 187.677 187.526C187.453 187.505 187.25 187.562 187.068 187.693L185.239 189C184.427 188.557 183.578 188.208 182.693 187.948L182.323 185.719C182.286 185.5 182.182 185.318 182.01 185.172C181.838 185.026 181.646 184.953 181.422 184.958H176.526C176.302 184.953 176.104 185.026 175.937 185.172C175.765 185.318 175.661 185.5 175.625 185.719L175.255 187.948C174.37 188.208 173.521 188.557 172.708 189L170.88 187.693C170.698 187.562 170.495 187.505 170.271 187.526C170.047 187.542 169.859 187.63 169.698 187.786L166.234 191.234C166.078 191.391 165.989 191.583 165.974 191.807C165.953 192.026 166.01 192.229 166.14 192.411L167.448 194.245C167.005 195.057 166.656 195.906 166.396 196.792L164.167 197.156C163.948 197.193 163.765 197.297 163.62 197.469C163.474 197.641 163.401 197.838 163.401 198.062V202.943C163.401 203.167 163.474 203.365 163.62 203.536C163.765 203.708 163.948 203.812 164.167 203.849L166.396 204.213C166.656 205.099 167.005 205.953 167.448 206.76L166.14 208.594C166.01 208.776 165.953 208.979 165.974 209.203C165.989 209.422 166.078 209.615 166.234 209.771L169.693 213.229C169.849 213.385 170.042 213.474 170.26 213.49C170.484 213.51 170.687 213.453 170.87 213.323L172.703 212.016C173.51 212.458 174.359 212.807 175.25 213.068L175.614 215.292C175.651 215.516 175.755 215.698 175.927 215.844C176.099 215.99 176.297 216.057 176.521 216.057H181.401C181.625 216.057 181.823 215.99 181.995 215.844C182.167 215.698 182.271 215.516 182.307 215.292L182.672 213.068C183.557 212.807 184.406 212.458 185.219 212.016L187.052 213.323C187.234 213.453 187.437 213.51 187.656 213.49C187.88 213.474 188.073 213.385 188.229 213.229L191.682 209.771C191.844 209.615 191.932 209.422 191.948 209.203C191.969 208.979 191.911 208.776 191.781 208.594L190.469 206.76C190.911 205.953 191.265 205.099 191.526 204.213L193.75 203.849C193.974 203.812 194.156 203.708 194.302 203.536C194.443 203.365 194.515 203.167 194.515 202.943V198.073C194.515 197.849 194.448 197.656 194.307 197.484C194.167 197.312 193.984 197.208 193.771 197.167ZM192.703 202.177L190.661 202.521C190.271 202.588 190.026 202.818 189.932 203.203C189.656 204.323 189.224 205.37 188.625 206.354C188.417 206.698 188.432 207.031 188.661 207.359L189.864 209.047L187.505 211.401L185.818 210.198C185.489 209.963 185.156 209.953 184.812 210.161C183.828 210.76 182.776 211.193 181.661 211.469C181.271 211.562 181.047 211.807 180.974 212.198L180.635 214.245H177.302L176.953 212.208C176.885 211.812 176.656 211.568 176.271 211.474C175.151 211.203 174.104 210.766 173.12 210.172C172.776 209.963 172.443 209.974 172.114 210.208L170.427 211.411L168.078 209.047L169.281 207.359C169.515 207.031 169.526 206.698 169.318 206.354C168.724 205.37 168.286 204.323 168.015 203.203C167.922 202.818 167.677 202.588 167.281 202.521L165.234 202.177V198.844L167.276 198.5C167.667 198.427 167.911 198.203 168.005 197.812C168.281 196.698 168.713 195.646 169.312 194.661C169.521 194.318 169.51 193.984 169.276 193.656L168.073 191.969L170.437 189.62L172.12 190.823C172.448 191.057 172.781 191.073 173.125 190.859C174.109 190.266 175.161 189.828 176.276 189.557C176.667 189.463 176.896 189.219 176.963 188.823L177.302 186.776H180.635L180.974 188.818C181.047 189.213 181.271 189.453 181.661 189.552C182.776 189.823 183.828 190.255 184.812 190.854C185.156 191.062 185.489 191.052 185.818 190.818L187.505 189.615L189.859 191.969L188.656 193.656C188.422 193.984 188.411 194.318 188.62 194.661C189.219 195.646 189.651 196.698 189.922 197.812C190.021 198.203 190.26 198.427 190.656 198.5L192.698 198.838L192.703 202.177Z" fill="white"/>
</g>
<path d="M178.969 192.271C178.427 192.271 177.89 192.323 177.359 192.432C176.833 192.536 176.318 192.692 175.818 192.901C175.318 193.104 174.838 193.359 174.39 193.661C173.943 193.963 173.526 194.302 173.14 194.687C172.76 195.067 172.417 195.484 172.12 195.932C171.818 196.385 171.562 196.859 171.354 197.359C171.151 197.859 170.995 198.375 170.885 198.906C170.781 199.437 170.729 199.968 170.729 200.51C170.729 201.052 170.781 201.588 170.885 202.119C170.995 202.651 171.151 203.166 171.354 203.666C171.562 204.166 171.818 204.64 172.12 205.088C172.417 205.541 172.76 205.958 173.14 206.338C173.526 206.724 173.943 207.062 174.39 207.364C174.838 207.666 175.318 207.916 175.818 208.125C176.318 208.333 176.833 208.489 177.359 208.593C177.89 208.698 178.427 208.755 178.969 208.755C179.51 208.755 180.047 208.698 180.578 208.593C181.109 208.489 181.625 208.333 182.125 208.125C182.625 207.916 183.099 207.666 183.547 207.364C183.995 207.062 184.411 206.724 184.797 206.338C185.177 205.958 185.521 205.541 185.823 205.088C186.12 204.64 186.375 204.166 186.583 203.666C186.792 203.166 186.948 202.651 187.052 202.119C187.156 201.588 187.208 201.052 187.208 200.51C187.208 199.968 187.156 199.437 187.052 198.906C186.943 198.375 186.786 197.859 186.578 197.359C186.375 196.859 186.12 196.385 185.818 195.937C185.515 195.484 185.177 195.073 184.792 194.687C184.411 194.307 183.995 193.963 183.547 193.661C183.094 193.364 182.62 193.109 182.12 192.901C181.62 192.692 181.104 192.536 180.578 192.432C180.047 192.323 179.51 192.271 178.969 192.271ZM178.969 206.922C178.547 206.922 178.13 206.88 177.719 206.797C177.307 206.718 176.906 206.593 176.515 206.432C176.125 206.271 175.76 206.073 175.406 205.843C175.057 205.609 174.734 205.343 174.437 205.047C174.14 204.744 173.875 204.422 173.64 204.073C173.406 203.724 173.208 203.354 173.047 202.963C172.885 202.578 172.765 202.177 172.682 201.76C172.599 201.349 172.557 200.932 172.557 200.51C172.557 200.093 172.599 199.677 172.682 199.26C172.765 198.849 172.885 198.448 173.047 198.057C173.208 197.672 173.406 197.302 173.64 196.953C173.875 196.599 174.14 196.276 174.437 195.979C174.734 195.682 175.057 195.416 175.406 195.182C175.76 194.948 176.125 194.75 176.515 194.588C176.906 194.432 177.307 194.307 177.719 194.224C178.13 194.146 178.547 194.104 178.969 194.104C179.39 194.104 179.807 194.146 180.219 194.224C180.63 194.307 181.031 194.432 181.422 194.588C181.812 194.75 182.182 194.948 182.531 195.182C182.88 195.416 183.203 195.682 183.5 195.979C183.797 196.276 184.062 196.599 184.297 196.953C184.531 197.302 184.729 197.672 184.89 198.057C185.052 198.448 185.172 198.849 185.255 199.26C185.338 199.677 185.38 200.093 185.38 200.51C185.38 200.932 185.338 201.349 185.255 201.76C185.172 202.177 185.052 202.578 184.89 202.963C184.729 203.354 184.531 203.724 184.297 204.073C184.062 204.422 183.797 204.744 183.5 205.047C183.203 205.343 182.88 205.609 182.531 205.843C182.182 206.073 181.812 206.271 181.422 206.432C181.031 206.593 180.63 206.718 180.219 206.797C179.807 206.88 179.39 206.922 178.969 206.922Z" fill="white"/>
<mask id="mask63_120_2513" style="mask-type:luminance" maskUnits="userSpaceOnUse" x="188" y="170" width="22" height="22">
<path d="M188.667 170.297H209.401V191.667H188.667V170.297Z" fill="white"/>
</mask>
<g mask="url(#mask63_120_2513)">
<path d="M208.422 177.938L207.239 177.745C207.099 177.307 206.922 176.885 206.713 176.479L207.411 175.505C207.542 175.323 207.599 175.12 207.578 174.896C207.562 174.672 207.474 174.484 207.312 174.323L205.156 172.167C205 172.01 204.807 171.922 204.583 171.901C204.359 171.885 204.156 171.938 203.979 172.068L203 172.766C202.594 172.557 202.172 172.385 201.739 172.245L201.542 171.062C201.505 170.839 201.401 170.656 201.229 170.516C201.062 170.37 200.864 170.297 200.64 170.297H197.588C197.364 170.297 197.167 170.37 196.995 170.516C196.823 170.656 196.719 170.839 196.682 171.062L196.484 172.245C196.052 172.385 195.63 172.557 195.224 172.766L194.25 172.068C194.068 171.938 193.864 171.885 193.64 171.901C193.417 171.922 193.229 172.01 193.068 172.167L190.911 174.323C190.755 174.484 190.667 174.672 190.646 174.896C190.63 175.12 190.682 175.323 190.812 175.505L191.51 176.479C191.302 176.885 191.13 177.307 190.989 177.745L189.807 177.938C189.583 177.974 189.401 178.078 189.255 178.25C189.114 178.422 189.042 178.62 189.042 178.844V181.896C189.042 182.12 189.114 182.318 189.255 182.484C189.401 182.656 189.583 182.76 189.807 182.797L190.989 182.995C191.13 183.427 191.302 183.849 191.51 184.255L190.812 185.234C190.682 185.417 190.63 185.615 190.646 185.839C190.667 186.063 190.755 186.255 190.911 186.411L193.068 188.573C193.229 188.729 193.417 188.818 193.64 188.833C193.864 188.854 194.068 188.797 194.25 188.667L195.224 187.969C195.63 188.177 196.052 188.354 196.484 188.495L196.682 189.677C196.719 189.896 196.823 190.078 196.995 190.224C197.167 190.37 197.364 190.443 197.588 190.443H200.64C200.864 190.443 201.062 190.37 201.229 190.224C201.401 190.078 201.505 189.896 201.542 189.677L201.739 188.495C202.172 188.354 202.594 188.177 203 187.969L203.979 188.667C204.156 188.797 204.359 188.854 204.583 188.833C204.807 188.818 205 188.729 205.156 188.573L207.312 186.411C207.474 186.255 207.562 186.063 207.578 185.839C207.599 185.615 207.542 185.417 207.411 185.234L206.713 184.255C206.922 183.849 207.099 183.427 207.239 182.995L208.422 182.797C208.64 182.76 208.823 182.656 208.969 182.484C209.114 182.318 209.187 182.12 209.182 181.896V178.844C209.187 178.62 209.114 178.422 208.969 178.25C208.823 178.078 208.64 177.974 208.422 177.938ZM207.354 181.12L206.364 181.286C205.969 181.354 205.729 181.583 205.63 181.969C205.469 182.635 205.208 183.26 204.849 183.849C204.64 184.193 204.656 184.526 204.89 184.854L205.469 185.672L204.411 186.734L203.594 186.151C203.265 185.917 202.932 185.901 202.588 186.109C202 186.464 201.38 186.724 200.713 186.885C200.323 186.984 200.099 187.229 200.026 187.62L199.864 188.609H198.364L198.198 187.62C198.13 187.229 197.901 186.984 197.51 186.885C196.849 186.724 196.224 186.464 195.64 186.109C195.297 185.901 194.958 185.917 194.63 186.151L193.818 186.734L192.755 185.672L193.338 184.854C193.573 184.526 193.583 184.193 193.375 183.849C193.021 183.266 192.76 182.641 192.599 181.974C192.505 181.589 192.26 181.359 191.864 181.292L190.88 181.125V179.62L191.864 179.453C192.26 179.385 192.505 179.156 192.599 178.766C192.76 178.104 193.021 177.474 193.375 176.891C193.583 176.547 193.573 176.208 193.338 175.88L192.755 175.068L193.818 174.005L194.63 174.589C194.958 174.823 195.297 174.833 195.64 174.625C196.224 174.271 196.849 174.01 197.51 173.849C197.901 173.755 198.13 173.51 198.198 173.115L198.364 172.13H199.864L200.026 173.115C200.099 173.51 200.323 173.755 200.713 173.849C201.38 174.01 202 174.271 202.588 174.625C202.932 174.833 203.265 174.823 203.594 174.589L204.411 174.005L205.469 175.068L204.89 175.88C204.656 176.208 204.64 176.547 204.849 176.891C205.203 177.474 205.463 178.099 205.625 178.76C205.724 179.151 205.963 179.38 206.359 179.448L207.349 179.615L207.354 181.12Z" fill="white"/>
</g>
<path d="M199.115 175.792C198.505 175.792 197.922 175.907 197.36 176.141C196.802 176.37 196.307 176.703 195.875 177.131C195.448 177.563 195.115 178.058 194.886 178.615C194.651 179.177 194.537 179.761 194.537 180.37C194.537 180.974 194.651 181.558 194.886 182.12C195.115 182.683 195.448 183.177 195.875 183.604C196.307 184.037 196.802 184.365 197.36 184.599C197.922 184.828 198.505 184.948 199.115 184.948C199.719 184.948 200.302 184.828 200.865 184.599C201.427 184.365 201.922 184.037 202.349 183.604C202.781 183.177 203.11 182.683 203.344 182.12C203.573 181.558 203.693 180.974 203.693 180.37C203.693 179.761 203.573 179.177 203.344 178.615C203.11 178.058 202.781 177.563 202.349 177.131C201.922 176.703 201.427 176.37 200.865 176.141C200.302 175.907 199.719 175.792 199.115 175.792ZM199.115 183.115C198.75 183.115 198.396 183.047 198.063 182.907C197.724 182.766 197.427 182.568 197.172 182.313C196.912 182.052 196.714 181.756 196.573 181.422C196.438 181.084 196.365 180.735 196.365 180.37C196.365 180.006 196.438 179.657 196.573 179.318C196.714 178.979 196.912 178.683 197.172 178.427C197.427 178.167 197.724 177.969 198.063 177.828C198.396 177.693 198.75 177.62 199.115 177.62C199.479 177.62 199.828 177.693 200.167 177.828C200.5 177.969 200.797 178.167 201.057 178.427C201.313 178.683 201.511 178.979 201.651 179.318C201.792 179.657 201.86 180.006 201.86 180.37C201.86 180.735 201.792 181.084 201.651 181.422C201.511 181.756 201.313 182.052 201.057 182.313C200.797 182.568 200.5 182.766 200.167 182.907C199.828 183.047 199.479 183.115 199.115 183.115Z" fill="white"/>
<mask id="mask64_120_2513" style="mask-type:luminance" maskUnits="userSpaceOnUse" x="200" y="137" width="17" height="24">
<path d="M200.667 137H216.667V161H200.667V137Z" fill="white"/>
</mask>
<g mask="url(#mask64_120_2513)">
<mask id="mask65_120_2513" style="mask-type:luminance" maskUnits="userSpaceOnUse" x="198" y="86" width="73" height="86">
<path d="M216.114 86.5L270.536 99.7083L253.088 171.62L198.667 158.417L216.114 86.5Z" fill="white"/>
</mask>
<g mask="url(#mask65_120_2513)">
<mask id="mask66_120_2513" style="mask-type:luminance" maskUnits="userSpaceOnUse" x="198" y="86" width="73" height="86">
<path d="M216.114 86.5L270.536 99.7083L253.088 171.62L198.667 158.417L216.114 86.5Z" fill="white"/>
</mask>
<g mask="url(#mask66_120_2513)">
<path d="M207.974 144.131C208.468 142.099 211.396 142.453 214.078 144.99L215.828 142.427C214.849 141.485 214.052 140.854 212.505 140.334L213.166 137.604C212.182 137.709 211.218 137.797 210.161 137.875L209.687 139.834C207.13 139.813 205.062 141.224 204.479 143.631C203.802 146.422 205.646 148.287 208.005 149.943C212.974 153.516 208.01 157.568 203.104 152.24L201.38 154.854C202.281 155.896 203.38 156.771 205.234 157.381L204.567 160.115L207.369 160.792L208.073 157.907C212.781 157.943 214.755 153.396 213.14 150.334C211.541 147.287 207.422 146.417 207.974 144.131Z" fill="white"/>
</g>
</g>
</g>
<mask id="mask67_120_2513" style="mask-type:luminance" maskUnits="userSpaceOnUse" x="216" y="133" width="16" height="32">
<path d="M216.667 133H231.333V165H216.667V133Z" fill="white"/>
</mask>
<g mask="url(#mask67_120_2513)">
<mask id="mask68_120_2513" style="mask-type:luminance" maskUnits="userSpaceOnUse" x="198" y="86" width="73" height="86">
<path d="M216.114 86.5L270.536 99.7083L253.088 171.62L198.667 158.417L216.114 86.5Z" fill="white"/>
</mask>
<g mask="url(#mask68_120_2513)">
<mask id="mask69_120_2513" style="mask-type:luminance" maskUnits="userSpaceOnUse" x="198" y="86" width="73" height="86">
<path d="M216.114 86.5L270.536 99.7083L253.088 171.62L198.667 158.417L216.114 86.5Z" fill="white"/>
</mask>
<g mask="url(#mask69_120_2513)">
<path d="M223.682 135.875L217.057 163.172L223.208 164.667C224.146 160.823 229.745 137.745 230.677 133.891C228.39 134.651 226.088 135.297 223.682 135.875Z" fill="white"/>
</g>
</g>
</g>
<mask id="mask70_120_2513" style="mask-type:luminance" maskUnits="userSpaceOnUse" x="204" y="98" width="65" height="38">
<path d="M204.667 98.333H268.667V135.666H204.667V98.333Z" fill="white"/>
</mask>
<g mask="url(#mask70_120_2513)">
<mask id="mask71_120_2513" style="mask-type:luminance" maskUnits="userSpaceOnUse" x="198" y="86" width="73" height="86">
<path d="M216.114 86.5L270.536 99.7083L253.088 171.62L198.667 158.417L216.114 86.5Z" fill="white"/>
</mask>
<g mask="url(#mask71_120_2513)">
<mask id="mask72_120_2513" style="mask-type:luminance" maskUnits="userSpaceOnUse" x="198" y="86" width="73" height="86">
<path d="M216.114 86.5L270.536 99.7083L253.088 171.62L198.667 158.417L216.114 86.5Z" fill="white"/>
</mask>
<g mask="url(#mask72_120_2513)">
<path d="M267.151 98.8545C264.786 99.568 259.146 101.261 257.49 101.766L259.667 103.271C260.708 102.948 260.156 103.12 262.479 102.401C249.87 123.078 224.615 131.797 205.349 131.422C205.292 133.511 205.312 132.74 205.25 134.818C211.016 134.99 247.505 133.573 265.453 104.058C265.625 106.776 265.578 105.995 265.667 107.381L267.792 108.86C267.219 99.9482 267.391 102.61 267.151 98.8545Z" fill="white"/>
</g>
</g>
</g>
<mask id="mask73_120_2513" style="mask-type:luminance" maskUnits="userSpaceOnUse" x="228" y="127" width="17" height="41">
<path d="M228.667 127.667H244.667V167.667H228.667V127.667Z" fill="white"/>
</mask>
<g mask="url(#mask73_120_2513)">
<mask id="mask74_120_2513" style="mask-type:luminance" maskUnits="userSpaceOnUse" x="198" y="86" width="73" height="86">
<path d="M216.114 86.5L270.536 99.7083L253.088 171.62L198.667 158.417L216.114 86.5Z" fill="white"/>
</mask>
<g mask="url(#mask74_120_2513)">
<mask id="mask75_120_2513" style="mask-type:luminance" maskUnits="userSpaceOnUse" x="198" y="86" width="73" height="86">
<path d="M216.114 86.5L270.536 99.7083L253.088 171.62L198.667 158.417L216.114 86.5Z" fill="white"/>
</mask>
<g mask="url(#mask75_120_2513)">
<path d="M228.677 165.994L234.828 167.484C236.026 162.547 243.26 132.734 244.474 127.739C242.114 129.104 239.64 130.349 237.057 131.468C233.453 146.328 232.26 151.234 228.677 165.994Z" fill="white"/>
</g>
</g>
</g>
<mask id="mask76_120_2513" style="mask-type:luminance" maskUnits="userSpaceOnUse" x="239" y="114" width="22" height="57">
<path d="M239.333 114.333H260.667V170.333H239.333V114.333Z" fill="white"/>
</mask>
<g mask="url(#mask76_120_2513)">
<mask id="mask77_120_2513" style="mask-type:luminance" maskUnits="userSpaceOnUse" x="198" y="86" width="73" height="86">
<path d="M216.115 86.5L270.537 99.7083L253.089 171.62L198.667 158.417L216.115 86.5Z" fill="white"/>
</mask>
<g mask="url(#mask77_120_2513)">
<mask id="mask78_120_2513" style="mask-type:luminance" maskUnits="userSpaceOnUse" x="198" y="86" width="73" height="86">
<path d="M216.115 86.5L270.537 99.7083L253.089 171.62L198.667 158.417L216.115 86.5Z" fill="white"/>
</mask>
<g mask="url(#mask78_120_2513)">
<path d="M240.297 168.812L246.448 170.307C249.579 157.416 256.839 127.489 259.797 115.286C257.266 118.146 254.459 120.76 251.386 123.125C250.042 128.651 241.636 163.297 240.297 168.812Z" fill="white"/>
</g>
</g>
</g>
<mask id="mask79_120_2513" style="mask-type:luminance" maskUnits="userSpaceOnUse" x="76" y="58" width="26" height="34">
<path d="M76.6665 58.333H102V91.6663H76.6665V58.333Z" fill="white"/>
</mask>
<g mask="url(#mask79_120_2513)">
<mask id="mask80_120_2513" style="mask-type:luminance" maskUnits="userSpaceOnUse" x="43" y="40" width="64" height="60">
<path d="M51.6092 40.7656L106.932 49.4583L99.0207 99.8385L43.6978 91.151L51.6092 40.7656Z" fill="white"/>
</mask>
<g mask="url(#mask80_120_2513)">
<mask id="mask81_120_2513" style="mask-type:luminance" maskUnits="userSpaceOnUse" x="43" y="40" width="64" height="60">
<path d="M51.6092 40.7656L106.932 49.4583L99.0207 99.8385L43.6978 91.151L51.6092 40.7656Z" fill="white"/>
</mask>
<g mask="url(#mask81_120_2513)">
<path d="M100.849 85.2863L95.3698 59.9894C95.2656 59.5206 94.8021 59.2238 94.3333 59.3227L77.6823 62.9321C77.2135 63.0363 76.9166 63.4946 77.0156 63.9634C77.1198 64.4321 77.5833 64.729 78.0521 64.6248L93.8594 61.1977L98.9739 84.8123L80.1458 88.8904C79.6771 88.9894 79.3802 89.4529 79.4791 89.9165C79.5573 90.2759 79.8489 90.5415 80.1927 90.5936C80.2968 90.6092 80.4062 90.6092 80.5104 90.5831L100.182 86.3175C100.411 86.2706 100.604 86.1352 100.734 85.9425C100.854 85.7446 100.901 85.5154 100.849 85.2863Z" fill="white"/>
</g>
</g>
</g>
<mask id="mask82_120_2513" style="mask-type:luminance" maskUnits="userSpaceOnUse" x="79" y="65" width="17" height="22">
<path d="M79.3335 65H95.3335V86.3333H79.3335V65Z" fill="white"/>
</mask>
<g mask="url(#mask82_120_2513)">
<mask id="mask83_120_2513" style="mask-type:luminance" maskUnits="userSpaceOnUse" x="43" y="40" width="64" height="60">
<path d="M51.6097 40.7656L106.933 49.4583L99.0212 99.8385L43.6982 91.151L51.6097 40.7656Z" fill="white"/>
</mask>
<g mask="url(#mask83_120_2513)">
<mask id="mask84_120_2513" style="mask-type:luminance" maskUnits="userSpaceOnUse" x="43" y="40" width="64" height="60">
<path d="M51.6097 40.7656L106.933 49.4583L99.0212 99.8385L43.6982 91.151L51.6097 40.7656Z" fill="white"/>
</mask>
<g mask="url(#mask84_120_2513)">
<path d="M94.615 79.6924C95.0838 79.5883 95.3807 79.1247 95.2817 78.656L93.0421 68.3278C92.99 68.1039 92.8546 67.906 92.6567 67.781C92.4692 67.656 92.2348 67.6143 92.0109 67.6612C90.6411 67.9528 89.2921 67.0883 89.0005 65.7289C88.8963 65.2549 88.4328 64.9633 87.964 65.0622L81.6098 66.4424C81.1411 66.5414 80.8442 66.9997 80.9484 67.4685C81.0525 67.9372 81.5109 68.2341 81.9796 68.1351L87.5734 66.9216C88.2609 68.4685 89.8182 69.4737 91.5109 69.4528L93.4171 78.2653C92.6671 78.5987 92.0213 79.1455 91.563 79.8591C91.1098 80.5674 90.8755 81.3747 90.8859 82.2028L80.8546 84.3747C80.3859 84.4789 80.089 84.9372 80.188 85.406C80.2661 85.7653 80.5578 86.0258 80.9015 86.0778C81.0057 86.0935 81.115 86.0935 81.2192 86.0674L92.0161 83.7289C92.2348 83.682 92.4328 83.5466 92.5578 83.3487C92.6828 83.1612 92.7244 82.9268 92.6775 82.7028C92.3807 81.333 93.2505 79.9893 94.615 79.6924Z" fill="white"/>
</g>
</g>
</g>
<mask id="mask85_120_2513" style="mask-type:luminance" maskUnits="userSpaceOnUse" x="71" y="45" width="19" height="18">
<path d="M71.3335 45H90.0002V62.3333H71.3335V45Z" fill="white"/>
</mask>
<g mask="url(#mask85_120_2513)">
<mask id="mask86_120_2513" style="mask-type:luminance" maskUnits="userSpaceOnUse" x="43" y="40" width="64" height="60">
<path d="M51.6097 40.7656L106.933 49.4583L99.0212 99.8385L43.6982 91.151L51.6097 40.7656Z" fill="white"/>
</mask>
<g mask="url(#mask86_120_2513)">
<mask id="mask87_120_2513" style="mask-type:luminance" maskUnits="userSpaceOnUse" x="43" y="40" width="64" height="60">
<path d="M51.6097 40.7656L106.933 49.4583L99.0212 99.8385L43.6982 91.151L51.6097 40.7656Z" fill="white"/>
</mask>
<g mask="url(#mask87_120_2513)">
<path d="M75.141 61.2607C75.266 61.3597 75.4067 61.4222 75.5629 61.443C75.8494 61.4899 76.1619 61.3857 76.365 61.1409C76.6671 60.7711 76.615 60.2243 76.2452 59.9222C74.3129 58.3336 73.3546 55.8128 73.74 53.3493C74.3494 49.4899 77.9796 46.844 81.8338 47.4482C85.6931 48.0576 88.3338 51.6826 87.7296 55.542C87.6046 56.3336 87.3546 57.0836 86.9848 57.7816C86.7556 58.2034 86.9171 58.7243 87.339 58.9534C87.766 59.1774 88.2869 59.0211 88.516 58.5941C88.9744 57.7295 89.2869 56.792 89.4431 55.8128C90.1983 51.0107 86.9067 46.4899 82.0994 45.7347C77.3025 44.9795 72.7817 48.2763 72.0317 53.0784C71.5473 56.1461 72.74 59.2816 75.141 61.2607Z" fill="white"/>
</g>
</g>
</g>
<mask id="mask88_120_2513" style="mask-type:luminance" maskUnits="userSpaceOnUse" x="76" y="47" width="9" height="14">
<path d="M76.6665 47.667H84.6665V61.0003H76.6665V47.667Z" fill="white"/>
</mask>
<g mask="url(#mask88_120_2513)">
<mask id="mask89_120_2513" style="mask-type:luminance" maskUnits="userSpaceOnUse" x="43" y="40" width="64" height="60">
<path d="M51.6092 40.7656L106.932 49.4583L99.0207 99.8385L43.6978 91.151L51.6092 40.7656Z" fill="white"/>
</mask>
<g mask="url(#mask89_120_2513)">
<mask id="mask90_120_2513" style="mask-type:luminance" maskUnits="userSpaceOnUse" x="43" y="40" width="64" height="60">
<path d="M51.6092 40.7656L106.932 49.4583L99.0207 99.8385L43.6978 91.151L51.6092 40.7656Z" fill="white"/>
</mask>
<g mask="url(#mask90_120_2513)">
<path d="M80.1819 51.9481L81.8069 52.2033C82.2184 52.271 82.4996 52.6564 82.4319 53.0731C82.359 53.5418 82.6819 53.9898 83.1559 54.0627C83.6298 54.1356 84.0725 53.8127 84.1455 53.3387C84.359 51.995 83.4475 50.7398 82.1194 50.5054L82.2809 49.4689C82.359 48.995 82.0309 48.5523 81.5621 48.4741C81.0882 48.4012 80.6455 48.7241 80.5673 49.1981L80.4059 50.2398C79.0673 50.0523 77.8173 50.9689 77.609 52.3127C77.3955 53.6668 78.3225 54.9429 79.6767 55.1564L81.3017 55.4116C81.7132 55.4741 81.9944 55.8648 81.9319 56.2762C81.8642 56.6877 81.4788 56.9689 81.0673 56.9012L79.4423 56.646C79.0361 56.5835 78.7496 56.1981 78.8173 55.7866C78.8902 55.3127 78.5673 54.87 78.0934 54.7919C77.6194 54.7189 77.1767 55.0418 77.1038 55.5158C76.8902 56.8596 77.8017 58.1148 79.1298 58.3491L78.9684 59.3856C78.8955 59.8596 79.2184 60.3075 79.6923 60.3804C80.1611 60.4533 80.609 60.1304 80.6819 59.6564L80.8434 58.62C82.1819 58.8023 83.4319 57.8856 83.6455 56.5419C83.859 55.1877 82.9267 53.9116 81.5725 53.6981L79.9475 53.4429C79.5361 53.3804 79.2548 52.9898 79.3225 52.5835C79.385 52.1668 79.7705 51.8856 80.1819 51.9481Z" fill="white"/>
</g>
</g>
</g>
<mask id="mask91_120_2513" style="mask-type:luminance" maskUnits="userSpaceOnUse" x="46" y="70" width="35" height="27">
<path d="M46 70.333H80.6667V96.9997H46V70.333Z" fill="white"/>
</mask>
<g mask="url(#mask91_120_2513)">
<mask id="mask92_120_2513" style="mask-type:luminance" maskUnits="userSpaceOnUse" x="43" y="40" width="64" height="60">
<path d="M51.6092 40.7656L106.932 49.4583L99.0207 99.8385L43.6978 91.151L51.6092 40.7656Z" fill="white"/>
</mask>
<g mask="url(#mask92_120_2513)">
<mask id="mask93_120_2513" style="mask-type:luminance" maskUnits="userSpaceOnUse" x="43" y="40" width="64" height="60">
<path d="M51.6092 40.7656L106.932 49.4583L99.0207 99.8385L43.6978 91.151L51.6092 40.7656Z" fill="white"/>
</mask>
<g mask="url(#mask93_120_2513)">
<path d="M79.2079 75.0731C78.7288 75.0002 78.2913 75.3231 78.2184 75.7971L75.3329 94.1356L48.9579 89.995L51.8382 71.6512C51.9163 71.1825 51.5934 70.7346 51.1194 70.6616C50.6454 70.5887 50.2027 70.9116 50.1246 71.3856L47.1142 90.5835C47.0361 91.0523 47.359 91.5002 47.8329 91.5731L75.9215 95.9846C76.3902 96.0575 76.8382 95.7346 76.9163 95.2606L79.9267 76.0627C80.0048 75.5939 79.6767 75.146 79.2079 75.0731Z" fill="white"/>
</g>
</g>
</g>
<mask id="mask94_120_2513" style="mask-type:luminance" maskUnits="userSpaceOnUse" x="47" y="59" width="38" height="16">
<path d="M47.3335 59.667H84.6668V74.3337H47.3335V59.667Z" fill="white"/>
</mask>
<g mask="url(#mask94_120_2513)">
<mask id="mask95_120_2513" style="mask-type:luminance" maskUnits="userSpaceOnUse" x="43" y="40" width="64" height="60">
<path d="M51.6097 40.7656L106.933 49.4583L99.0212 99.8385L43.6982 91.151L51.6097 40.7656Z" fill="white"/>
</mask>
<g mask="url(#mask95_120_2513)">
<mask id="mask96_120_2513" style="mask-type:luminance" maskUnits="userSpaceOnUse" x="43" y="40" width="64" height="60">
<path d="M51.6097 40.7656L106.933 49.4583L99.0212 99.8385L43.6982 91.151L51.6097 40.7656Z" fill="white"/>
</mask>
<g mask="url(#mask96_120_2513)">
<path d="M50.5262 67.2555L66.8856 61.917L80.8179 72.0107L50.5262 67.2555ZM83.5574 73.141C83.797 72.5576 83.6095 71.891 83.0991 71.5264L67.5418 60.2555C67.3179 60.0889 67.0314 60.0472 66.7658 60.1305L48.5054 66.0889C47.9012 66.2868 47.521 66.8597 47.5679 67.4899C47.6199 68.1201 48.0887 68.6253 48.7137 68.7243L82.0939 73.9691C82.7189 74.068 83.3179 73.7243 83.5574 73.141Z" fill="white"/>
</g>
</g>
</g>
<mask id="mask97_120_2513" style="mask-type:luminance" maskUnits="userSpaceOnUse" x="63" y="62" width="7" height="7">
<path d="M63.3335 62.333H70.0002V68.9997H63.3335V62.333Z" fill="white"/>
</mask>
<g mask="url(#mask97_120_2513)">
<mask id="mask98_120_2513" style="mask-type:luminance" maskUnits="userSpaceOnUse" x="43" y="40" width="64" height="60">
<path d="M51.6097 40.7656L106.933 49.4583L99.0212 99.8385L43.6982 91.151L51.6097 40.7656Z" fill="white"/>
</mask>
<g mask="url(#mask98_120_2513)">
<mask id="mask99_120_2513" style="mask-type:luminance" maskUnits="userSpaceOnUse" x="43" y="40" width="64" height="60">
<path d="M51.6097 40.7656L106.933 49.4583L99.0212 99.8385L43.6982 91.151L51.6097 40.7656Z" fill="white"/>
</mask>
<g mask="url(#mask99_120_2513)">
<path d="M67.2189 66.3539C67.1304 66.9111 66.6096 67.2914 66.0523 67.208C65.495 67.1195 65.1148 66.5986 65.2033 66.0414C65.2866 65.4841 65.8127 65.1039 66.37 65.1872C66.9273 65.2757 67.3075 65.8018 67.2189 66.3539ZM63.4898 65.7705C63.2554 67.2705 64.2866 68.682 65.7814 68.9216C67.2814 69.1559 68.6981 68.1247 68.9325 66.6247C69.1668 65.1247 68.1356 63.7132 66.6356 63.4736C65.1408 63.2393 63.7241 64.2705 63.4898 65.7705Z" fill="white"/>
</g>
</g>
</g>
<mask id="mask100_120_2513" style="mask-type:luminance" maskUnits="userSpaceOnUse" x="51" y="70" width="10" height="21">
<path d="M51.3335 70.333H60.6668V90.333H51.3335V70.333Z" fill="white"/>
</mask>
<g mask="url(#mask100_120_2513)">
<mask id="mask101_120_2513" style="mask-type:luminance" maskUnits="userSpaceOnUse" x="43" y="40" width="64" height="60">
<path d="M51.6097 40.7656L106.933 49.4583L99.0212 99.8385L43.6982 91.151L51.6097 40.7656Z" fill="white"/>
</mask>
<g mask="url(#mask101_120_2513)">
<mask id="mask102_120_2513" style="mask-type:luminance" maskUnits="userSpaceOnUse" x="43" y="40" width="64" height="60">
<path d="M51.6097 40.7656L106.933 49.4583L99.0212 99.8385L43.6982 91.151L51.6097 40.7656Z" fill="white"/>
</mask>
<g mask="url(#mask102_120_2513)">
<path d="M57.9533 74.9892L56.1356 86.5777C56.0106 87.3642 55.2658 87.9059 54.4793 87.7861C53.6877 87.6611 53.1512 86.9163 53.2762 86.1246L55.0939 74.5413C55.2189 73.7496 55.9585 73.208 56.745 73.333C57.5366 73.458 58.0783 74.2027 57.9533 74.9892ZM53.3804 74.2705L51.5627 85.859C51.2866 87.5934 52.4793 89.2236 54.2085 89.4944C55.9429 89.7705 57.5731 88.583 57.8491 86.8434L59.6668 75.26C59.9377 73.5257 58.7502 71.8902 57.0158 71.6194C55.2866 71.3486 53.6512 72.5413 53.3804 74.2705Z" fill="white"/>
</g>
</g>
</g>
<mask id="mask103_120_2513" style="mask-type:luminance" maskUnits="userSpaceOnUse" x="59" y="71" width="10" height="21">
<path d="M59.3335 71.667H68.6668V91.667H59.3335V71.667Z" fill="white"/>
</mask>
<g mask="url(#mask103_120_2513)">
<mask id="mask104_120_2513" style="mask-type:luminance" maskUnits="userSpaceOnUse" x="43" y="40" width="64" height="60">
<path d="M51.6097 40.7656L106.933 49.4583L99.0212 99.8385L43.6982 91.151L51.6097 40.7656Z" fill="white"/>
</mask>
<g mask="url(#mask104_120_2513)">
<mask id="mask105_120_2513" style="mask-type:luminance" maskUnits="userSpaceOnUse" x="43" y="40" width="64" height="60">
<path d="M51.6097 40.7656L106.933 49.4583L99.0212 99.8385L43.6982 91.151L51.6097 40.7656Z" fill="white"/>
</mask>
<g mask="url(#mask105_120_2513)">
<path d="M66.1308 76.2756L64.3131 87.8589C64.1881 88.6506 63.4433 89.1923 62.662 89.0673C61.8704 88.9423 61.3287 88.2027 61.4537 87.411L63.2714 75.8277C63.3964 75.036 64.1412 74.4943 64.9276 74.6193C65.7141 74.7391 66.2558 75.4839 66.1308 76.2756ZM61.5579 75.5568L59.7401 87.1402C59.4693 88.8798 60.6568 90.51 62.3912 90.7808C64.1204 91.0516 65.7558 89.8641 66.0266 88.1298L67.8443 76.5412C68.1151 74.812 66.9276 73.1766 65.1985 72.9058C63.4641 72.6298 61.8287 73.8277 61.5579 75.5568Z" fill="white"/>
</g>
</g>
</g>
<mask id="mask106_120_2513" style="mask-type:luminance" maskUnits="userSpaceOnUse" x="67" y="73" width="10" height="20">
<path d="M67.3335 73H76.6668V93H67.3335V73Z" fill="white"/>
</mask>
<g mask="url(#mask106_120_2513)">
<mask id="mask107_120_2513" style="mask-type:luminance" maskUnits="userSpaceOnUse" x="43" y="40" width="64" height="60">
<path d="M51.6097 40.7656L106.933 49.4583L99.0212 99.8385L43.6982 91.151L51.6097 40.7656Z" fill="white"/>
</mask>
<g mask="url(#mask107_120_2513)">
<mask id="mask108_120_2513" style="mask-type:luminance" maskUnits="userSpaceOnUse" x="43" y="40" width="64" height="60">
<path d="M51.6097 40.7656L106.933 49.4583L99.0212 99.8385L43.6982 91.151L51.6097 40.7656Z" fill="white"/>
</mask>
<g mask="url(#mask108_120_2513)">
<path d="M74.3075 77.5576L72.4898 89.1461C72.3648 89.9378 71.6252 90.4794 70.8388 90.3544C70.0471 90.2294 69.5054 89.4846 69.6304 88.6982L71.4482 77.1096C71.5732 76.318 72.3179 75.7815 73.1096 75.9013C73.8961 76.0263 74.4325 76.7711 74.3075 77.5576ZM69.7346 76.8388L67.9169 88.4274C67.6461 90.1617 68.8336 91.7919 70.5679 92.068C72.2971 92.3388 73.9325 91.1513 74.2034 89.4169L76.0211 77.8284C76.2971 76.0992 75.1096 74.4638 73.3752 74.1878C71.6409 73.9169 70.0107 75.1096 69.7346 76.8388Z" fill="white"/>
</g>
</g>
</g>
<mask id="mask109_120_2513" style="mask-type:luminance" maskUnits="userSpaceOnUse" x="73" y="21" width="21" height="19">
<path d="M73.5884 21H93.9998V39.6667H73.5884V21Z" fill="white"/>
</mask>
<g mask="url(#mask109_120_2513)">
<path d="M90.7759 26.0417C90.7759 26.0156 90.7915 25.9896 90.7915 25.9583V23.5833C90.7915 22.0677 85.4061 21.8438 82.1873 21.8438C78.9738 21.8438 73.5884 22.0677 73.5884 23.5833V25.9635C73.5884 26.6458 74.6873 27.0625 76.1873 27.3177C76.1821 27.349 76.1665 27.3698 76.1665 27.401V29.776C76.1665 30.0417 76.3384 30.2656 76.63 30.4583C75.8384 30.7135 75.3332 31.0521 75.3332 31.5156V33.8906C75.3332 34.2656 75.6665 34.5625 76.2082 34.7917C76.0103 34.9635 75.8853 35.151 75.8853 35.3698V37.7448C75.8853 39.2604 81.2759 39.4844 84.4894 39.4844C87.703 39.4844 93.0936 39.2604 93.0936 37.7448V35.3698C93.0936 34.9948 92.7603 34.6979 92.2186 34.4635C92.4165 34.2969 92.5363 34.1094 92.5363 33.8906V31.5156C92.5363 31.25 92.3644 31.026 92.0728 30.8333C92.8644 30.5833 93.3696 30.2396 93.3696 29.776V27.401C93.3696 26.7188 92.2707 26.2969 90.7759 26.0417ZM82.1873 22.9479C85.88 22.9479 88.2498 23.2969 89.2498 23.5833C88.2498 23.875 85.88 24.2188 82.1873 24.2188C78.4998 24.2188 76.13 23.875 75.13 23.5833C76.13 23.2917 78.4998 22.9479 82.1873 22.9479ZM82.1873 27.7031C84.4425 27.7031 87.755 27.5885 89.5415 27C90.5936 27.1198 91.3644 27.2656 91.8332 27.401C90.8332 27.6927 88.4634 28.0365 84.7707 28.0365C81.8488 28.0365 79.7655 27.8177 78.5259 27.5833C79.8019 27.6771 81.1144 27.7031 82.1873 27.7031ZM91.5519 35.3698C90.5519 35.6615 88.1821 36.0052 84.4894 36.0052C80.8019 36.0052 78.4321 35.6615 77.4269 35.3698C77.5623 35.3333 77.7238 35.2917 77.9113 35.25C79.7394 35.5677 82.1665 35.6354 83.9373 35.6354C85.8905 35.6354 88.6509 35.5521 90.5155 35.1406C90.9478 35.2187 91.2967 35.2969 91.5519 35.3698ZM90.9998 31.5156C89.9998 31.8073 87.63 32.151 83.9373 32.151C80.2446 32.151 77.8748 31.8073 76.8748 31.5156C77.2967 31.3958 77.9686 31.2656 78.8696 31.1562C80.6769 31.4531 83.0363 31.5208 84.7655 31.5208C86.2446 31.5208 88.1769 31.4687 89.8384 31.2708C90.328 31.3542 90.7186 31.4375 90.9998 31.5156Z" fill="white"/>
</g>
<mask id="mask110_120_2513" style="mask-type:luminance" maskUnits="userSpaceOnUse" x="94" y="25" width="21" height="15">
<path d="M94 25H114.589V39.6667H94V25Z" fill="white"/>
</mask>
<g mask="url(#mask110_120_2513)">
<path d="M112.583 30.3278C112.771 30.1663 112.875 29.984 112.875 29.7757V27.4007C112.875 25.8851 107.49 25.6611 104.276 25.6611C101.063 25.6611 95.6719 25.8851 95.6719 27.4007V29.7757C95.6719 30.3278 96.3854 30.708 97.4375 30.9632C97.2552 31.1299 97.1458 31.3122 97.1458 31.5205V33.8955C97.1458 33.9424 97.1667 33.9841 97.1771 34.0257C95.7344 34.2861 94.6875 34.7028 94.6875 35.3695V37.7445C94.6875 39.2601 100.078 39.4893 103.292 39.4893C106.505 39.4893 111.896 39.2601 111.896 37.7445V35.3695C111.896 35.3226 111.875 35.2809 111.865 35.2393C113.307 34.9788 114.354 34.5622 114.354 33.8955V31.5153C114.354 30.9684 113.641 30.5934 112.583 30.3278ZM104.276 26.7653C107.964 26.7653 110.333 27.109 111.339 27.4007C110.333 27.6924 107.969 28.0361 104.276 28.0361C100.583 28.0361 98.2187 27.6924 97.2135 27.4007C98.2187 27.109 100.583 26.7653 104.276 26.7653ZM103.292 36.0049C99.6042 36.0049 97.2344 35.6611 96.2292 35.3695C96.6927 35.234 97.4635 35.0882 98.5 34.9684C100.312 35.5309 103.542 35.6351 105.75 35.6351C106.958 35.6351 108.479 35.6038 109.901 35.484C108.724 35.7445 106.51 36.0049 103.292 36.0049ZM105.75 32.1507C102.062 32.1507 99.6875 31.807 98.6875 31.5153C98.9167 31.4528 99.224 31.3799 99.5938 31.3122C101.161 31.4788 102.911 31.5205 104.276 31.5205C106.094 31.5205 108.604 31.4476 110.448 31.109C111.536 31.2288 112.333 31.3799 112.812 31.5153C111.807 31.807 109.443 32.1507 105.75 32.1507Z" fill="white"/>
</g>
<mask id="mask111_120_2513" style="mask-type:luminance" maskUnits="userSpaceOnUse" x="211" y="22" width="6" height="15">
<path d="M211.333 22.333H216.667V36.4111H211.333V22.333Z" fill="white"/>
</mask>
<g mask="url(#mask111_120_2513)">
<path d="M212.885 23.2344H214.344C214.63 23.2344 214.875 23.3333 215.078 23.5365C215.281 23.7396 215.385 23.9896 215.385 24.276V35.4479C215.385 35.7344 215.281 35.9792 215.078 36.1823C214.875 36.3854 214.63 36.4896 214.344 36.4896H212.885C212.599 36.4896 212.349 36.3854 212.146 36.1823C211.943 35.9792 211.844 35.7344 211.844 35.4479V24.276C211.844 23.9896 211.943 23.7396 212.146 23.5365C212.349 23.3333 212.599 23.2344 212.885 23.2344Z" fill="white"/>
</g>
<path d="M219.177 30.5885V32.0469C219.177 32.3385 219.078 32.5833 218.875 32.7865C218.672 32.9896 218.427 33.0938 218.135 33.0938H209.229C208.943 33.0938 208.698 32.9896 208.495 32.7865C208.292 32.5833 208.188 32.3385 208.188 32.0469V30.5885C208.188 30.3021 208.292 30.0573 208.495 29.8542C208.698 29.651 208.943 29.5469 209.229 29.5469H218.135C218.427 29.5469 218.672 29.651 218.875 29.8542C219.078 30.0573 219.177 30.3021 219.177 30.5885Z" fill="white"/>
<path d="M9.11523 362.686V364.853H0.0527344V353.145H8.88607V355.311H2.74023V357.853H8.17773V359.978H2.74023V362.686H9.11523Z" fill="white"/>
<path d="M24.5936 364.853L24.5728 357.832L21.1353 363.624H19.9061L16.4894 357.978V364.853H13.9478V353.145H16.1769L20.5728 360.415L24.8853 353.145H27.1144L27.1353 364.853H24.5936Z" fill="white"/>
<path d="M37.6533 353.145C38.695 353.145 39.596 353.322 40.3617 353.665C41.1221 354.014 41.7054 354.509 42.1117 355.145C42.5283 355.77 42.7367 356.52 42.7367 357.395C42.7367 358.259 42.5283 359.009 42.1117 359.645C41.7054 360.285 41.1221 360.78 40.3617 361.124C39.596 361.457 38.695 361.624 37.6533 361.624H35.2992V364.853H32.5908V353.145H37.6533ZM37.5075 359.415C38.3096 359.415 38.9242 359.243 39.3408 358.895C39.7679 358.535 39.9867 358.035 39.9867 357.395C39.9867 356.728 39.7679 356.223 39.3408 355.874C38.9242 355.53 38.3096 355.353 37.5075 355.353H35.2992V359.415H37.5075Z" fill="white"/>
<path d="M53.172 365.062C51.9481 365.062 50.8491 364.801 49.8804 364.27C48.9064 363.744 48.1408 363.02 47.5887 362.103C47.0314 361.187 46.7554 360.155 46.7554 358.999C46.7554 357.848 47.0314 356.812 47.5887 355.895C48.1408 354.978 48.9064 354.259 49.8804 353.728C50.8491 353.202 51.9481 352.937 53.172 352.937C54.3804 352.937 55.4689 353.202 56.4429 353.728C57.4116 354.259 58.1772 354.978 58.7345 355.895C59.2866 356.812 59.5679 357.848 59.5679 358.999C59.5679 360.155 59.2866 361.187 58.7345 362.103C58.1772 363.02 57.4116 363.744 56.4429 364.27C55.4689 364.801 54.3804 365.062 53.172 365.062ZM53.172 362.749C53.8647 362.749 54.4897 362.593 55.047 362.27C55.5991 361.952 56.0366 361.509 56.3595 360.937C56.6772 360.369 56.8387 359.723 56.8387 358.999C56.8387 358.28 56.6772 357.634 56.3595 357.062C56.0366 356.494 55.5991 356.051 55.047 355.728C54.4897 355.41 53.8647 355.249 53.172 355.249C52.4741 355.249 51.8491 355.41 51.297 355.728C50.7397 356.051 50.3022 356.494 49.9845 357.062C49.6616 357.634 49.5054 358.28 49.5054 358.999C49.5054 359.723 49.6616 360.369 49.9845 360.937C50.3022 361.509 50.7397 361.952 51.297 362.27C51.8491 362.593 52.4741 362.749 53.172 362.749Z" fill="white"/>
<path d="M64.293 353.145H69.6055C70.8815 353.145 72.0065 353.389 72.9805 353.874C73.9492 354.363 74.7096 355.051 75.2513 355.936C75.793 356.811 76.0638 357.832 76.0638 358.999C76.0638 360.165 75.793 361.197 75.2513 362.082C74.7096 362.957 73.9492 363.639 72.9805 364.124C72.0065 364.613 70.8815 364.853 69.6055 364.853H64.293V353.145ZM69.4805 362.624C70.6471 362.624 71.5742 362.301 72.2721 361.645C72.9648 360.993 73.3138 360.113 73.3138 358.999C73.3138 357.889 72.9648 357.009 72.2721 356.353C71.5742 355.702 70.6471 355.374 69.4805 355.374H67.0013V362.624H69.4805Z" fill="white"/>
<path d="M89.8418 362.686V364.853H80.7793V353.145H89.6126V355.311H83.4668V357.853H88.9043V359.978H83.4668V362.686H89.8418Z" fill="white"/>
<path d="M102.132 364.853L99.8613 361.582H97.3822V364.853H94.6738V353.145H99.7363C100.778 353.145 101.679 353.322 102.445 353.665C103.205 354.014 103.788 354.509 104.195 355.145C104.611 355.77 104.82 356.52 104.82 357.395C104.82 358.259 104.611 359.009 104.195 359.645C103.778 360.27 103.179 360.749 102.403 361.082L105.049 364.853H102.132ZM102.07 357.395C102.07 356.728 101.851 356.223 101.424 355.874C101.007 355.53 100.393 355.353 99.5905 355.353H97.3822V359.436H99.5905C100.393 359.436 101.007 359.259 101.424 358.895C101.851 358.535 102.07 358.035 102.07 357.395Z" fill="white"/>
<path d="M117.347 362.353H111.91L110.868 364.853H108.097L113.306 353.145H115.993L121.222 364.853H118.389L117.347 362.353ZM116.493 360.29L114.639 355.811L112.785 360.29H116.493Z" fill="white"/>
<path d="M130.726 365.062C129.528 365.062 128.445 364.806 127.476 364.291C126.518 363.765 125.757 363.041 125.205 362.124C124.648 361.197 124.372 360.155 124.372 358.999C124.372 357.832 124.648 356.791 125.205 355.874C125.757 354.957 126.518 354.244 127.476 353.728C128.445 353.202 129.528 352.937 130.726 352.937C131.752 352.937 132.674 353.119 133.497 353.478C134.315 353.843 135.002 354.353 135.56 355.02L133.81 356.624C133.018 355.707 132.039 355.249 130.872 355.249C130.148 355.249 129.502 355.41 128.935 355.728C128.362 356.051 127.919 356.494 127.601 357.062C127.278 357.634 127.122 358.28 127.122 358.999C127.122 359.723 127.278 360.369 127.601 360.937C127.919 361.509 128.362 361.952 128.935 362.27C129.502 362.593 130.148 362.749 130.872 362.749C132.039 362.749 133.018 362.285 133.81 361.353L135.56 362.957C135.002 363.64 134.31 364.16 133.476 364.52C132.653 364.879 131.737 365.062 130.726 365.062Z" fill="white"/>
<path d="M140.054 353.145H142.762V364.853H140.054V353.145Z" fill="white"/>
<path d="M153.881 365.062C152.657 365.062 151.558 364.801 150.589 364.27C149.615 363.744 148.849 363.02 148.297 362.104C147.74 361.187 147.464 360.156 147.464 358.999C147.464 357.848 147.74 356.812 148.297 355.895C148.849 354.979 149.615 354.26 150.589 353.729C151.558 353.202 152.657 352.937 153.881 352.937C155.089 352.937 156.177 353.202 157.151 353.729C158.12 354.26 158.886 354.979 159.443 355.895C159.995 356.812 160.276 357.848 160.276 358.999C160.276 360.156 159.995 361.187 159.443 362.104C158.886 363.02 158.12 363.744 157.151 364.27C156.177 364.801 155.089 365.062 153.881 365.062ZM153.881 362.749C154.573 362.749 155.198 362.593 155.756 362.27C156.308 361.952 156.745 361.51 157.068 360.937C157.386 360.369 157.547 359.723 157.547 358.999C157.547 358.281 157.386 357.635 157.068 357.062C156.745 356.494 156.308 356.051 155.756 355.729C155.198 355.411 154.573 355.249 153.881 355.249C153.183 355.249 152.558 355.411 152.006 355.729C151.448 356.051 151.011 356.494 150.693 357.062C150.37 357.635 150.214 358.281 150.214 358.999C150.214 359.723 150.37 360.369 150.693 360.937C151.011 361.51 151.448 361.952 152.006 362.27C152.558 362.593 153.183 362.749 153.881 362.749ZM154.61 349.791H157.422L154.401 352.187H152.36L154.61 349.791Z" fill="white"/>
<path d="M175.731 353.145V364.853H173.501L167.668 357.749V364.853H165.001V353.145H167.231L173.064 360.249V353.145H175.731Z" fill="white"/>
<path d="M191.303 355.311V358.415H196.72V360.582H191.303V364.853H188.595V353.145H197.428V355.311H191.303Z" fill="white"/>
<path d="M201.955 353.145H204.663V364.853H201.955V353.145Z" fill="white"/>
<path d="M220.844 353.145V364.853H218.615L212.781 357.749V364.853H210.115V353.145H212.344L218.177 360.249V353.145H220.844Z" fill="white"/>
<path d="M234.009 362.353H228.571L227.53 364.853H224.759L229.967 353.145H232.655L237.884 364.853H235.05L234.009 362.353ZM233.155 360.29L231.3 355.811L229.446 360.29H233.155Z" fill="white"/>
<path d="M252.513 353.145V364.853H250.284L244.45 357.749V364.853H241.784V353.145H244.013L249.846 360.249V353.145H252.513Z" fill="white"/>
<path d="M263.573 365.062C262.375 365.062 261.292 364.806 260.323 364.291C259.365 363.765 258.604 363.041 258.052 362.124C257.495 361.197 257.219 360.155 257.219 358.999C257.219 357.832 257.495 356.791 258.052 355.874C258.604 354.957 259.365 354.244 260.323 353.728C261.292 353.202 262.375 352.937 263.573 352.937C264.599 352.937 265.521 353.119 266.344 353.478C267.161 353.843 267.849 354.353 268.406 355.02L266.656 356.624C265.865 355.707 264.885 355.249 263.719 355.249C262.995 355.249 262.349 355.41 261.781 355.728C261.208 356.051 260.766 356.494 260.448 357.062C260.125 357.634 259.969 358.28 259.969 358.999C259.969 359.723 260.125 360.369 260.448 360.937C260.766 361.509 261.208 361.952 261.781 362.27C262.349 362.593 262.995 362.749 263.719 362.749C264.885 362.749 265.865 362.285 266.656 361.353L268.406 362.957C267.849 363.64 267.156 364.16 266.323 364.52C265.5 364.879 264.583 365.062 263.573 365.062Z" fill="white"/>
<path d="M272.9 353.145H275.609V364.853H272.9V353.145Z" fill="white"/>
<path d="M290.124 362.686V364.853H281.061V353.145H289.894V355.311H283.749V357.853H289.186V359.978H283.749V362.686H290.124Z" fill="white"/>
<path d="M302.414 364.853L300.143 361.582H297.664V364.853H294.956V353.145H300.018C301.06 353.145 301.961 353.322 302.726 353.665C303.487 354.014 304.07 354.509 304.476 355.145C304.893 355.77 305.101 356.52 305.101 357.395C305.101 358.259 304.893 359.009 304.476 359.645C304.06 360.27 303.461 360.749 302.685 361.082L305.331 364.853H302.414ZM302.351 357.395C302.351 356.728 302.133 356.223 301.706 355.874C301.289 355.53 300.674 355.353 299.872 355.353H297.664V359.436H299.872C300.674 359.436 301.289 359.259 301.706 358.895C302.133 358.535 302.351 358.035 302.351 357.395Z" fill="white"/>
<path d="M317.629 362.353H312.191L311.15 364.853H308.379L313.587 353.145H316.275L321.504 364.853H318.671L317.629 362.353ZM316.775 360.29L314.921 355.811L313.066 360.29H316.775Z" fill="white"/>
<path d="M106.089 317.85V323.329H115.693V327.184H106.089V334.746H101.276V313.996H116.964V317.85H106.089Z" fill="white"/>
<path d="M138.192 334.746L134.192 328.975H129.775V334.746H124.962V313.996H133.942C135.785 313.996 137.384 314.303 138.733 314.913C140.093 315.527 141.134 316.392 141.858 317.517C142.593 318.642 142.962 319.975 142.962 321.517C142.962 323.059 142.587 324.392 141.837 325.517C141.098 326.632 140.051 327.486 138.692 328.079L143.337 334.746H138.192ZM138.108 321.517C138.108 320.35 137.723 319.465 136.962 318.85C136.212 318.225 135.113 317.913 133.671 317.913H129.775V325.142H133.671C135.113 325.142 136.212 324.829 136.962 324.204C137.723 323.569 138.108 322.673 138.108 321.517Z" fill="white"/>
<path d="M167.556 330.892V334.746H151.494V313.996H167.181V317.85H156.264V322.35H165.91V326.079H156.264V330.892H167.556Z" fill="white"/>
<path d="M186.086 327.392V334.746H181.295V327.329L173.253 313.996H178.357L183.899 323.204L189.44 313.996H194.149L186.086 327.392Z" fill="white"/>
<path d="M214.577 330.309H204.952L203.098 334.746H198.182L207.432 313.996H212.182L221.452 334.746H216.411L214.577 330.309ZM213.077 326.663L209.786 318.704L206.494 326.663H213.077Z" fill="white"/>
</svg>
