<svg width="201" height="36" viewBox="0 0 201 36" fill="none" xmlns="http://www.w3.org/2000/svg">
<path d="M8.46899 6.5325V15.812H25.407V22.3445H8.46899V35.175H0V0H27.6375V6.5325H8.46899Z" fill="white"/>
<path d="M61.8885 35.175L55.3074 25.3595H48.0779V35.175H40.2V0H54.9183C57.9414 0 60.5593 0.527626 62.7638 1.5745C64.9845 2.60463 66.6947 4.07863 67.8861 5.9965C69.0937 7.89762 69.7016 10.1505 69.7016 12.7635C69.7016 15.3765 69.0937 17.6377 67.8861 19.5305C66.6704 21.4065 64.944 22.847 62.699 23.852L70.35 35.175H61.8885ZM61.7264 12.7635C61.7264 10.7786 61.1104 9.26275 59.8785 8.2075C58.6466 7.16062 56.8473 6.633 54.4969 6.633H48.0779V18.894H54.4969C56.8473 18.894 58.6466 18.358 59.8785 17.286C61.1104 16.214 61.7264 14.7065 61.7264 12.7635Z" fill="white"/>
<path d="M110.55 28.6425V35.175H85.4249V0H109.932V6.5325H92.8728V14.1705H107.954V20.502H92.8728V28.6425H110.55Z" fill="white"/>
<path d="M142.21 22.713V35.175H134.131V22.6125L120.6 0H129.178L138.52 15.611L147.829 0H155.775L142.21 22.713Z" fill="white"/>
<path d="M189.867 27.6375H174.286L171.311 35.175H163.312L178.317 0H185.995L201 35.175H192.842L189.867 27.6375ZM187.435 21.44L182.092 7.973L176.781 21.44H187.435Z" fill="white"/>
</svg>
