<svg width="358" height="58" viewBox="0 0 358 58" fill="none" xmlns="http://www.w3.org/2000/svg">
<path d="M10.2871 54.6624V57.0791H0.224609V44.0791H10.0579V46.4958H3.22461V49.3083H9.26628V51.6624H3.22461V54.6624H10.2871Z" fill="white"/>
<path d="M27.5008 57.0791L27.48 49.2666L23.6675 55.7041H22.2925L18.5008 49.4333V57.0791H15.6675V44.0791H18.1675L23.0216 52.1624L27.8133 44.0791H30.2925L30.3341 57.0791H27.5008Z" fill="white"/>
<path d="M42.0122 44.0791C43.1632 44.0791 44.1632 44.277 45.0122 44.6624C45.856 45.0374 46.5122 45.5791 46.9705 46.2874C47.4289 46.9958 47.658 47.8291 47.658 48.7874C47.658 49.7458 47.4289 50.5791 46.9705 51.2874C46.5122 51.9958 45.856 52.5479 45.0122 52.9333C44.1632 53.3083 43.1632 53.4958 42.0122 53.4958H39.408V57.0791H36.3872V44.0791H42.0122ZM41.8455 51.0374C42.7466 51.0374 43.4341 50.8447 43.908 50.4541C44.3768 50.0687 44.6164 49.5114 44.6164 48.7874C44.6164 48.0687 44.3768 47.5114 43.908 47.1208C43.4341 46.7197 42.7466 46.5166 41.8455 46.5166H39.408V51.0374H41.8455Z" fill="white"/>
<path d="M59.2555 57.3089C57.9066 57.3089 56.693 57.0173 55.6097 56.4339C54.5264 55.8506 53.6774 55.0537 53.068 54.0381C52.4535 53.012 52.1514 51.861 52.1514 50.5798C52.1514 49.3037 52.4535 48.1579 53.068 47.1423C53.6774 46.1162 54.5264 45.3089 55.6097 44.7256C56.693 44.1423 57.9066 43.8506 59.2555 43.8506C60.6149 43.8506 61.8285 44.1423 62.9014 44.7256C63.9847 45.3089 64.8285 46.1162 65.443 47.1423C66.068 48.1579 66.3805 49.3037 66.3805 50.5798C66.3805 51.861 66.068 53.012 65.443 54.0381C64.8285 55.0537 63.9847 55.8506 62.9014 56.4339C61.8285 57.0173 60.6149 57.3089 59.2555 57.3089ZM59.2555 54.7464C60.0316 54.7464 60.7243 54.5745 61.3389 54.2256C61.9639 53.8662 62.4482 53.3714 62.7972 52.7464C63.1566 52.111 63.3389 51.387 63.3389 50.5798C63.3389 49.7777 63.1566 49.0589 62.7972 48.4339C62.4482 47.7985 61.9639 47.3037 61.3389 46.9548C60.7243 46.5954 60.0316 46.4131 59.2555 46.4131C58.4899 46.4131 57.7972 46.5954 57.1722 46.9548C56.5576 47.3037 56.0732 47.7985 55.7139 48.4339C55.3649 49.0589 55.193 49.7777 55.193 50.5798C55.193 51.387 55.3649 52.111 55.7139 52.7464C56.0732 53.3714 56.5576 53.8662 57.1722 54.2256C57.7972 54.5745 58.4899 54.7464 59.2555 54.7464Z" fill="white"/>
<path d="M71.6211 44.0791H77.5378C78.9388 44.0791 80.1836 44.3499 81.2669 44.8916C82.3503 45.4229 83.1888 46.1781 83.7878 47.1624C84.3971 48.1364 84.7044 49.277 84.7044 50.5791C84.7044 51.8708 84.3971 53.0114 83.7878 53.9958C83.1888 54.9697 82.3503 55.7249 81.2669 56.2666C80.1836 56.8083 78.9388 57.0791 77.5378 57.0791H71.6211V44.0791ZM77.3919 54.5999C78.6836 54.5999 79.7148 54.2406 80.4961 53.5166C81.2721 52.7979 81.6628 51.8187 81.6628 50.5791C81.6628 49.3447 81.2721 48.3656 80.4961 47.6416C79.7148 46.9072 78.6836 46.5374 77.3919 46.5374H74.6419V54.5999H77.3919Z" fill="white"/>
<path d="M100.006 54.6624V57.0791H89.9438V44.0791H99.7772V46.4958H92.9438V49.3083H98.9855V51.6624H92.9438V54.6624H100.006Z" fill="white"/>
<path d="M113.678 57.0791L111.158 53.4541H108.408V57.0791H105.387V44.0791H111.012C112.163 44.0791 113.163 44.277 114.012 44.6624C114.855 45.0374 115.512 45.5791 115.97 46.2874C116.428 46.9958 116.658 47.8291 116.658 48.7874C116.658 49.7614 116.428 50.5999 115.97 51.3083C115.512 52.0062 114.85 52.5322 113.991 52.8916L116.908 57.0791H113.678ZM113.616 48.7874C113.616 48.0687 113.376 47.5114 112.908 47.1208C112.434 46.7197 111.746 46.5166 110.845 46.5166H108.408V51.0583H110.845C111.746 51.0583 112.434 50.8656 112.908 50.4749C113.376 50.0739 113.616 49.5114 113.616 48.7874Z" fill="white"/>
<path d="M130.581 54.2874H124.54L123.394 57.0791H120.311L126.102 44.0791H129.081L134.894 57.0791H131.748L130.581 54.2874ZM129.644 51.9958L127.581 47.0166L125.519 51.9958H129.644Z" fill="white"/>
<path d="M145.456 57.3089C144.123 57.3089 142.92 57.0277 141.852 56.4548C140.779 55.8714 139.941 55.0745 139.331 54.0589C138.717 53.0329 138.415 51.8714 138.415 50.5798C138.415 49.2881 138.717 48.137 139.331 47.1214C139.941 46.0954 140.779 45.2985 141.852 44.7256C142.92 44.1423 144.128 43.8506 145.477 43.8506C146.602 43.8506 147.612 44.0537 148.519 44.4548C149.435 44.8454 150.206 45.4131 150.831 46.1631L148.894 47.9339C148.019 46.9235 146.925 46.4131 145.623 46.4131C144.816 46.4131 144.092 46.5954 143.456 46.9548C142.831 47.3037 142.336 47.7985 141.977 48.4339C141.628 49.0589 141.456 49.7777 141.456 50.5798C141.456 51.387 141.628 52.111 141.977 52.7464C142.336 53.3714 142.831 53.8662 143.456 54.2256C144.092 54.5745 144.816 54.7464 145.623 54.7464C146.925 54.7464 148.019 54.236 148.894 53.2048L150.831 54.9756C150.206 55.7412 149.435 56.3245 148.519 56.7256C147.602 57.111 146.581 57.3089 145.456 57.3089Z" fill="white"/>
<path d="M155.822 44.0791H158.843V57.0791H155.822V44.0791Z" fill="white"/>
<path d="M171.183 57.3083C169.834 57.3083 168.62 57.0166 167.537 56.4333C166.454 55.8499 165.605 55.0531 164.995 54.0374C164.381 53.0114 164.079 51.8604 164.079 50.5791C164.079 49.3031 164.381 48.1572 164.995 47.1416C165.605 46.1156 166.454 45.3083 167.537 44.7249C168.62 44.1416 169.834 43.8499 171.183 43.8499C172.542 43.8499 173.756 44.1416 174.829 44.7249C175.912 45.3083 176.756 46.1156 177.37 47.1416C177.995 48.1572 178.308 49.3031 178.308 50.5791C178.308 51.8604 177.995 53.0114 177.37 54.0374C176.756 55.0531 175.912 55.8499 174.829 56.4333C173.756 57.0166 172.542 57.3083 171.183 57.3083ZM171.183 54.7458C171.959 54.7458 172.652 54.5739 173.266 54.2249C173.891 53.8656 174.375 53.3708 174.724 52.7458C175.084 52.1104 175.266 51.3864 175.266 50.5791C175.266 49.777 175.084 49.0583 174.724 48.4333C174.375 47.7979 173.891 47.3031 173.266 46.9541C172.652 46.5947 171.959 46.4124 171.183 46.4124C170.417 46.4124 169.724 46.5947 169.099 46.9541C168.485 47.3031 168 47.7979 167.641 48.4333C167.292 49.0583 167.12 49.777 167.12 50.5791C167.12 51.3864 167.292 52.1104 167.641 52.7458C168 53.3708 168.485 53.8656 169.099 54.2249C169.724 54.5739 170.417 54.7458 171.183 54.7458ZM172.016 40.3291H175.141L171.766 43.0166H169.495L172.016 40.3291Z" fill="white"/>
<path d="M195.486 44.0791V57.0791H193.007L186.528 49.1833V57.0791H183.549V44.0791H186.049L192.507 51.9749V44.0791H195.486Z" fill="white"/>
<path d="M212.791 46.4958V49.9333H218.812V52.3499H212.791V57.0791H209.771V44.0791H219.604V46.4958H212.791Z" fill="white"/>
<path d="M224.619 44.0791H227.639V57.0791H224.619V44.0791Z" fill="white"/>
<path d="M245.625 44.0791V57.0791H243.146L236.667 49.1833V57.0791H233.688V44.0791H236.188L242.646 51.9749V44.0791H245.625Z" fill="white"/>
<path d="M260.239 54.2874H254.197L253.052 57.0791H249.968L255.76 44.0791H258.739L264.552 57.0791H261.406L260.239 54.2874ZM259.302 51.9958L257.239 47.0166L255.177 51.9958H259.302Z" fill="white"/>
<path d="M280.822 44.0791V57.0791H278.343L271.864 49.1833V57.0791H268.885V44.0791H271.385L277.843 51.9749V44.0791H280.822Z" fill="white"/>
<path d="M293.102 57.3089C291.769 57.3089 290.566 57.0277 289.498 56.4548C288.425 55.8714 287.587 55.0745 286.977 54.0589C286.363 53.0329 286.061 51.8714 286.061 50.5798C286.061 49.2881 286.363 48.137 286.977 47.1214C287.587 46.0954 288.425 45.2985 289.498 44.7256C290.566 44.1423 291.774 43.8506 293.123 43.8506C294.248 43.8506 295.258 44.0537 296.165 44.4548C297.081 44.8454 297.852 45.4131 298.477 46.1631L296.54 47.9339C295.665 46.9235 294.571 46.4131 293.269 46.4131C292.462 46.4131 291.738 46.5954 291.102 46.9548C290.477 47.3037 289.982 47.7985 289.623 48.4339C289.274 49.0589 289.102 49.7777 289.102 50.5798C289.102 51.387 289.274 52.111 289.623 52.7464C289.982 53.3714 290.477 53.8662 291.102 54.2256C291.738 54.5745 292.462 54.7464 293.269 54.7464C294.571 54.7464 295.665 54.236 296.54 53.2048L298.477 54.9756C297.852 55.7412 297.081 56.3245 296.165 56.7256C295.248 57.111 294.227 57.3089 293.102 57.3089Z" fill="white"/>
<path d="M303.468 44.0791H306.489V57.0791H303.468V44.0791Z" fill="white"/>
<path d="M322.6 54.6624V57.0791H312.538V44.0791H322.371V46.4958H315.538V49.3083H321.579V51.6624H315.538V54.6624H322.6Z" fill="white"/>
<path d="M336.272 57.0791L333.751 53.4541H331.001V57.0791H327.98V44.0791H333.605C334.757 44.0791 335.757 44.277 336.605 44.6624C337.449 45.0374 338.105 45.5791 338.564 46.2874C339.022 46.9958 339.251 47.8291 339.251 48.7874C339.251 49.7614 339.022 50.5999 338.564 51.3083C338.105 52.0062 337.444 52.5322 336.585 52.8916L339.501 57.0791H336.272ZM336.21 48.7874C336.21 48.0687 335.97 47.5114 335.501 47.1208C335.027 46.7197 334.34 46.5166 333.439 46.5166H331.001V51.0583H333.439C334.34 51.0583 335.027 50.8656 335.501 50.4749C335.97 50.0739 336.21 49.5114 336.21 48.7874Z" fill="white"/>
<path d="M353.175 54.2874H347.133L345.988 57.0791H342.904L348.696 44.0791H351.675L357.488 57.0791H354.342L353.175 54.2874ZM352.238 51.9958L350.175 47.0166L348.113 51.9958H352.238Z" fill="white"/>
<path d="M118.086 4.8265V10.9307H128.752V15.2223H118.086V23.6182H112.731V0.555664H130.169V4.8265H118.086Z" fill="white"/>
<path d="M153.764 23.6182L149.306 17.2015H144.41V23.6182H139.056V0.555664H149.056C151.098 0.555664 152.869 0.899415 154.369 1.5765C155.879 2.25879 157.041 3.22233 157.848 4.47233C158.666 5.72233 159.077 7.2015 159.077 8.90983C159.077 10.6338 158.66 12.1182 157.827 13.3682C157.004 14.6077 155.837 15.5505 154.327 16.2015L159.494 23.6182H153.764ZM153.66 8.90983C153.66 7.61816 153.244 6.62858 152.41 5.93066C151.577 5.23796 150.353 4.889 148.744 4.889H144.41V12.9307H148.744C150.353 12.9307 151.577 12.5869 152.41 11.889C153.244 11.1807 153.66 10.1911 153.66 8.90983Z" fill="white"/>
<path d="M186.418 19.3265V23.6182H168.543V0.555664H185.98V4.8265H173.855V9.84733H184.564V13.9932H173.855V19.3265H186.418Z" fill="white"/>
<path d="M207.005 15.4515V23.6182H201.672V15.3682L192.734 0.555664H198.401L204.568 10.8057L210.734 0.555664H215.964L207.005 15.4515Z" fill="white"/>
<path d="M238.674 18.6807H227.944L225.903 23.6182H220.444L230.715 0.555664H235.986L246.319 23.6182H240.715L238.674 18.6807ZM236.986 14.6182L233.319 5.78483L229.674 14.6182H236.986Z" fill="white"/>
</svg>
