<svg width="245" height="266" viewBox="0 0 245 266" fill="none" xmlns="http://www.w3.org/2000/svg">
<mask id="mask0_120_4052" style="mask-type:luminance" maskUnits="userSpaceOnUse" x="134" y="178" width="92" height="80">
<path d="M134 178.667H226V257.334H134V178.667Z" fill="white"/>
</mask>
<g mask="url(#mask0_120_4052)">
<mask id="mask1_120_4052" style="mask-type:luminance" maskUnits="userSpaceOnUse" x="124" y="153" width="151" height="156">
<path d="M176.5 153.016L274.734 199.87L223.151 308.021L124.917 261.167L176.5 153.016Z" fill="white"/>
</mask>
<g mask="url(#mask1_120_4052)">
<mask id="mask2_120_4052" style="mask-type:luminance" maskUnits="userSpaceOnUse" x="124" y="153" width="151" height="156">
<path d="M176.5 153.016L274.734 199.87L223.151 308.021L124.917 261.167L176.5 153.016Z" fill="white"/>
</mask>
<g mask="url(#mask2_120_4052)">
<path d="M225.359 248.729L219.437 179.703C219.437 179.703 212.505 180.542 204.307 183.089L204.901 190C207.114 189.896 209.448 189.948 211.896 190.208L217.005 240.224C217.005 240.224 160.297 233.698 134.104 256.922C134.104 256.922 166.838 237.276 225.359 248.729Z" fill="white"/>
</g>
</g>
</g>
<mask id="mask3_120_4052" style="mask-type:luminance" maskUnits="userSpaceOnUse" x="131" y="194" width="114" height="72">
<path d="M131.333 194.667H244.667V265.334H131.333V194.667Z" fill="white"/>
</mask>
<g mask="url(#mask3_120_4052)">
<mask id="mask4_120_4052" style="mask-type:luminance" maskUnits="userSpaceOnUse" x="124" y="153" width="151" height="156">
<path d="M176.5 153.016L274.735 199.87L223.151 308.021L124.917 261.167L176.5 153.016Z" fill="white"/>
</mask>
<g mask="url(#mask4_120_4052)">
<mask id="mask5_120_4052" style="mask-type:luminance" maskUnits="userSpaceOnUse" x="124" y="153" width="151" height="156">
<path d="M176.5 153.016L274.735 199.87L223.151 308.021L124.917 261.167L176.5 153.016Z" fill="white"/>
</mask>
<g mask="url(#mask5_120_4052)">
<path d="M237.906 195.604C237.906 195.604 230.974 196.438 222.776 198.99L223.37 205.896C225.583 205.792 227.917 205.844 230.37 206.104L235.469 256.12C235.469 256.12 168.287 241.011 131.349 264.193C131.349 264.193 172.073 249.927 243.828 264.631L237.906 195.604Z" fill="white"/>
</g>
</g>
</g>
<mask id="mask6_120_4052" style="mask-type:luminance" maskUnits="userSpaceOnUse" x="136" y="164" width="72" height="86">
<path d="M136.667 164H207.333V249.333H136.667V164Z" fill="white"/>
</mask>
<g mask="url(#mask6_120_4052)">
<mask id="mask7_120_4052" style="mask-type:luminance" maskUnits="userSpaceOnUse" x="124" y="153" width="151" height="156">
<path d="M176.5 153.016L274.734 199.87L223.151 308.021L124.917 261.167L176.5 153.016Z" fill="white"/>
</mask>
<g mask="url(#mask7_120_4052)">
<mask id="mask8_120_4052" style="mask-type:luminance" maskUnits="userSpaceOnUse" x="124" y="153" width="151" height="156">
<path d="M176.5 153.016L274.734 199.87L223.151 308.021L124.917 261.167L176.5 153.016Z" fill="white"/>
</mask>
<g mask="url(#mask8_120_4052)">
<path d="M137.349 248.354C137.349 248.354 165.416 226.036 206.984 233.76L201.062 164.734C201.062 164.734 169.812 168.484 161.526 184.495C161.526 184.495 173.843 173.13 193.526 175.24L198.63 225.255C198.63 225.255 158.427 223.839 137.349 248.354Z" fill="white"/>
</g>
</g>
</g>
<mask id="mask9_120_4052" style="mask-type:luminance" maskUnits="userSpaceOnUse" x="19" y="178" width="93" height="80">
<path d="M19.3335 178.667H111.333V257.334H19.3335V178.667Z" fill="white"/>
</mask>
<g mask="url(#mask9_120_4052)">
<mask id="mask10_120_4052" style="mask-type:luminance" maskUnits="userSpaceOnUse" x="-30" y="153" width="151" height="155">
<path d="M-29.4219 199.516L69.0208 153.089L120.13 261.464L21.6927 307.891L-29.4219 199.516Z" fill="white"/>
</mask>
<g mask="url(#mask10_120_4052)">
<mask id="mask11_120_4052" style="mask-type:luminance" maskUnits="userSpaceOnUse" x="-30" y="153" width="151" height="155">
<path d="M69.1771 153.016L-29.2656 199.443L21.8438 307.818L120.286 261.391L69.1771 153.016Z" fill="white"/>
</mask>
<g mask="url(#mask11_120_4052)">
<path d="M19.8281 248.667L26.0625 179.558C26.0625 179.558 33 180.422 41.1979 183.016L40.5729 189.933C38.3594 189.818 36.0208 189.86 33.5625 190.11L28.2344 240.183C28.2344 240.183 85.0573 233.891 111.188 257.266C111.188 257.266 78.4896 237.448 19.8281 248.667Z" fill="white"/>
</g>
</g>
</g>
<mask id="mask12_120_4052" style="mask-type:luminance" maskUnits="userSpaceOnUse" x="0" y="194" width="114" height="72">
<path d="M0.666504 194.667H114V265.334H0.666504V194.667Z" fill="white"/>
</mask>
<g mask="url(#mask12_120_4052)">
<mask id="mask13_120_4052" style="mask-type:luminance" maskUnits="userSpaceOnUse" x="-30" y="153" width="151" height="155">
<path d="M-29.4219 199.516L69.0208 153.089L120.13 261.464L21.6927 307.891L-29.4219 199.516Z" fill="white"/>
</mask>
<g mask="url(#mask13_120_4052)">
<mask id="mask14_120_4052" style="mask-type:luminance" maskUnits="userSpaceOnUse" x="-30" y="153" width="151" height="155">
<path d="M69.1771 153.016L-29.2656 199.443L21.8438 307.818L120.286 261.391L69.1771 153.016Z" fill="white"/>
</mask>
<g mask="url(#mask14_120_4052)">
<path d="M7.49463 195.401C7.49463 195.401 14.4321 196.266 22.63 198.854L22.005 205.776C19.7915 205.657 17.453 205.698 14.9998 205.953L9.6665 256.026C9.6665 256.026 77.0207 241.183 113.917 264.558C113.917 264.558 73.1926 250.094 1.26025 264.506L7.49463 195.401Z" fill="white"/>
</g>
</g>
</g>
<mask id="mask15_120_4052" style="mask-type:luminance" maskUnits="userSpaceOnUse" x="38" y="164" width="71" height="86">
<path d="M38 164H108.667V249.333H38V164Z" fill="white"/>
</mask>
<g mask="url(#mask15_120_4052)">
<mask id="mask16_120_4052" style="mask-type:luminance" maskUnits="userSpaceOnUse" x="-30" y="153" width="151" height="155">
<path d="M-29.4219 199.516L69.0208 153.089L120.13 261.464L21.6927 307.891L-29.4219 199.516Z" fill="white"/>
</mask>
<g mask="url(#mask16_120_4052)">
<mask id="mask17_120_4052" style="mask-type:luminance" maskUnits="userSpaceOnUse" x="-30" y="153" width="151" height="155">
<path d="M69.1771 153.016L-29.2656 199.443L21.8438 307.818L120.286 261.391L69.1771 153.016Z" fill="white"/>
</mask>
<g mask="url(#mask17_120_4052)">
<path d="M107.979 248.672C107.979 248.672 79.9635 226.198 38.2969 233.75L44.526 164.646C44.526 164.646 75.8125 168.536 84.0417 184.604C84.0417 184.604 71.7552 173.172 52.0312 175.198L46.7031 225.271C46.7031 225.271 86.974 224.026 107.979 248.672Z" fill="white"/>
</g>
</g>
</g>
<mask id="mask18_120_4052" style="mask-type:luminance" maskUnits="userSpaceOnUse" x="55" y="80" width="48" height="43">
<path d="M55.6353 80.5576H102.562V122.495H55.6353V80.5576Z" fill="white"/>
</mask>
<g mask="url(#mask18_120_4052)">
<path d="M57.9062 103.209C56.5937 104.167 55.6354 106.193 56.3385 108.115C56.8489 109.428 58.0104 110.386 59.1718 110.641C59.677 110.74 59.8802 110.641 61.4479 110.641C62.4583 110.641 63.3177 110.641 63.875 110.693C65.2916 112.766 66.401 114.485 67.1614 115.646C68.677 117.969 69.1822 118.829 70.3958 119.943C71.6093 121.058 73.125 122.423 74.8437 122.167C76.3645 121.917 77.375 120.6 77.8281 119.844C78.4843 118.73 78.8385 117.464 79.2447 116.204C81.7708 107.303 84.302 98.4069 86.8281 89.5059C88.8489 89.5579 90.875 89.61 92.8437 89.6569C94.4635 89.709 96.0833 89.7611 97.6458 89.4069C99.2135 89.0527 100.734 88.2402 101.641 86.9277C102.552 85.6152 102.703 83.6934 101.745 82.4277C100.531 80.86 98.2552 80.709 96.2812 80.709C92.7968 80.709 89.2552 80.709 85.7656 80.709C83.9479 80.709 81.9218 80.8079 80.6614 82.0215C79.4947 83.1361 79.1927 84.5007 79.0416 85.3079C77.625 92.084 75.1979 98.5579 73.3281 105.178C73.0781 106.042 72.875 106.391 72.6718 107.407C72.5208 108.115 72.5208 108.365 72.3697 108.417C71.9635 108.516 71.4583 107.1 70.0416 105.178C69.1302 103.917 68.625 103.261 67.8177 102.855C67.2135 102.553 66.3541 102.501 64.5833 102.402C63.3177 102.35 62.7135 102.298 61.901 102.35C59.8802 102.501 58.8177 102.553 57.9062 103.209Z" fill="white"/>
</g>
<path d="M65.3384 103.661C64.479 103.562 63.6196 103.661 62.7603 103.713C61.9009 103.766 61.0415 103.812 60.1821 103.865C59.88 103.865 59.88 104.318 60.1821 104.318C61.0415 104.318 61.953 104.271 62.8123 104.271C63.6717 104.271 64.5832 104.271 65.3905 104.12C65.6457 104.016 65.5936 103.713 65.3384 103.661Z" fill="#A5A5A5"/>
<path d="M82.3282 99.0104C81.875 100.578 81.4688 102.198 81.1146 103.766C80.7605 105.281 80.2553 106.849 80.1042 108.464C80.0521 108.719 80.4584 108.719 80.5105 108.516C81.0625 107.052 81.3698 105.432 81.724 103.865C82.0782 102.297 82.4271 100.729 82.7813 99.1615C82.8855 98.8073 82.4271 98.7084 82.3282 99.0104Z" fill="#A5A5A5"/>
<path d="M79.6509 110.031C79.4478 110.739 79.2968 111.448 79.1457 112.208C79.0416 112.562 78.9895 112.916 78.9426 113.271C78.8905 113.625 78.7916 113.979 78.8384 114.38C78.8384 114.531 79.0936 114.635 79.1457 114.484C79.4478 113.823 79.5989 113.067 79.7499 112.411C79.9009 111.703 80.052 110.942 80.1561 110.234C80.203 109.88 79.7499 109.729 79.6509 110.031Z" fill="#A5A5A5"/>
<path d="M100.578 83.7915C100.531 83.5884 100.427 83.3384 100.276 83.1874C99.9738 82.7811 99.5675 82.3749 99.1144 82.1249C97.953 81.4686 96.5884 81.6717 95.3228 81.8228C94.9686 81.8697 94.9686 82.4269 95.3228 82.3749C96.4321 82.2238 97.5988 82.1249 98.7082 82.5311C99.6196 82.8853 100.125 83.5884 100.328 84.4999C100.38 84.604 100.531 84.604 100.578 84.4999C100.63 84.2499 100.682 84.0467 100.578 83.7915Z" fill="#A5A5A5"/>
<path d="M79.1926 90.7705C79.4478 90.1611 79.6978 89.5569 79.901 88.9475C80.0051 88.6455 79.5468 88.4944 79.4478 88.7965C79.2447 89.4059 78.9895 90.01 78.7916 90.6194C78.6874 90.9215 78.5885 91.2236 78.4843 91.4788C78.3853 91.7809 78.2812 92.135 78.1822 92.4371C78.1301 92.5882 78.3333 92.6923 78.4374 92.5413C78.5885 92.234 78.7395 91.9319 78.8906 91.6298C78.9895 91.3746 79.0937 91.0725 79.1926 90.7705Z" fill="#A5A5A5"/>
<path fill-rule="evenodd" clip-rule="evenodd" d="M132.161 141.292C132.01 141.292 131.854 141.266 131.703 141.209C131.042 140.953 130.708 140.209 130.958 139.547C131.036 139.349 130.995 139.078 130.911 138.584C130.838 138.157 130.75 137.625 130.75 136.985C130.75 131.141 133.437 128.224 136.047 125.407C138.646 122.594 141.099 119.938 141.099 114.104C141.099 104.662 133.422 96.9847 123.984 96.9847C114.542 96.9847 106.864 104.662 106.864 114.104C106.864 119.938 109.318 122.594 111.922 125.407C114.526 128.224 117.219 131.136 117.219 136.985C117.219 137.625 117.125 138.157 117.052 138.584C116.969 139.078 116.927 139.349 117.005 139.547C117.26 140.209 116.927 140.953 116.26 141.209C115.599 141.464 114.854 141.131 114.599 140.464C114.271 139.604 114.401 138.834 114.515 138.151C114.583 137.766 114.646 137.407 114.646 136.985C114.646 132.146 112.505 129.834 110.031 127.157C107.338 124.245 104.292 120.948 104.292 114.104C104.292 103.25 113.125 94.417 123.984 94.417C134.838 94.417 143.672 103.25 143.672 114.104C143.672 120.948 140.625 124.25 137.932 127.162C135.458 129.839 133.323 132.151 133.323 136.985C133.323 137.412 133.38 137.771 133.448 138.151C133.562 138.834 133.693 139.604 133.364 140.469C133.167 140.979 132.677 141.292 132.161 141.292Z" fill="white"/>
<path fill-rule="evenodd" clip-rule="evenodd" d="M111.609 115.39C110.896 115.39 110.323 114.812 110.323 114.104C110.323 106.573 116.448 100.442 123.984 100.442C124.693 100.442 125.271 101.015 125.271 101.729C125.271 102.437 124.693 103.015 123.984 103.015C117.87 103.015 112.896 107.989 112.896 114.104C112.896 114.812 112.318 115.39 111.609 115.39Z" fill="white"/>
<mask id="mask19_120_4052" style="mask-type:luminance" maskUnits="userSpaceOnUse" x="116" y="149" width="16" height="11">
<path d="M116.667 149.333H131.333V159.156H116.667V149.333Z" fill="white"/>
</mask>
<g mask="url(#mask19_120_4052)">
<path fill-rule="evenodd" clip-rule="evenodd" d="M125.609 159.245H122.354C119.698 159.245 117.536 157.083 117.536 154.427V150.896C117.536 150.182 118.114 149.609 118.823 149.609C119.536 149.609 120.109 150.182 120.109 150.896V154.427C120.109 155.661 121.119 156.672 122.354 156.672H125.609C126.849 156.672 127.854 155.661 127.854 154.427V150.896C127.854 150.182 128.427 149.609 129.14 149.609C129.849 149.609 130.427 150.182 130.427 150.896V154.427C130.427 157.083 128.265 159.245 125.609 159.245Z" fill="white"/>
</g>
<path fill-rule="evenodd" clip-rule="evenodd" d="M131.25 146.656H116.713C114.479 146.656 112.667 144.844 112.667 142.609C112.667 140.38 114.479 138.562 116.713 138.562H131.25C133.484 138.562 135.297 140.38 135.297 142.609C135.297 144.844 133.484 146.656 131.25 146.656ZM116.713 141.135C115.901 141.135 115.239 141.797 115.239 142.609C115.239 143.422 115.901 144.083 116.713 144.083H131.25C132.062 144.083 132.724 143.422 132.724 142.609C132.724 141.797 132.062 141.135 131.25 141.135H116.713Z" fill="white"/>
<path fill-rule="evenodd" clip-rule="evenodd" d="M129.651 152.183H118.312C116.078 152.183 114.266 150.365 114.266 148.136C114.266 145.901 116.078 144.089 118.312 144.089C119.021 144.089 119.599 144.662 119.599 145.375C119.599 146.084 119.021 146.662 118.312 146.662C117.5 146.662 116.839 147.323 116.839 148.136C116.839 148.948 117.5 149.61 118.312 149.61H129.651C130.464 149.61 131.125 148.948 131.125 148.136C131.125 147.323 130.464 146.662 129.651 146.662C128.943 146.662 128.365 146.084 128.365 145.375C128.365 144.662 128.943 144.089 129.651 144.089C131.885 144.089 133.703 145.901 133.703 148.136C133.703 150.365 131.885 152.183 129.651 152.183Z" fill="white"/>
<mask id="mask20_120_4052" style="mask-type:luminance" maskUnits="userSpaceOnUse" x="122" y="84" width="4" height="8">
<path d="M122 84.2705H126V91.9997H122V84.2705Z" fill="white"/>
</mask>
<g mask="url(#mask20_120_4052)">
<path fill-rule="evenodd" clip-rule="evenodd" d="M123.985 91.8275C123.271 91.8275 122.693 91.2546 122.693 90.541V85.5775C122.693 84.8691 123.271 84.291 123.985 84.291C124.693 84.291 125.271 84.8691 125.271 85.5775V90.541C125.271 91.2546 124.693 91.8275 123.985 91.8275Z" fill="white"/>
</g>
<path fill-rule="evenodd" clip-rule="evenodd" d="M137.635 95.4895C137.417 95.4895 137.198 95.4322 136.995 95.3176C136.38 94.9583 136.167 94.1718 136.521 93.5572L139.005 89.2603C139.359 88.6458 140.146 88.4322 140.76 88.7864C141.375 89.1458 141.588 89.9322 141.234 90.5468L138.75 94.8437C138.51 95.2551 138.078 95.4895 137.635 95.4895Z" fill="white"/>
<path fill-rule="evenodd" clip-rule="evenodd" d="M147.63 105.484C147.188 105.484 146.755 105.25 146.516 104.838C146.162 104.224 146.375 103.437 146.99 103.083L151.287 100.599C151.901 100.245 152.688 100.458 153.042 101.073C153.401 101.687 153.188 102.474 152.573 102.828L148.276 105.312C148.073 105.427 147.849 105.484 147.63 105.484Z" fill="white"/>
<mask id="mask21_120_4052" style="mask-type:luminance" maskUnits="userSpaceOnUse" x="150" y="116" width="8" height="4">
<path d="M150 116H157.323V120H150V116Z" fill="white"/>
</mask>
<g mask="url(#mask21_120_4052)">
<path fill-rule="evenodd" clip-rule="evenodd" d="M156.255 119.135H151.292C150.578 119.135 150.005 118.562 150.005 117.849C150.005 117.141 150.578 116.562 151.292 116.562H156.255C156.964 116.562 157.542 117.141 157.542 117.849C157.542 118.562 156.964 119.135 156.255 119.135Z" fill="white"/>
</g>
<path fill-rule="evenodd" clip-rule="evenodd" d="M151.927 135.276C151.709 135.276 151.49 135.218 151.287 135.104L146.99 132.619C146.375 132.265 146.162 131.474 146.516 130.859C146.875 130.244 147.657 130.036 148.276 130.39L152.573 132.875C153.188 133.229 153.401 134.015 153.047 134.63C152.808 135.041 152.375 135.276 151.927 135.276Z" fill="white"/>
<path fill-rule="evenodd" clip-rule="evenodd" d="M96.0365 135.276C95.5886 135.276 95.1563 135.041 94.9168 134.63C94.5626 134.015 94.7761 133.229 95.3907 132.875L99.6876 130.39C100.302 130.036 101.089 130.244 101.443 130.859C101.802 131.474 101.589 132.265 100.974 132.619L96.6772 135.104C96.4741 135.218 96.2501 135.276 96.0365 135.276Z" fill="white"/>
<mask id="mask22_120_4052" style="mask-type:luminance" maskUnits="userSpaceOnUse" x="90" y="116" width="8" height="4">
<path d="M90.4219 116H98V120H90.4219V116Z" fill="white"/>
</mask>
<g mask="url(#mask22_120_4052)">
<path fill-rule="evenodd" clip-rule="evenodd" d="M96.6719 119.135H91.7083C91 119.135 90.4219 118.562 90.4219 117.849C90.4219 117.141 91 116.562 91.7083 116.562H96.6719C97.3854 116.562 97.9583 117.141 97.9583 117.849C97.9583 118.562 97.3802 119.135 96.6719 119.135Z" fill="white"/>
</g>
<path fill-rule="evenodd" clip-rule="evenodd" d="M100.328 105.484C100.109 105.484 99.8907 105.427 99.6876 105.312L95.3907 102.828C94.7761 102.474 94.5626 101.687 94.9168 101.073C95.2761 100.458 96.0626 100.245 96.6772 100.599L100.974 103.083C101.589 103.437 101.802 104.224 101.448 104.838C101.208 105.255 100.776 105.484 100.328 105.484Z" fill="white"/>
<path fill-rule="evenodd" clip-rule="evenodd" d="M110.328 95.4895C109.885 95.4895 109.448 95.2551 109.213 94.8437L106.729 90.5468C106.375 89.9322 106.583 89.1458 107.198 88.7864C107.812 88.4322 108.604 88.6458 108.958 89.2603L111.443 93.5572C111.797 94.1718 111.583 94.9583 110.969 95.3176C110.771 95.4322 110.547 95.4895 110.328 95.4895Z" fill="white"/>
<path fill-rule="evenodd" clip-rule="evenodd" d="M126.594 141.136C125.885 141.136 125.307 140.563 125.307 139.849V128.214C125.307 127.875 125.443 127.547 125.688 127.308L129.609 123.381C129.865 123.131 130 122.797 130 122.443C130 122.089 129.865 121.756 129.609 121.506C129.359 121.25 129.031 121.115 128.672 121.115C128.318 121.115 127.984 121.25 127.734 121.506L124.891 124.349C124.651 124.589 124.323 124.724 123.984 124.724C123.641 124.724 123.312 124.589 123.073 124.349L120.229 121.506C119.714 120.985 118.87 120.985 118.354 121.506C118.104 121.756 117.964 122.089 117.964 122.443C117.964 122.797 118.104 123.131 118.354 123.381L122.281 127.308C122.521 127.547 122.656 127.875 122.656 128.214V139.849C122.656 140.563 122.078 141.136 121.37 141.136C120.656 141.136 120.083 140.563 120.083 139.849V128.745L116.536 125.198C115.797 124.464 115.391 123.485 115.391 122.443C115.391 121.401 115.797 120.422 116.536 119.683C118.057 118.162 120.531 118.162 122.047 119.683L123.984 121.615L125.917 119.683C126.651 118.948 127.63 118.542 128.672 118.542C129.714 118.542 130.693 118.948 131.432 119.683C132.167 120.422 132.573 121.401 132.573 122.443C132.573 123.485 132.167 124.464 131.432 125.198L127.88 128.745V139.849C127.88 140.558 127.307 141.136 126.594 141.136Z" fill="white"/>
<mask id="mask23_120_4052" style="mask-type:luminance" maskUnits="userSpaceOnUse" x="143" y="36" width="73" height="71">
<path d="M143.333 36H215.333V106.667H143.333V36Z" fill="white"/>
</mask>
<g mask="url(#mask23_120_4052)">
<mask id="mask24_120_4052" style="mask-type:luminance" maskUnits="userSpaceOnUse" x="134" y="26" width="90" height="90">
<path d="M134.568 49.5212L200.724 26.9639L223.276 93.1201L157.12 115.677L134.568 49.5212Z" fill="white"/>
</mask>
<g mask="url(#mask24_120_4052)">
<mask id="mask25_120_4052" style="mask-type:luminance" maskUnits="userSpaceOnUse" x="134" y="26" width="90" height="90">
<path d="M134.568 49.5212L200.724 26.9639L223.276 93.1201L157.12 115.677L134.568 49.5212Z" fill="white"/>
</mask>
<g mask="url(#mask25_120_4052)">
<path d="M167.844 38.1724C149.49 44.4328 139.656 64.4484 145.912 82.7974C152.167 101.146 172.182 110.985 190.537 104.73C208.88 98.4744 218.724 78.4536 212.469 60.1047C206.214 41.7557 186.193 31.9172 167.844 38.1724ZM189.526 101.771C172.807 107.469 154.568 98.5109 148.87 81.7869C143.167 65.0682 152.13 46.8338 168.854 41.1307C185.563 35.4328 203.807 44.3911 209.511 61.1151C215.209 77.8338 206.24 96.0734 189.526 101.771Z" fill="white"/>
</g>
</g>
</g>
<mask id="mask26_120_4052" style="mask-type:luminance" maskUnits="userSpaceOnUse" x="163" y="73" width="39" height="26">
<path d="M163.333 73.333H202V98.6663H163.333V73.333Z" fill="white"/>
</mask>
<g mask="url(#mask26_120_4052)">
<mask id="mask27_120_4052" style="mask-type:luminance" maskUnits="userSpaceOnUse" x="134" y="26" width="90" height="90">
<path d="M134.568 49.5202L200.724 26.9629L223.276 93.1191L157.12 115.676L134.568 49.5202Z" fill="white"/>
</mask>
<g mask="url(#mask27_120_4052)">
<mask id="mask28_120_4052" style="mask-type:luminance" maskUnits="userSpaceOnUse" x="134" y="26" width="90" height="90">
<path d="M134.568 49.5202L200.724 26.9629L223.276 93.1191L157.12 115.676L134.568 49.5202Z" fill="white"/>
</mask>
<g mask="url(#mask28_120_4052)">
<path d="M199.458 73.6188L164.458 85.5511C164.031 85.697 163.682 86.0303 163.516 86.4626C163.344 86.8897 163.37 87.3688 163.589 87.7699C168.313 96.5199 178.583 100.546 188.016 97.3324C197.432 94.1188 203.109 84.6605 201.505 74.8428C201.432 74.3897 201.156 73.999 200.76 73.7595C200.37 73.5251 199.896 73.4678 199.458 73.6188ZM187.005 94.374C184.208 95.3272 181.339 95.5199 178.604 95.0668C180.297 92.6918 182.682 90.8949 185.49 89.9365C188.297 88.9834 191.281 88.947 194.078 89.7907C192.188 91.822 189.792 93.4261 187.005 94.374ZM196.063 87.1657C192.344 85.7699 188.287 85.6813 184.484 86.9782C180.682 88.2751 177.516 90.822 175.422 94.2022C172.203 92.999 169.349 90.8428 167.318 87.8793L198.625 77.2022C198.818 80.7959 197.875 84.249 196.063 87.1657Z" fill="white"/>
</g>
</g>
</g>
<mask id="mask29_120_4052" style="mask-type:luminance" maskUnits="userSpaceOnUse" x="179" y="52" width="21" height="20">
<path d="M179.333 52H199.333V72H179.333V52Z" fill="white"/>
</mask>
<g mask="url(#mask29_120_4052)">
<mask id="mask30_120_4052" style="mask-type:luminance" maskUnits="userSpaceOnUse" x="134" y="26" width="90" height="90">
<path d="M134.568 49.5212L200.724 26.9639L223.276 93.1201L157.12 115.677L134.568 49.5212Z" fill="white"/>
</mask>
<g mask="url(#mask30_120_4052)">
<mask id="mask31_120_4052" style="mask-type:luminance" maskUnits="userSpaceOnUse" x="134" y="26" width="90" height="90">
<path d="M134.568 49.5212L200.724 26.9639L223.276 93.1201L157.12 115.677L134.568 49.5212Z" fill="white"/>
</mask>
<g mask="url(#mask31_120_4052)">
<path d="M198.328 55.8749C197.615 54.9166 196.438 54.4582 195.255 54.6822L192.407 55.2082L190.354 53.1666C189.505 52.3228 188.276 52.0312 187.146 52.4166C186.005 52.8072 185.209 53.7864 185.052 54.9739L184.677 57.8384L182.099 59.1666C181.032 59.7134 180.386 60.7916 180.396 61.9895C180.417 63.1874 181.104 64.2499 182.188 64.7655L184.797 66.0155L185.25 68.8697C185.443 70.052 186.271 71.0103 187.412 71.3645C188.058 71.5624 188.735 71.5468 189.344 71.3384C189.818 71.177 190.255 70.9062 190.615 70.5259L192.604 68.4218L195.464 68.8749C196.641 69.0572 197.808 68.5624 198.5 67.5832C199.188 66.6041 199.261 65.3436 198.688 64.2916L197.302 61.7499L198.615 59.1666C199.162 58.0937 199.047 56.8384 198.328 55.8749ZM194.516 60.3332C194.052 61.2499 194.068 62.3384 194.558 63.2395L195.948 65.7864L193.084 65.3332C192.068 65.177 191.037 65.5312 190.334 66.2707L188.339 68.3801L187.88 65.5155C187.719 64.5051 187.063 63.6301 186.136 63.1874L183.526 61.9478L186.104 60.6249C187.021 60.1562 187.641 59.2759 187.782 58.2447L188.146 55.3697L188.157 55.3749L190.203 57.4166C190.933 58.1509 191.974 58.4634 192.985 58.2759L195.834 57.7499L194.516 60.3332Z" fill="white"/>
</g>
</g>
</g>
<mask id="mask32_120_4052" style="mask-type:luminance" maskUnits="userSpaceOnUse" x="154" y="60" width="20" height="22">
<path d="M154 60H174V81.3333H154V60Z" fill="white"/>
</mask>
<g mask="url(#mask32_120_4052)">
<mask id="mask33_120_4052" style="mask-type:luminance" maskUnits="userSpaceOnUse" x="134" y="26" width="90" height="90">
<path d="M134.568 49.5212L200.724 26.9639L223.276 93.1201L157.12 115.677L134.568 49.5212Z" fill="white"/>
</mask>
<g mask="url(#mask33_120_4052)">
<mask id="mask34_120_4052" style="mask-type:luminance" maskUnits="userSpaceOnUse" x="134" y="26" width="90" height="90">
<path d="M134.568 49.5212L200.724 26.9639L223.276 93.1201L157.12 115.677L134.568 49.5212Z" fill="white"/>
</mask>
<g mask="url(#mask34_120_4052)">
<path d="M161.532 80.1875C162.177 80.3854 162.849 80.375 163.464 80.1615C163.938 80 164.37 79.7292 164.729 79.3542L166.719 77.2448L169.584 77.6979C170.761 77.8802 171.927 77.3906 172.615 76.4063C173.308 75.4271 173.38 74.1667 172.808 73.1146L171.422 70.5729L172.735 67.9896C173.276 66.9219 173.162 65.6615 172.448 64.7031C171.729 63.7396 170.552 63.2865 169.375 63.5052L166.521 64.0313L164.474 61.9896C163.625 61.1458 162.396 60.8594 161.266 61.2448C160.125 61.6302 159.328 62.6146 159.172 63.7969L158.797 66.6667L156.219 67.9896C155.146 68.5365 154.5 69.6146 154.516 70.8177C154.537 72.0156 155.219 73.0781 156.297 73.5938L158.917 74.8385L159.37 77.6979C159.558 78.8802 160.386 79.8333 161.532 80.1875ZM160.214 69.4479C161.136 68.9792 161.761 68.099 161.896 67.0781L162.261 64.1979L164.323 66.2448C165.052 66.974 166.084 67.2917 167.099 67.1042L169.948 66.5781L168.636 69.1563C168.172 70.0729 168.188 71.1667 168.677 72.0625L170.063 74.6094L167.203 74.1563C166.688 74.0833 166.183 74.125 165.709 74.2865C165.24 74.4479 164.802 74.7292 164.453 75.099L162.453 77.2031L161.995 74.3385C161.834 73.3281 161.183 72.4531 160.255 72.0104L157.646 70.7708L160.214 69.4479Z" fill="white"/>
</g>
</g>
</g>
<mask id="mask35_120_4052" style="mask-type:luminance" maskUnits="userSpaceOnUse" x="118" y="46" width="27" height="34">
<path d="M118 46.667H144.667V80.0003H118V46.667Z" fill="white"/>
</mask>
<g mask="url(#mask35_120_4052)">
<mask id="mask36_120_4052" style="mask-type:luminance" maskUnits="userSpaceOnUse" x="116" y="46" width="30" height="36">
<path d="M125.297 46.8965L145.359 52.9954L136.641 81.6569L116.578 75.5579L125.297 46.8965Z" fill="white"/>
</mask>
<g mask="url(#mask36_120_4052)">
<mask id="mask37_120_4052" style="mask-type:luminance" maskUnits="userSpaceOnUse" x="116" y="46" width="30" height="36">
<path d="M125.297 46.8965L145.359 52.9954L136.641 81.6569L116.578 75.5579L125.297 46.8965Z" fill="white"/>
</mask>
<g mask="url(#mask37_120_4052)">
<path d="M127.359 47.5215L144.229 52.6569L142.588 58.0632L130.609 54.4225L129.151 57.9173L132.474 58.9277C137.948 60.5944 141.041 66.3861 139.375 71.8652C137.708 77.3444 131.916 80.4329 126.437 78.7663C120.963 77.0996 117.87 71.3079 119.536 65.834L124.948 67.4746C124.193 69.9694 125.594 72.5996 128.083 73.3548C130.573 74.1152 133.208 72.709 133.963 70.2194C134.724 67.7298 133.318 65.0996 130.828 64.3392L121.526 61.5111L127.359 47.5215Z" fill="white"/>
</g>
</g>
</g>
<mask id="mask38_120_4052" style="mask-type:luminance" maskUnits="userSpaceOnUse" x="114" y="198" width="17" height="24">
<path d="M114.677 198.011H130.656V221.974H114.677V198.011Z" fill="white"/>
</mask>
<g mask="url(#mask38_120_4052)">
<path fill-rule="evenodd" clip-rule="evenodd" d="M116.146 204.61C116.146 200.964 119.099 198.011 122.745 198.011C126.391 198.011 129.344 200.964 129.344 204.61C129.344 205.761 129.047 206.844 128.531 207.787C129.943 209.24 130.813 211.224 130.813 213.407C130.813 217.865 127.198 221.474 122.745 221.474C118.292 221.474 114.677 217.865 114.677 213.407C114.677 211.224 115.547 209.24 116.958 207.787C116.443 206.844 116.146 205.761 116.146 204.61ZM122.745 202.412C121.531 202.412 120.547 203.396 120.547 204.61C120.547 205.823 121.531 206.808 122.745 206.808C123.958 206.808 124.943 205.823 124.943 204.61C124.943 203.396 123.958 202.412 122.745 202.412ZM122.745 209.74C120.719 209.74 119.078 211.386 119.078 213.407C119.078 215.433 120.719 217.073 122.745 217.073C124.771 217.073 126.412 215.433 126.412 213.407C126.412 211.386 124.771 209.745 122.75 209.74H122.745Z" fill="white"/>
</g>
<mask id="mask39_120_4052" style="mask-type:luminance" maskUnits="userSpaceOnUse" x="30" y="89" width="22" height="35">
<path d="M30 89.333H51.3333V124H30V89.333Z" fill="white"/>
</mask>
<g mask="url(#mask39_120_4052)">
<mask id="mask40_120_4052" style="mask-type:luminance" maskUnits="userSpaceOnUse" x="29" y="89" width="23" height="35">
<path d="M29.6875 90.2598L49.6354 89.3379L51.1615 122.255L31.2135 123.176L29.6875 90.2598Z" fill="white"/>
</mask>
<g mask="url(#mask40_120_4052)">
<mask id="mask41_120_4052" style="mask-type:luminance" maskUnits="userSpaceOnUse" x="29" y="89" width="23" height="35">
<path d="M29.6875 90.2598L49.6354 89.3379L51.1615 122.255L31.2135 123.176L29.6875 90.2598Z" fill="white"/>
</mask>
<g mask="url(#mask41_120_4052)">
<path d="M36.2761 100.182C36.1719 97.9265 37.9115 96.0202 40.1615 95.916C42.4167 95.8067 44.323 97.5515 44.4271 99.8015C44.4844 100.947 44.0782 102.067 43.3073 102.916L30.9063 116.525L31.198 122.885L51.5834 121.942L51.3021 115.828L39.3178 116.38L47.8282 107.041C49.698 104.994 50.6719 102.286 50.5469 99.5202C50.2865 93.89 45.5105 89.5358 39.8803 89.7963C34.25 90.0567 29.9011 94.8327 30.1615 100.463L36.2761 100.182Z" fill="white"/>
</g>
</g>
</g>
<mask id="mask42_120_4052" style="mask-type:luminance" maskUnits="userSpaceOnUse" x="52" y="122" width="38" height="24">
<path d="M52.6665 122.667H89.9998V145.334H52.6665V122.667Z" fill="white"/>
</mask>
<g mask="url(#mask42_120_4052)">
<mask id="mask43_120_4052" style="mask-type:luminance" maskUnits="userSpaceOnUse" x="46" y="122" width="45" height="38">
<path d="M55.7292 122.901L90.349 138.427L80.9531 159.381L46.3281 143.854L55.7292 122.901Z" fill="white"/>
</mask>
<g mask="url(#mask43_120_4052)">
<mask id="mask44_120_4052" style="mask-type:luminance" maskUnits="userSpaceOnUse" x="46" y="122" width="45" height="38">
<path d="M55.7292 122.901L90.349 138.427L80.9531 159.381L46.3281 143.854L55.7292 122.901Z" fill="white"/>
</mask>
<g mask="url(#mask44_120_4052)">
<path d="M85.5727 144.615L54.354 130.615C53.3123 130.151 52.9321 129.146 53.3956 128.104L54.9529 124.636C55.4217 123.594 56.4217 123.214 57.4633 123.677L88.6821 137.677C89.7238 138.146 90.1092 139.151 89.6404 140.193L88.0831 143.662C87.6196 144.698 86.6144 145.084 85.5727 144.615Z" fill="white"/>
</g>
</g>
</g>
<mask id="mask45_120_4052" style="mask-type:luminance" maskUnits="userSpaceOnUse" x="46" y="137" width="39" height="23">
<path d="M46 137.333H84.6667V160H46V137.333Z" fill="white"/>
</mask>
<g mask="url(#mask45_120_4052)">
<mask id="mask46_120_4052" style="mask-type:luminance" maskUnits="userSpaceOnUse" x="46" y="122" width="45" height="38">
<path d="M55.7292 122.9L90.349 138.426L80.9531 159.38L46.3281 143.854L55.7292 122.9Z" fill="white"/>
</mask>
<g mask="url(#mask46_120_4052)">
<mask id="mask47_120_4052" style="mask-type:luminance" maskUnits="userSpaceOnUse" x="46" y="122" width="45" height="38">
<path d="M55.7292 122.9L90.349 138.426L80.9531 159.38L46.3281 143.854L55.7292 122.9Z" fill="white"/>
</mask>
<g mask="url(#mask47_120_4052)">
<path d="M79.3491 158.489L48.1303 144.489C47.0887 144.025 46.7085 143.02 47.172 141.978L48.7293 138.51C49.198 137.468 50.2033 137.088 51.2449 137.551L82.4637 151.551C83.5001 152.02 83.8855 153.025 83.4168 154.067L81.8647 157.536C81.396 158.577 80.3908 158.958 79.3491 158.489Z" fill="white"/>
</g>
</g>
</g>
<mask id="mask48_120_4052" style="mask-type:luminance" maskUnits="userSpaceOnUse" x="83" y="20" width="37" height="35">
<path d="M83.3335 20.2861H119.333V54.6663H83.3335V20.2861Z" fill="white"/>
</mask>
<g mask="url(#mask48_120_4052)">
<path d="M115.448 37.1611C115.448 44.9424 109.115 51.2757 101.328 51.2757C93.547 51.2757 87.2137 44.9424 87.2137 37.1611C87.2137 29.3747 93.547 23.0413 101.328 23.0413C109.115 23.0413 115.448 29.3747 115.448 37.1611ZM84.4585 37.1611C84.4585 46.4788 92.0106 54.0309 101.328 54.0309C110.646 54.0309 118.198 46.4788 118.198 37.1611C118.198 27.8434 110.646 20.2861 101.328 20.2861C92.0106 20.2861 84.4585 27.8434 84.4585 37.1611Z" fill="white"/>
</g>
<path d="M100.198 26.4424V29.0518C97.7656 29.5778 96.3333 31.3382 96.3333 33.8695C96.3333 38.2653 102.812 38.5413 102.812 40.5465C102.812 41.5257 102.307 41.9528 101.052 41.9528C100 41.9528 98.9427 41.5518 97.5885 40.5465L95.7344 43.458C96.9844 44.5882 98.7708 45.1924 100.198 45.3695V47.8799H103.01V45.2184C105.646 44.5882 106.927 42.682 106.927 40.2445C106.927 35.6768 100.453 35.5778 100.453 33.6715C100.453 32.6663 100.979 32.3643 102.057 32.3643C102.984 32.3643 103.766 32.7653 104.667 33.5674L106.802 31.109C105.797 30.057 104.594 29.2549 103.01 28.9997V26.4424H100.198Z" fill="white"/>
<mask id="mask49_120_4052" style="mask-type:luminance" maskUnits="userSpaceOnUse" x="69" y="58" width="20" height="21">
<path d="M69.6929 58.667H88.6668V78.2035H69.6929V58.667Z" fill="white"/>
</mask>
<g mask="url(#mask49_120_4052)">
<path d="M84.4895 77.2189L87.9791 73.7033C88.4374 73.2345 88.4479 72.4793 87.9895 72.0053L86.6822 70.6408L76.4374 60.8074L75.2447 59.7449C74.7552 59.3074 74.0052 59.3387 73.5572 59.8178L70.1666 63.396C69.7083 63.8803 69.7239 64.6408 70.2031 65.1043L82.7864 77.2397C83.2656 77.698 84.026 77.6876 84.4895 77.2189Z" fill="white"/>
</g>
<mask id="mask50_120_4052" style="mask-type:luminance" maskUnits="userSpaceOnUse" x="78" y="49" width="44" height="20">
<path d="M78.8853 49.9639H121.573V68.7555H78.8853V49.9639Z" fill="white"/>
</mask>
<g mask="url(#mask50_120_4052)">
<path d="M111.245 62.485H111.234C111.245 62.485 111.25 62.485 111.245 62.485ZM106.203 68.4225C106.932 68.1568 107.521 67.61 108.083 67.0735C113.312 62.1204 123.265 51.6204 121.323 50.1933C121.224 50.1516 121.114 50.1204 121.01 50.0943C119.776 49.7922 118.458 50.485 117.333 51.1568C114.76 52.6985 112.182 54.235 109.609 55.7766C109.276 55.9745 109.14 56.3964 109.302 56.7558C109.698 57.6308 109.76 58.4745 109.609 59.261C109.213 61.3027 107.39 62.7558 105.312 62.7558H94.8175C94.4478 62.7558 94.1457 62.4537 94.1457 62.0839V61.5891C94.1457 61.2193 94.4478 60.9172 94.8228 60.9172C97.5988 60.9329 100.37 60.9485 103.146 60.9641C104.932 60.9745 107.307 60.4589 107.385 58.6725C107.422 57.735 106.677 56.9016 105.807 56.537C104.943 56.1725 103.969 56.1725 103.026 56.1829C100.338 56.2037 97.2134 56.4172 94.4582 55.6985C91.479 54.9225 89.2082 53.8495 86.0832 54.9277C83.3071 55.886 80.9842 57.8339 78.9634 59.9589C81.38 62.3027 83.8019 64.6464 86.2238 66.9902C86.8019 67.5527 87.4061 68.1308 88.1613 68.412C88.8071 68.6516 89.5155 68.6516 90.2082 68.6516C94.8748 68.6516 99.5415 68.6516 104.208 68.6568C104.88 68.6568 105.568 68.6516 106.203 68.4225Z" fill="white"/>
</g>
<path d="M139.979 20.3333C140.589 20.3333 141.078 19.8385 141.078 19.2292C141.078 18.6198 140.589 18.125 139.979 18.125C135.651 18.125 132.13 21.6458 132.13 25.974C132.13 30.3021 135.651 33.8229 139.979 33.8229C144.307 33.8229 147.823 30.3021 147.823 25.974C147.823 25.3646 147.328 24.8698 146.724 24.8698C146.115 24.8698 145.62 25.3646 145.62 25.974C145.62 29.0833 143.089 31.6146 139.979 31.6146C136.865 31.6146 134.333 29.0833 134.333 25.974C134.333 22.8646 136.865 20.3333 139.979 20.3333Z" fill="white"/>
<path d="M139.979 12.4688C132.531 12.4688 126.474 18.526 126.474 25.974C126.474 33.4219 132.531 39.4792 139.979 39.4792C147.427 39.4792 153.485 33.4219 153.485 25.974C153.485 25.3646 152.99 24.8698 152.38 24.8698C151.771 24.8698 151.276 25.3646 151.276 25.974C151.276 32.2031 146.208 37.276 139.979 37.276C133.745 37.276 128.677 32.2031 128.677 25.974C128.677 19.7448 133.745 14.6719 139.979 14.6719C140.589 14.6719 141.078 14.1823 141.078 13.5729C141.078 12.9635 140.589 12.4688 139.979 12.4688Z" fill="white"/>
<mask id="mask51_120_4052" style="mask-type:luminance" maskUnits="userSpaceOnUse" x="120" y="5" width="41" height="41">
<path d="M120.333 5.33301H160.667V45.7809H120.333V5.33301Z" fill="white"/>
</mask>
<g mask="url(#mask51_120_4052)">
<path d="M158.526 24.8691C157.917 24.8691 157.422 25.3639 157.422 25.9733C157.422 35.5931 149.594 43.416 139.979 43.416C130.359 43.416 122.536 35.5931 122.536 25.9733C122.536 16.3535 130.359 8.5306 139.979 8.5306C140.589 8.5306 141.078 8.03581 141.078 7.42643C141.078 6.81706 140.589 6.32227 139.979 6.32227C129.146 6.32227 120.328 15.14 120.328 25.9733C120.328 36.8066 129.146 45.6244 139.979 45.6244C150.813 45.6244 159.625 36.8066 159.625 25.9733C159.625 25.3639 159.135 24.8691 158.526 24.8691Z" fill="white"/>
</g>
<mask id="mask52_120_4052" style="mask-type:luminance" maskUnits="userSpaceOnUse" x="138" y="4" width="24" height="24">
<path d="M138 4.83887H161.271V28.0003H138V4.83887Z" fill="white"/>
</mask>
<g mask="url(#mask52_120_4052)">
<path d="M154.323 16.4012L151.854 15.8127L155.427 12.2398L157.896 12.8283L154.323 16.4012ZM149.703 11.7866L153.276 8.20851L153.838 10.5523L150.265 14.1304L149.703 11.7866ZM161.13 11.9116C161.021 11.5314 160.713 11.2346 160.323 11.1408L156 10.1043L154.963 5.78143C154.875 5.3908 154.578 5.08351 154.193 4.97414C153.807 4.86997 153.396 4.97414 153.114 5.25539L147.708 10.6616C147.437 10.9325 147.323 11.3231 147.417 11.6981L148.432 15.9585L139.198 25.1929C138.765 25.6252 138.765 26.3231 139.198 26.7554C139.411 26.9689 139.693 27.0783 139.979 27.0783C140.26 27.0783 140.542 26.9689 140.755 26.7554L149.901 17.6148L154.406 18.6929C154.495 18.7085 154.578 18.7189 154.661 18.7189C154.953 18.7189 155.234 18.6043 155.443 18.396L160.849 12.995C161.13 12.7085 161.239 12.2971 161.13 11.9116Z" fill="white"/>
</g>
<path d="M106.734 166.833C105.734 166.656 104.771 167.344 104.615 168.344C104.557 168.662 104.594 168.974 104.693 169.266L100.51 172.761C100.333 172.646 100.12 172.583 99.9063 172.547C99.5521 172.485 99.2344 172.526 98.9219 172.646L97.1146 170.604C97.2136 170.427 97.2761 170.25 97.3126 170.031C97.3126 169.938 97.3126 169.839 97.3126 169.74C97.3126 168.854 96.6876 168.073 95.7813 167.932C94.7813 167.755 93.8178 168.443 93.6615 169.443C93.6042 169.818 93.6407 170.193 93.8021 170.526L90.3646 173.938C90.2292 173.86 90.0521 173.823 89.8959 173.802C89.4011 173.724 88.9115 173.823 88.5209 174.115C88.1303 174.412 87.8542 174.823 87.7761 175.313C87.6199 176.313 88.2865 177.276 89.2865 177.453C89.3855 177.474 89.4844 177.474 89.599 177.474C90.4844 177.474 91.2657 176.844 91.4271 175.943C91.4844 175.568 91.4428 175.193 91.2865 174.86L94.7032 171.406C94.8386 171.485 94.9949 171.526 95.1719 171.547C95.2917 171.563 95.3907 171.563 95.4896 171.563C95.724 171.563 95.9376 171.526 96.1563 171.427L97.9584 173.469C97.8646 173.646 97.8021 173.823 97.7657 174.037C97.6876 174.526 97.7865 175.021 98.0782 175.412C98.3751 175.802 98.7865 176.078 99.2761 176.156C99.3959 176.177 99.4896 176.177 99.5886 176.177C99.9636 176.177 100.333 176.057 100.651 175.844C101.042 175.547 101.318 175.136 101.396 174.646C101.417 174.526 101.417 174.427 101.417 174.333C101.417 174.115 101.375 173.917 101.297 173.724L105.479 170.229C105.656 170.349 105.87 170.406 106.089 170.443C106.203 170.464 106.302 170.464 106.401 170.464C106.771 170.464 107.146 170.349 107.458 170.11C107.854 169.818 108.125 169.406 108.208 168.917C108.224 168.818 108.224 168.698 108.224 168.599C108.245 167.776 107.615 166.99 106.734 166.833ZM90.1511 175.703C90.0886 176.021 89.7969 176.214 89.5001 176.177C89.1876 176.12 88.974 175.823 89.0313 175.511C89.0521 175.354 89.1459 175.214 89.2657 175.136C89.3646 175.078 89.4844 175.037 89.599 175.037C89.6407 175.037 89.6563 175.037 89.698 175.037C89.8334 175.057 89.974 175.156 90.0521 175.276C90.1511 175.391 90.1667 175.547 90.1511 175.703ZM95.3907 170.307C95.2501 170.287 95.1146 170.193 95.0157 170.073C94.9376 169.953 94.9011 169.797 94.9167 169.641C94.9792 169.365 95.2136 169.172 95.4896 169.172C95.5261 169.172 95.5469 169.172 95.5834 169.172C95.9011 169.229 96.0938 169.521 96.0574 169.839C96.0365 169.995 95.9376 170.11 95.823 170.208C95.6824 170.287 95.5261 170.328 95.3907 170.307ZM99.6667 173.802C99.9844 173.86 100.177 174.156 100.141 174.469C100.12 174.625 100.021 174.766 99.9063 174.844C99.7865 174.938 99.6303 174.958 99.4896 174.938C99.3542 174.922 99.2188 174.823 99.1199 174.703C99.0417 174.589 99.0001 174.427 99.0209 174.271C99.0782 174 99.3126 173.802 99.5886 173.802C99.6094 173.781 99.6511 173.802 99.6667 173.802ZM105.849 168.563C105.891 168.287 106.146 168.089 106.422 168.089C106.458 168.089 106.479 168.089 106.516 168.089C106.833 168.151 107.026 168.443 106.99 168.755C106.969 168.896 106.87 169.031 106.755 169.13C106.635 169.229 106.479 169.25 106.344 169.229C106.182 169.208 106.068 169.13 105.969 168.995C105.849 168.854 105.833 168.719 105.849 168.563Z" fill="white"/>
<path d="M106.792 162.672C101.708 157.589 93.4481 157.589 88.3804 162.672C83.297 167.755 83.297 176.021 88.3804 181.083C90.8387 183.536 94.1147 184.891 97.5887 184.891C101.063 184.891 104.339 183.536 106.792 181.083C109.245 178.63 110.599 175.354 110.599 171.88C110.599 168.385 109.245 165.125 106.792 162.672ZM105.891 180.182C103.672 182.396 100.729 183.615 97.5887 183.615C94.4481 183.615 91.5054 182.396 89.2866 180.182C84.7137 175.609 84.7137 168.151 89.2866 163.557C93.8595 158.984 101.318 158.984 105.912 163.557C108.125 165.776 109.344 168.719 109.344 171.859C109.323 175.021 108.11 177.964 105.891 180.182Z" fill="white"/>
<mask id="mask53_120_4052" style="mask-type:luminance" maskUnits="userSpaceOnUse" x="82" y="156" width="39" height="39">
<path d="M82.5835 156H120.531V194.375H82.5835V156Z" fill="white"/>
</mask>
<g mask="url(#mask53_120_4052)">
<path d="M119.823 189.562L113.604 183.359C113.115 182.891 112.286 182.891 111.797 183.359L111.031 184.125L108.755 181.849C113.995 175.958 113.818 166.911 108.188 161.281C102.339 155.432 92.8177 155.432 86.9688 161.281C84.1458 164.104 82.5938 167.875 82.5938 171.88C82.5938 175.88 84.1458 179.651 86.9896 182.474C89.9115 185.401 93.7604 186.854 97.5885 186.854C101.297 186.854 105.005 185.479 107.891 182.75L110.151 185.01L109.385 185.776C109.146 186.01 109.01 186.344 109.01 186.677C109.01 187.01 109.146 187.344 109.385 187.578L115.583 193.781C115.823 194.016 116.156 194.156 116.49 194.156C116.823 194.156 117.156 194.016 117.391 193.781L119.844 191.328C120.333 190.859 120.333 190.052 119.823 189.562ZM87.8906 181.573C85.3021 178.984 83.8698 175.547 83.8698 171.88C83.8698 168.208 85.3021 164.755 87.8906 162.161C90.5625 159.495 94.0729 158.156 97.5885 158.156C101.099 158.156 104.615 159.495 107.281 162.161C112.641 167.521 112.641 176.214 107.281 181.573C101.943 186.932 93.2292 186.932 87.8906 181.573ZM116.49 192.896L110.266 186.698L112.719 184.245L118.943 190.464L116.49 192.896Z" fill="white"/>
</g>
<mask id="mask54_120_4052" style="mask-type:luminance" maskUnits="userSpaceOnUse" x="125" y="165" width="29" height="29">
<path d="M125.724 165.333H154V193.953H125.724V165.333Z" fill="white"/>
</mask>
<g mask="url(#mask54_120_4052)">
<path d="M153.016 177.161L151.016 176.833C150.781 176.036 150.464 175.276 150.068 174.547L151.245 172.901C151.36 172.734 151.412 172.552 151.396 172.354C151.38 172.151 151.297 171.979 151.156 171.839L148.052 168.734C147.912 168.594 147.74 168.516 147.537 168.5C147.339 168.479 147.156 168.531 146.995 168.646L145.349 169.823C144.62 169.427 143.854 169.109 143.057 168.875L142.729 166.875C142.698 166.677 142.604 166.516 142.448 166.385C142.297 166.255 142.12 166.188 141.917 166.188H137.521C137.318 166.188 137.141 166.255 136.99 166.385C136.833 166.516 136.74 166.677 136.708 166.875L136.38 168.875C135.583 169.109 134.818 169.427 134.089 169.823L132.443 168.646C132.281 168.531 132.099 168.479 131.896 168.5C131.698 168.516 131.526 168.594 131.386 168.734L128.271 171.833C128.13 171.974 128.052 172.146 128.037 172.344C128.016 172.547 128.068 172.729 128.182 172.891L129.36 174.536C128.964 175.266 128.646 176.031 128.412 176.828L126.412 177.156C126.214 177.187 126.052 177.281 125.922 177.438C125.792 177.589 125.724 177.766 125.724 177.969V182.354C125.724 182.557 125.792 182.734 125.922 182.885C126.052 183.042 126.214 183.135 126.412 183.167L128.412 183.495C128.646 184.292 128.964 185.057 129.36 185.786L128.182 187.432C128.068 187.594 128.016 187.776 128.037 187.979C128.052 188.177 128.13 188.349 128.271 188.49L131.375 191.594C131.516 191.74 131.688 191.818 131.891 191.833C132.089 191.849 132.271 191.802 132.438 191.682L134.083 190.505C134.813 190.901 135.573 191.219 136.37 191.453L136.698 193.453C136.735 193.651 136.828 193.818 136.979 193.948C137.136 194.078 137.313 194.141 137.511 194.141H141.901C142.099 194.141 142.276 194.078 142.432 193.948C142.589 193.818 142.677 193.651 142.714 193.453L143.042 191.453C143.839 191.219 144.599 190.901 145.333 190.505L146.974 191.682C147.141 191.802 147.323 191.849 147.521 191.833C147.724 191.818 147.896 191.74 148.037 191.594L151.141 188.49C151.281 188.349 151.36 188.177 151.38 187.979C151.396 187.776 151.344 187.594 151.229 187.432L150.052 185.786C150.448 185.057 150.766 184.292 151 183.495L153 183.167C153.198 183.135 153.36 183.042 153.49 182.885C153.62 182.734 153.688 182.557 153.688 182.354V177.974C153.688 177.776 153.625 177.599 153.5 177.448C153.37 177.297 153.208 177.198 153.016 177.161ZM152.057 181.667L150.224 181.974C149.87 182.036 149.651 182.24 149.568 182.589C149.323 183.594 148.932 184.536 148.396 185.422C148.203 185.729 148.219 186.031 148.427 186.323L149.505 187.839L147.386 189.958L145.87 188.875C145.573 188.667 145.271 188.656 144.964 188.844C144.078 189.38 143.136 189.771 142.136 190.016C141.787 190.099 141.578 190.318 141.516 190.672L141.214 192.51H138.219L137.906 190.677C137.844 190.323 137.636 190.104 137.287 190.021C136.287 189.776 135.339 189.385 134.458 188.849C134.151 188.661 133.849 188.672 133.552 188.88L132.037 189.964L129.927 187.839L131.011 186.323C131.219 186.031 131.229 185.729 131.042 185.422C130.505 184.536 130.115 183.594 129.87 182.589C129.787 182.24 129.563 182.036 129.214 181.974L127.37 181.667V178.672L129.203 178.359C129.557 178.297 129.776 178.094 129.865 177.745C130.11 176.74 130.5 175.797 131.037 174.911C131.224 174.604 131.214 174.302 131 174.01L129.922 172.495L132.047 170.38L133.557 171.464C133.854 171.672 134.156 171.682 134.464 171.495C135.349 170.958 136.292 170.568 137.297 170.323C137.646 170.24 137.849 170.021 137.912 169.667L138.219 167.828H141.214L141.516 169.661C141.578 170.016 141.787 170.234 142.136 170.318C143.136 170.563 144.078 170.953 144.964 171.49C145.271 171.677 145.573 171.667 145.87 171.458L147.386 170.375L149.5 172.495L148.422 174.01C148.208 174.302 148.198 174.604 148.386 174.911C148.922 175.797 149.313 176.74 149.557 177.745C149.646 178.094 149.865 178.297 150.219 178.359L152.052 178.667L152.057 181.667Z" fill="white"/>
</g>
<path d="M139.713 172.766C139.229 172.766 138.745 172.812 138.271 172.906C137.792 173 137.328 173.141 136.88 173.328C136.432 173.516 136.005 173.74 135.599 174.01C135.198 174.281 134.823 174.589 134.479 174.932C134.135 175.276 133.828 175.651 133.557 176.057C133.286 176.458 133.057 176.885 132.87 177.333C132.687 177.786 132.547 178.25 132.453 178.724C132.354 179.203 132.307 179.682 132.307 180.172C132.307 180.656 132.354 181.135 132.453 181.615C132.547 182.094 132.687 182.552 132.87 183.005C133.057 183.453 133.286 183.88 133.557 184.286C133.828 184.688 134.135 185.062 134.479 185.406C134.823 185.75 135.198 186.057 135.599 186.328C136.005 186.599 136.432 186.823 136.88 187.01C137.328 187.198 137.792 187.339 138.271 187.432C138.745 187.526 139.229 187.573 139.713 187.573C140.198 187.573 140.682 187.526 141.161 187.432C141.635 187.339 142.099 187.198 142.547 187.01C142.995 186.823 143.422 186.599 143.828 186.328C144.234 186.057 144.609 185.75 144.953 185.406C145.297 185.062 145.599 184.688 145.87 184.286C146.14 183.88 146.37 183.453 146.557 183.005C146.739 182.552 146.88 182.094 146.979 181.615C147.073 181.135 147.12 180.656 147.12 180.172C147.12 179.682 147.073 179.203 146.974 178.724C146.88 178.25 146.739 177.786 146.552 177.339C146.37 176.885 146.14 176.464 145.87 176.057C145.599 175.651 145.292 175.281 144.948 174.938C144.604 174.594 144.229 174.286 143.828 174.016C143.422 173.745 142.995 173.516 142.547 173.328C142.099 173.146 141.635 173.005 141.156 172.906C140.682 172.812 140.198 172.766 139.713 172.766ZM139.713 185.927C139.338 185.927 138.963 185.891 138.588 185.818C138.219 185.745 137.859 185.635 137.51 185.49C137.161 185.349 136.828 185.167 136.515 184.958C136.198 184.75 135.906 184.51 135.64 184.245C135.375 183.974 135.135 183.682 134.927 183.37C134.713 183.057 134.536 182.724 134.39 182.375C134.25 182.026 134.14 181.667 134.062 181.292C133.989 180.922 133.953 180.547 133.953 180.172C133.953 179.792 133.989 179.417 134.062 179.047C134.14 178.677 134.25 178.313 134.39 177.964C134.536 177.615 134.713 177.286 134.927 176.969C135.135 176.656 135.375 176.365 135.64 176.099C135.906 175.828 136.198 175.589 136.515 175.38C136.828 175.172 137.161 174.995 137.51 174.849C137.859 174.703 138.219 174.594 138.588 174.521C138.963 174.448 139.338 174.411 139.713 174.411C140.094 174.411 140.469 174.448 140.838 174.521C141.208 174.594 141.568 174.703 141.917 174.849C142.265 174.995 142.599 175.172 142.917 175.38C143.229 175.589 143.521 175.828 143.786 176.099C144.052 176.365 144.292 176.656 144.505 176.969C144.713 177.286 144.89 177.615 145.036 177.964C145.182 178.313 145.292 178.677 145.364 179.047C145.437 179.417 145.474 179.792 145.474 180.172C145.474 180.547 145.437 180.922 145.364 181.292C145.292 181.667 145.182 182.026 145.036 182.375C144.89 182.724 144.713 183.057 144.505 183.37C144.292 183.682 144.052 183.974 143.786 184.245C143.521 184.51 143.229 184.75 142.917 184.958C142.599 185.167 142.265 185.349 141.917 185.49C141.568 185.635 141.208 185.745 140.838 185.818C140.469 185.891 140.094 185.927 139.713 185.927Z" fill="white"/>
<mask id="mask55_120_4052" style="mask-type:luminance" maskUnits="userSpaceOnUse" x="148" y="153" width="19" height="19">
<path d="M148.667 153.016H166.667V172H148.667V153.016Z" fill="white"/>
</mask>
<g mask="url(#mask55_120_4052)">
<path d="M166.182 159.885L165.12 159.708C164.995 159.318 164.833 158.937 164.646 158.573L165.276 157.698C165.391 157.531 165.443 157.349 165.427 157.151C165.411 156.948 165.328 156.776 165.188 156.635L163.25 154.698C163.104 154.552 162.932 154.474 162.734 154.458C162.531 154.443 162.349 154.49 162.188 154.609L161.312 155.234C160.948 155.047 160.568 154.891 160.177 154.766L160 153.703C159.969 153.505 159.875 153.339 159.719 153.208C159.568 153.078 159.391 153.016 159.188 153.016H156.448C156.245 153.016 156.068 153.078 155.911 153.208C155.76 153.339 155.667 153.505 155.635 153.703L155.458 154.766C155.068 154.891 154.687 155.047 154.323 155.234L153.448 154.609C153.281 154.49 153.099 154.443 152.901 154.458C152.698 154.474 152.526 154.552 152.385 154.698L150.448 156.635C150.302 156.776 150.224 156.948 150.208 157.151C150.193 157.349 150.24 157.531 150.359 157.698L150.984 158.573C150.797 158.937 150.641 159.318 150.516 159.708L149.453 159.885C149.255 159.917 149.089 160.01 148.958 160.161C148.828 160.318 148.766 160.495 148.766 160.698V163.438C148.766 163.641 148.828 163.818 148.958 163.969C149.089 164.125 149.255 164.219 149.453 164.25L150.516 164.427C150.641 164.818 150.797 165.198 150.984 165.562L150.359 166.438C150.24 166.604 150.193 166.781 150.208 166.984C150.224 167.182 150.302 167.354 150.448 167.5L152.385 169.438C152.526 169.578 152.698 169.661 152.901 169.677C153.099 169.693 153.281 169.641 153.448 169.526L154.323 168.896C154.687 169.089 155.068 169.245 155.458 169.37L155.635 170.432C155.667 170.63 155.76 170.792 155.911 170.922C156.068 171.052 156.245 171.12 156.448 171.12H159.188C159.391 171.12 159.568 171.052 159.719 170.922C159.875 170.792 159.969 170.63 160 170.432L160.177 169.37C160.568 169.245 160.948 169.089 161.312 168.896L162.188 169.526C162.349 169.641 162.531 169.693 162.734 169.677C162.932 169.661 163.104 169.578 163.25 169.438L165.188 167.5C165.328 167.354 165.411 167.182 165.427 166.984C165.443 166.781 165.391 166.604 165.276 166.438L164.646 165.562C164.833 165.198 164.995 164.818 165.12 164.427L166.182 164.25C166.38 164.219 166.542 164.125 166.672 163.969C166.802 163.818 166.87 163.641 166.87 163.438V160.698C166.87 160.495 166.802 160.318 166.672 160.161C166.542 160.01 166.38 159.917 166.182 159.885ZM165.224 162.74L164.333 162.891C163.979 162.953 163.76 163.156 163.677 163.505C163.526 164.104 163.292 164.667 162.974 165.193C162.786 165.505 162.797 165.807 163.005 166.099L163.531 166.833L162.578 167.786L161.844 167.26C161.552 167.052 161.25 167.042 160.938 167.229C160.411 167.547 159.854 167.781 159.255 167.927C158.906 168.01 158.703 168.229 158.641 168.583L158.49 169.474H157.141L156.995 168.583C156.932 168.229 156.729 168.01 156.38 167.927C155.781 167.781 155.219 167.547 154.693 167.229C154.385 167.042 154.083 167.052 153.792 167.26L153.057 167.786L152.104 166.833L152.625 166.099C152.839 165.807 152.849 165.505 152.661 165.193C152.344 164.667 152.109 164.109 151.964 163.51C151.88 163.161 151.656 162.958 151.307 162.896L150.417 162.745V161.391L151.307 161.245C151.656 161.182 151.88 160.979 151.964 160.63C152.109 160.031 152.344 159.469 152.661 158.943C152.849 158.63 152.839 158.328 152.625 158.036L152.104 157.302L153.057 156.349L153.792 156.87C154.083 157.083 154.385 157.094 154.693 156.906C155.219 156.589 155.781 156.354 156.38 156.208C156.729 156.125 156.932 155.906 156.995 155.552L157.141 154.661H158.49L158.641 155.552C158.703 155.906 158.906 156.125 159.255 156.208C159.854 156.354 160.411 156.589 160.938 156.906C161.25 157.094 161.552 157.083 161.844 156.87L162.578 156.349L163.531 157.302L163.005 158.036C162.797 158.328 162.786 158.63 162.974 158.943C163.292 159.464 163.526 160.026 163.672 160.625C163.755 160.974 163.974 161.177 164.328 161.24L165.219 161.385L165.224 162.74Z" fill="white"/>
</g>
<path d="M157.818 157.953C157.271 157.953 156.745 158.057 156.245 158.266C155.74 158.474 155.292 158.771 154.906 159.156C154.521 159.542 154.224 159.99 154.016 160.495C153.807 160.995 153.703 161.521 153.703 162.068C153.703 162.615 153.807 163.135 154.016 163.641C154.224 164.146 154.521 164.589 154.906 164.974C155.292 165.365 155.74 165.661 156.245 165.87C156.745 166.078 157.271 166.182 157.818 166.182C158.365 166.182 158.885 166.078 159.391 165.87C159.896 165.661 160.339 165.365 160.724 164.974C161.109 164.589 161.411 164.146 161.62 163.641C161.828 163.135 161.932 162.615 161.932 162.068C161.932 161.521 161.828 160.995 161.62 160.495C161.411 159.99 161.109 159.542 160.724 159.156C160.339 158.771 159.896 158.474 159.391 158.266C158.885 158.057 158.365 157.953 157.818 157.953ZM157.818 164.536C157.49 164.536 157.172 164.474 156.87 164.349C156.568 164.224 156.302 164.042 156.073 163.812C155.839 163.583 155.661 163.313 155.536 163.01C155.411 162.708 155.349 162.396 155.349 162.068C155.349 161.74 155.411 161.427 155.536 161.125C155.661 160.818 155.839 160.552 156.073 160.323C156.302 160.089 156.568 159.911 156.87 159.786C157.172 159.661 157.49 159.599 157.818 159.599C158.146 159.599 158.458 159.661 158.76 159.786C159.063 159.911 159.333 160.089 159.562 160.323C159.792 160.552 159.974 160.818 160.099 161.125C160.224 161.427 160.286 161.74 160.286 162.068C160.286 162.396 160.224 162.708 160.099 163.01C159.974 163.313 159.792 163.583 159.562 163.812C159.333 164.042 159.063 164.224 158.76 164.349C158.458 164.474 158.146 164.536 157.818 164.536Z" fill="white"/>
<mask id="mask56_120_4052" style="mask-type:luminance" maskUnits="userSpaceOnUse" x="159" y="122" width="15" height="24">
<path d="M159.333 122.667H174V145.334H159.333V122.667Z" fill="white"/>
</mask>
<g mask="url(#mask56_120_4052)">
<mask id="mask57_120_4052" style="mask-type:luminance" maskUnits="userSpaceOnUse" x="157" y="77" width="65" height="78">
<path d="M173.099 77.7139L221.615 89.4847L205.839 154.5L157.323 142.724L173.099 77.7139Z" fill="white"/>
</mask>
<g mask="url(#mask57_120_4052)">
<mask id="mask58_120_4052" style="mask-type:luminance" maskUnits="userSpaceOnUse" x="157" y="77" width="65" height="78">
<path d="M173.099 77.7139L221.615 89.4847L205.839 154.5L157.323 142.724L173.099 77.7139Z" fill="white"/>
</mask>
<g mask="url(#mask58_120_4052)">
<path d="M165.782 129.506C166.224 127.677 168.855 127.995 171.266 130.271L172.839 127.974C171.959 127.12 171.245 126.558 169.855 126.089L170.448 123.636C169.563 123.729 168.698 123.813 167.75 123.881L167.323 125.641C165.021 125.62 163.167 126.891 162.641 129.052C162.032 131.558 163.688 133.235 165.808 134.724C170.277 137.938 165.813 141.578 161.402 136.787L159.86 139.141C160.667 140.073 161.652 140.86 163.318 141.407L162.719 143.865L165.24 144.474L165.87 141.881C170.099 141.912 171.875 137.828 170.428 135.078C168.99 132.339 165.287 131.558 165.782 129.506Z" fill="white"/>
</g>
</g>
</g>
<mask id="mask59_120_4052" style="mask-type:luminance" maskUnits="userSpaceOnUse" x="172" y="120" width="16" height="28">
<path d="M172.667 120H187.333V148H172.667V120Z" fill="white"/>
</mask>
<g mask="url(#mask59_120_4052)">
<mask id="mask60_120_4052" style="mask-type:luminance" maskUnits="userSpaceOnUse" x="157" y="77" width="65" height="78">
<path d="M173.099 77.7139L221.614 89.4847L205.838 154.5L157.323 142.724L173.099 77.7139Z" fill="white"/>
</mask>
<g mask="url(#mask60_120_4052)">
<mask id="mask61_120_4052" style="mask-type:luminance" maskUnits="userSpaceOnUse" x="157" y="77" width="65" height="78">
<path d="M173.099 77.7139L221.614 89.4847L205.838 154.5L157.323 142.724L173.099 77.7139Z" fill="white"/>
</mask>
<g mask="url(#mask61_120_4052)">
<path d="M179.901 122.078L173.948 146.615L179.474 147.958C180.312 144.5 185.344 123.76 186.187 120.297C184.13 120.979 182.062 121.562 179.901 122.078Z" fill="white"/>
</g>
</g>
</g>
<mask id="mask62_120_4052" style="mask-type:luminance" maskUnits="userSpaceOnUse" x="163" y="88" width="58" height="34">
<path d="M163.333 88H220.667V121.333H163.333V88Z" fill="white"/>
</mask>
<g mask="url(#mask62_120_4052)">
<mask id="mask63_120_4052" style="mask-type:luminance" maskUnits="userSpaceOnUse" x="157" y="77" width="65" height="78">
<path d="M173.099 77.7139L221.615 89.4847L205.839 154.5L157.323 142.724L173.099 77.7139Z" fill="white"/>
</mask>
<g mask="url(#mask63_120_4052)">
<mask id="mask64_120_4052" style="mask-type:luminance" maskUnits="userSpaceOnUse" x="157" y="77" width="65" height="78">
<path d="M173.099 77.7139L221.615 89.4847L205.839 154.5L157.323 142.724L173.099 77.7139Z" fill="white"/>
</mask>
<g mask="url(#mask64_120_4052)">
<path d="M218.958 88.8125C216.833 89.4531 211.766 90.9792 210.281 91.4271L212.235 92.7812C213.172 92.4896 212.672 92.6458 214.766 92C203.432 110.583 180.74 118.417 163.422 118.083C163.37 119.958 163.391 119.26 163.333 121.135C168.516 121.286 201.307 120.01 217.432 93.4896C217.589 95.9323 217.547 95.2344 217.625 96.474L219.537 97.8021C219.021 89.7969 219.177 92.1875 218.958 88.8125Z" fill="white"/>
</g>
</g>
</g>
<mask id="mask65_120_4052" style="mask-type:luminance" maskUnits="userSpaceOnUse" x="183" y="114" width="17" height="37">
<path d="M183.333 114.667H199.333V150.667H183.333V114.667Z" fill="white"/>
</mask>
<g mask="url(#mask65_120_4052)">
<mask id="mask66_120_4052" style="mask-type:luminance" maskUnits="userSpaceOnUse" x="157" y="77" width="65" height="78">
<path d="M173.099 77.7139L221.615 89.4847L205.839 154.5L157.323 142.724L173.099 77.7139Z" fill="white"/>
</mask>
<g mask="url(#mask66_120_4052)">
<mask id="mask67_120_4052" style="mask-type:luminance" maskUnits="userSpaceOnUse" x="157" y="77" width="65" height="78">
<path d="M173.099 77.7139L221.615 89.4847L205.839 154.5L157.323 142.724L173.099 77.7139Z" fill="white"/>
</mask>
<g mask="url(#mask67_120_4052)">
<path d="M184.391 149.152L189.917 150.49C190.995 146.053 197.495 119.261 198.584 114.771C196.464 116.001 194.24 117.12 191.917 118.12C188.678 131.475 187.605 135.886 184.391 149.152Z" fill="white"/>
</g>
</g>
</g>
<mask id="mask68_120_4052" style="mask-type:luminance" maskUnits="userSpaceOnUse" x="194" y="102" width="19" height="52">
<path d="M194 102.667H212.667V153.334H194V102.667Z" fill="white"/>
</mask>
<g mask="url(#mask68_120_4052)">
<mask id="mask69_120_4052" style="mask-type:luminance" maskUnits="userSpaceOnUse" x="157" y="77" width="65" height="78">
<path d="M173.099 77.7139L221.614 89.4847L205.838 154.5L157.323 142.724L173.099 77.7139Z" fill="white"/>
</mask>
<g mask="url(#mask69_120_4052)">
<mask id="mask70_120_4052" style="mask-type:luminance" maskUnits="userSpaceOnUse" x="157" y="77" width="65" height="78">
<path d="M173.099 77.7139L221.614 89.4847L205.838 154.5L157.323 142.724L173.099 77.7139Z" fill="white"/>
</mask>
<g mask="url(#mask70_120_4052)">
<path d="M194.828 151.683L200.359 153.027C203.167 141.438 209.693 114.548 212.354 103.584C210.078 106.152 207.557 108.501 204.792 110.626C203.589 115.594 196.031 146.725 194.828 151.683Z" fill="white"/>
</g>
</g>
</g>
<mask id="mask71_120_4052" style="mask-type:luminance" maskUnits="userSpaceOnUse" x="47" y="52" width="23" height="31">
<path d="M47.3335 52H70.0002V82.6667H47.3335V52Z" fill="white"/>
</mask>
<g mask="url(#mask71_120_4052)">
<mask id="mask72_120_4052" style="mask-type:luminance" maskUnits="userSpaceOnUse" x="18" y="36" width="57" height="54">
<path d="M25.2606 36.6143L74.5783 44.359L67.4533 89.7341L18.1304 81.9893L25.2606 36.6143Z" fill="white"/>
</mask>
<g mask="url(#mask72_120_4052)">
<mask id="mask73_120_4052" style="mask-type:luminance" maskUnits="userSpaceOnUse" x="18" y="36" width="57" height="54">
<path d="M25.2606 36.6143L74.5783 44.359L67.4533 89.7341L18.1304 81.9893L25.2606 36.6143Z" fill="white"/>
</mask>
<g mask="url(#mask73_120_4052)">
<path d="M69.5107 76.614L64.5836 53.8796C64.4898 53.4578 64.0732 53.1921 63.6565 53.2807L48.6878 56.5255C48.2659 56.614 48.0003 57.0307 48.094 57.4526C48.1878 57.8692 48.5992 58.1401 49.0211 58.0463L63.2242 54.9682L67.8232 76.1817L50.9065 79.8484C50.4846 79.9421 50.219 80.3536 50.3076 80.7755C50.3753 81.0984 50.6409 81.3328 50.9482 81.3796C51.0419 81.3953 51.1357 81.3953 51.2346 81.3744L68.9117 77.5411C69.1148 77.4942 69.2919 77.3744 69.4065 77.2026C69.5159 77.0255 69.5523 76.8171 69.5107 76.614Z" fill="white"/>
</g>
</g>
</g>
<mask id="mask74_120_4052" style="mask-type:luminance" maskUnits="userSpaceOnUse" x="50" y="57" width="15" height="21">
<path d="M50 57.333H64.6667V77.333H50V57.333Z" fill="white"/>
</mask>
<g mask="url(#mask74_120_4052)">
<mask id="mask75_120_4052" style="mask-type:luminance" maskUnits="userSpaceOnUse" x="18" y="36" width="57" height="54">
<path d="M25.2606 36.6143L74.5783 44.359L67.4533 89.7341L18.1304 81.9893L25.2606 36.6143Z" fill="white"/>
</mask>
<g mask="url(#mask75_120_4052)">
<mask id="mask76_120_4052" style="mask-type:luminance" maskUnits="userSpaceOnUse" x="18" y="36" width="57" height="54">
<path d="M25.2606 36.6143L74.5783 44.359L67.4533 89.7341L18.1304 81.9893L25.2606 36.6143Z" fill="white"/>
</mask>
<g mask="url(#mask76_120_4052)">
<path d="M63.9063 71.5828C64.3282 71.489 64.5938 71.0776 64.5053 70.6557L62.4897 61.3692C62.448 61.1713 62.323 60.9942 62.1459 60.8796C61.9792 60.7703 61.7657 60.7338 61.5678 60.7755C60.3386 61.0359 59.1251 60.2598 58.8595 59.0359C58.7657 58.614 58.3542 58.3484 57.9324 58.4369L52.2188 59.6765C51.797 59.7651 51.5313 60.1817 51.6251 60.6036C51.7188 61.0203 52.1303 61.2911 52.5522 61.1973L57.5782 60.1088C58.1928 61.4994 59.599 62.4005 61.1147 62.3848L62.8282 70.3015C62.1563 70.6036 61.5782 71.0932 61.1615 71.7338C60.7553 72.3692 60.547 73.0984 60.5522 73.838L51.5417 75.7911C51.1199 75.8848 50.8542 76.3015 50.9428 76.7234C51.0105 77.0463 51.2761 77.2755 51.5834 77.3223C51.6772 77.338 51.7761 77.338 51.8699 77.3171L61.5678 75.213C61.7709 75.1713 61.9428 75.0463 62.0574 74.8744C62.172 74.7026 62.2084 74.489 62.1615 74.2911C61.9011 73.0619 62.6824 71.8536 63.9063 71.5828Z" fill="white"/>
</g>
</g>
</g>
<mask id="mask77_120_4052" style="mask-type:luminance" maskUnits="userSpaceOnUse" x="43" y="40" width="18" height="16">
<path d="M43.3335 40H60.6668V56H43.3335V40Z" fill="white"/>
</mask>
<g mask="url(#mask77_120_4052)">
<mask id="mask78_120_4052" style="mask-type:luminance" maskUnits="userSpaceOnUse" x="18" y="36" width="57" height="54">
<path d="M25.2606 36.6143L74.5783 44.359L67.4533 89.7341L18.1304 81.9893L25.2606 36.6143Z" fill="white"/>
</mask>
<g mask="url(#mask78_120_4052)">
<mask id="mask79_120_4052" style="mask-type:luminance" maskUnits="userSpaceOnUse" x="18" y="36" width="57" height="54">
<path d="M25.2606 36.6143L74.5783 44.359L67.4533 89.7341L18.1304 81.9893L25.2606 36.6143Z" fill="white"/>
</mask>
<g mask="url(#mask79_120_4052)">
<path d="M46.4064 55.0203C46.521 55.114 46.646 55.1661 46.7814 55.1869C47.0418 55.2286 47.3231 55.1348 47.5054 54.9161C47.7762 54.5828 47.7293 54.0932 47.396 53.8171C45.6616 52.3901 44.8022 50.1244 45.1512 47.9109C45.6929 44.4421 48.9533 42.0671 52.4168 42.6088C55.8856 43.1557 58.2606 46.4161 57.7189 49.8848C57.6043 50.5932 57.3804 51.2703 57.047 51.8953C56.8439 52.2703 56.9897 52.7442 57.37 52.9473C57.7502 53.1505 58.2241 53.0046 58.4272 52.6244C58.8387 51.8484 59.12 51.0046 59.2554 50.1244C59.9325 45.8119 56.9793 41.7494 52.6616 41.0723C48.3491 40.3901 44.2866 43.3536 43.6095 47.6661C43.1772 50.4265 44.2502 53.2442 46.4064 55.0203Z" fill="white"/>
</g>
</g>
</g>
<mask id="mask80_120_4052" style="mask-type:luminance" maskUnits="userSpaceOnUse" x="47" y="42" width="9" height="13">
<path d="M47.3335 42.667H55.3335V54.667H47.3335V42.667Z" fill="white"/>
</mask>
<g mask="url(#mask80_120_4052)">
<mask id="mask81_120_4052" style="mask-type:luminance" maskUnits="userSpaceOnUse" x="18" y="36" width="57" height="54">
<path d="M25.2606 36.6152L74.5783 44.36L67.4533 89.735L18.1304 81.9902L25.2606 36.6152Z" fill="white"/>
</mask>
<g mask="url(#mask81_120_4052)">
<mask id="mask82_120_4052" style="mask-type:luminance" maskUnits="userSpaceOnUse" x="18" y="36" width="57" height="54">
<path d="M25.2606 36.6152L74.5783 44.36L67.4533 89.735L18.1304 81.9902L25.2606 36.6152Z" fill="white"/>
</mask>
<g mask="url(#mask82_120_4052)">
<path d="M50.9378 46.657L52.3961 46.8862C52.7659 46.9434 53.0211 47.2872 52.9586 47.6622C52.8961 48.0893 53.1826 48.4851 53.6097 48.5528C54.0368 48.6205 54.4326 48.3289 54.5003 47.9018C54.6878 46.6987 53.8753 45.5684 52.6774 45.3601L52.8232 44.4226C52.8909 44.0007 52.5993 43.5997 52.1774 43.532C51.7503 43.4695 51.3493 43.7559 51.2868 44.183L51.1357 45.1153C49.9378 44.9487 48.8128 45.7768 48.6253 46.9799C48.4326 48.1987 49.2659 49.3445 50.4847 49.5372L51.943 49.7664C52.3128 49.8237 52.568 50.1726 52.5107 50.5424C52.4482 50.9122 52.1045 51.1622 51.7347 51.1049L50.2763 50.8757C49.9066 50.8184 49.6513 50.4747 49.7086 50.0997C49.7763 49.6778 49.4847 49.2768 49.0628 49.2091C48.6357 49.1466 48.2399 49.433 48.1722 49.8601C47.9795 51.0684 48.7972 52.1987 49.9951 52.407L49.8441 53.3393C49.7816 53.7664 50.068 54.1622 50.4951 54.2299C50.9222 54.2976 51.318 54.0059 51.3857 53.5841L51.5316 52.6466C52.7347 52.8132 53.8597 51.9903 54.0472 50.782C54.2399 49.5632 53.4066 48.4174 52.1878 48.2247L50.7243 47.9955C50.3597 47.9382 50.1045 47.5893 50.1618 47.2247C50.2191 46.8497 50.568 46.5945 50.9378 46.657Z" fill="white"/>
</g>
</g>
</g>
<mask id="mask83_120_4052" style="mask-type:luminance" maskUnits="userSpaceOnUse" x="20" y="62" width="32" height="25">
<path d="M20.6665 62.667H51.3332V86.667H20.6665V62.667Z" fill="white"/>
</mask>
<g mask="url(#mask83_120_4052)">
<mask id="mask84_120_4052" style="mask-type:luminance" maskUnits="userSpaceOnUse" x="18" y="36" width="57" height="54">
<path d="M25.2601 36.6152L74.5778 44.36L67.4528 89.735L18.1299 81.9902L25.2601 36.6152Z" fill="white"/>
</mask>
<g mask="url(#mask84_120_4052)">
<mask id="mask85_120_4052" style="mask-type:luminance" maskUnits="userSpaceOnUse" x="18" y="36" width="57" height="54">
<path d="M25.2601 36.6152L74.5778 44.36L67.4528 89.735L18.1299 81.9902L25.2601 36.6152Z" fill="white"/>
</mask>
<g mask="url(#mask85_120_4052)">
<path d="M50.062 67.4333C49.6297 67.3708 49.2339 67.6572 49.1714 68.0843L46.5828 84.5687L22.8797 80.8447L25.4683 64.3603C25.536 63.9385 25.2443 63.5374 24.8172 63.4697C24.3953 63.402 23.9943 63.6937 23.9266 64.1208L21.2183 81.3708C21.1506 81.7978 21.4422 82.1937 21.8693 82.2614L47.1089 86.2249C47.5308 86.2926 47.9318 86.001 47.9995 85.5791L50.7078 68.3239C50.7756 67.902 50.4787 67.501 50.062 67.4333Z" fill="white"/>
</g>
</g>
</g>
<mask id="mask86_120_4052" style="mask-type:luminance" maskUnits="userSpaceOnUse" x="20" y="53" width="36" height="14">
<path d="M20.6665 53.333H55.3332V66.6663H20.6665V53.333Z" fill="white"/>
</mask>
<g mask="url(#mask86_120_4052)">
<mask id="mask87_120_4052" style="mask-type:luminance" maskUnits="userSpaceOnUse" x="18" y="36" width="57" height="54">
<path d="M25.2601 36.6143L74.5778 44.359L67.4528 89.7341L18.1299 81.9893L25.2601 36.6143Z" fill="white"/>
</mask>
<g mask="url(#mask87_120_4052)">
<mask id="mask88_120_4052" style="mask-type:luminance" maskUnits="userSpaceOnUse" x="18" y="36" width="57" height="54">
<path d="M25.2601 36.6143L74.5778 44.359L67.4528 89.7341L18.1299 81.9893L25.2601 36.6143Z" fill="white"/>
</mask>
<g mask="url(#mask88_120_4052)">
<path d="M24.286 60.4062L38.9839 55.6094L51.5047 64.6823L24.286 60.4062ZM53.9683 65.6979C54.187 65.1719 54.0151 64.5781 53.5568 64.2448L39.5776 54.1146C39.3745 53.9687 39.1193 53.9323 38.8797 54.0052L22.4683 59.3594C21.9266 59.5365 21.5828 60.0521 21.6245 60.6198C21.6714 61.1875 22.0933 61.6406 22.6558 61.7292L52.6505 66.4427C53.213 66.5313 53.7547 66.224 53.9683 65.6979Z" fill="white"/>
</g>
</g>
</g>
<mask id="mask89_120_4052" style="mask-type:luminance" maskUnits="userSpaceOnUse" x="35" y="56" width="7" height="7">
<path d="M35.3335 56H42.0002V62.6667H35.3335V56Z" fill="white"/>
</mask>
<g mask="url(#mask89_120_4052)">
<mask id="mask90_120_4052" style="mask-type:luminance" maskUnits="userSpaceOnUse" x="18" y="36" width="57" height="54">
<path d="M25.2606 36.6143L74.5783 44.359L67.4533 89.7341L18.1304 81.9893L25.2606 36.6143Z" fill="white"/>
</mask>
<g mask="url(#mask90_120_4052)">
<mask id="mask91_120_4052" style="mask-type:luminance" maskUnits="userSpaceOnUse" x="18" y="36" width="57" height="54">
<path d="M25.2606 36.6143L74.5783 44.359L67.4533 89.7341L18.1304 81.9893L25.2606 36.6143Z" fill="white"/>
</mask>
<g mask="url(#mask91_120_4052)">
<path d="M39.2868 59.5983C39.2087 60.1035 38.7399 60.4421 38.2399 60.3639C37.7399 60.2858 37.3962 59.8171 37.4743 59.3171C37.5524 58.8171 38.0212 58.4733 38.5212 58.5514C39.0264 58.6296 39.3649 59.1035 39.2868 59.5983ZM35.9378 59.0723C35.7243 60.4212 36.6514 61.6921 37.9951 61.9056C39.3441 62.1139 40.6149 61.1869 40.8285 59.8431C41.0368 58.4941 40.1149 57.2233 38.766 57.015C37.417 56.8014 36.1462 57.7285 35.9378 59.0723Z" fill="white"/>
</g>
</g>
</g>
<mask id="mask92_120_4052" style="mask-type:luminance" maskUnits="userSpaceOnUse" x="24" y="64" width="9" height="18">
<path d="M24.6665 64H32.6665V81.3333H24.6665V64Z" fill="white"/>
</mask>
<g mask="url(#mask92_120_4052)">
<mask id="mask93_120_4052" style="mask-type:luminance" maskUnits="userSpaceOnUse" x="18" y="36" width="57" height="54">
<path d="M25.2601 36.6143L74.5778 44.359L67.4528 89.7341L18.1299 81.9893L25.2601 36.6143Z" fill="white"/>
</mask>
<g mask="url(#mask93_120_4052)">
<mask id="mask94_120_4052" style="mask-type:luminance" maskUnits="userSpaceOnUse" x="18" y="36" width="57" height="54">
<path d="M25.2601 36.6143L74.5778 44.359L67.4528 89.7341L18.1299 81.9893L25.2601 36.6143Z" fill="white"/>
</mask>
<g mask="url(#mask94_120_4052)">
<path d="M30.9633 67.3587L29.3279 77.7702C29.2133 78.4785 28.5467 78.9681 27.8383 78.8535C27.1248 78.7441 26.6456 78.0775 26.755 77.3691L28.3904 66.9577C28.505 66.2441 29.1665 65.7597 29.8748 65.8691C30.5883 65.9837 31.0727 66.6504 30.9633 67.3587ZM26.854 66.7129L25.2185 77.1243C24.9737 78.6868 26.0415 80.1504 27.5935 80.3952C29.156 80.64 30.6196 79.5722 30.8644 78.015L32.4998 67.6035C32.7446 66.0462 31.6769 64.5775 30.1196 64.3327C28.5623 64.0879 27.0935 65.1608 26.854 66.7129Z" fill="white"/>
</g>
</g>
</g>
<mask id="mask95_120_4052" style="mask-type:luminance" maskUnits="userSpaceOnUse" x="31" y="65" width="10" height="18">
<path d="M31.3335 65.333H40.6668V82.6663H31.3335V65.333Z" fill="white"/>
</mask>
<g mask="url(#mask95_120_4052)">
<mask id="mask96_120_4052" style="mask-type:luminance" maskUnits="userSpaceOnUse" x="18" y="36" width="57" height="54">
<path d="M25.2606 36.6143L74.5783 44.359L67.4533 89.7341L18.1304 81.9893L25.2606 36.6143Z" fill="white"/>
</mask>
<g mask="url(#mask96_120_4052)">
<mask id="mask97_120_4052" style="mask-type:luminance" maskUnits="userSpaceOnUse" x="18" y="36" width="57" height="54">
<path d="M25.2606 36.6143L74.5783 44.359L67.4533 89.7341L18.1304 81.9893L25.2606 36.6143Z" fill="white"/>
</mask>
<g mask="url(#mask97_120_4052)">
<path d="M38.3124 68.5153L36.677 78.9267C36.5624 79.6351 35.8958 80.1194 35.1874 80.0101C34.4791 79.9007 33.9947 79.234 34.1041 78.5205L35.7395 68.109C35.8541 67.4007 36.5208 66.9163 37.2291 67.0257C37.9374 67.1351 38.4218 67.8017 38.3124 68.5153ZM34.2031 67.8694L32.5677 78.2809C32.3229 79.8382 33.3906 81.3069 34.9479 81.5517C36.5052 81.7965 37.9687 80.7288 38.2135 79.1663L39.8489 68.7549C40.0937 67.1976 39.026 65.7288 37.4687 65.484C35.9114 65.2392 34.4427 66.3121 34.2031 67.8694Z" fill="white"/>
</g>
</g>
</g>
<mask id="mask98_120_4052" style="mask-type:luminance" maskUnits="userSpaceOnUse" x="39" y="65" width="9" height="19">
<path d="M39.3335 65.333H47.3335V83.9997H39.3335V65.333Z" fill="white"/>
</mask>
<g mask="url(#mask98_120_4052)">
<mask id="mask99_120_4052" style="mask-type:luminance" maskUnits="userSpaceOnUse" x="18" y="36" width="57" height="54">
<path d="M25.2606 36.6143L74.5783 44.359L67.4533 89.7341L18.1304 81.9893L25.2606 36.6143Z" fill="white"/>
</mask>
<g mask="url(#mask99_120_4052)">
<mask id="mask100_120_4052" style="mask-type:luminance" maskUnits="userSpaceOnUse" x="18" y="36" width="57" height="54">
<path d="M25.2606 36.6143L74.5783 44.359L67.4533 89.7341L18.1304 81.9893L25.2606 36.6143Z" fill="white"/>
</mask>
<g mask="url(#mask100_120_4052)">
<path d="M45.6616 69.6663L44.0262 80.0778C43.9116 80.7913 43.2501 81.2757 42.5366 81.1663C41.8282 81.0517 41.3439 80.3851 41.4532 79.6767L43.0887 69.2653C43.2032 68.5569 43.8699 68.0674 44.5782 68.1819C45.2866 68.2913 45.7709 68.958 45.6616 69.6663ZM41.5522 69.0205L39.9168 79.4319C39.672 80.9944 40.7397 82.458 42.297 82.7028C43.8543 82.9476 45.3178 81.8799 45.5626 80.3226L47.198 69.9111C47.4428 68.3538 46.3751 66.8851 44.8178 66.6403C43.2605 66.3955 41.7918 67.4684 41.5522 69.0205Z" fill="white"/>
</g>
</g>
</g>
<mask id="mask101_120_4052" style="mask-type:luminance" maskUnits="userSpaceOnUse" x="58" y="6" width="14" height="16">
<path d="M58 6.96875H71.3333V21.3333H58V6.96875Z" fill="white"/>
</mask>
<g mask="url(#mask101_120_4052)">
<path d="M61.0363 20.0361L70.2134 7.14551H66.5207L58.1353 18.932C59.7394 19.1872 60.5936 19.5778 61.0363 20.0361Z" fill="white"/>
</g>
<mask id="mask102_120_4052" style="mask-type:luminance" maskUnits="userSpaceOnUse" x="51" y="6" width="11" height="12">
<path d="M51.3335 6.96875H62.0002V17.3333H51.3335V6.96875Z" fill="white"/>
</mask>
<g mask="url(#mask102_120_4052)">
<path d="M56.5625 16.4684C59.2135 16.4684 60.8906 14.6559 60.8906 11.7653C60.8906 8.8903 59.2135 7.08301 56.5625 7.08301C53.9115 7.08301 52.2344 8.8903 52.2344 11.7653C52.2344 14.6559 53.9115 16.4684 56.5625 16.4684ZM56.5625 9.22363C57.7083 9.22363 58.3958 10.1715 58.3958 11.7653C58.3958 13.3538 57.7083 14.3226 56.5625 14.3226C55.4115 14.3226 54.724 13.3538 54.724 11.7653C54.724 10.1715 55.4115 9.22363 56.5625 9.22363Z" fill="white"/>
</g>
<path d="M67.3387 22.3382C68.422 22.1768 69.8439 22.0726 71.6877 22.0465C72.8752 21.2705 73.5679 19.8695 73.5679 18.0153C73.5679 15.1403 71.8908 13.333 69.2397 13.333C66.5887 13.333 64.9116 15.1403 64.9116 18.0153C64.9116 20.1351 65.8127 21.6663 67.3387 22.3382ZM69.2397 15.4736C70.3908 15.4736 71.0731 16.4215 71.0731 18.0153C71.0731 19.6038 70.3908 20.5778 69.2397 20.5778C68.0887 20.5778 67.4064 19.6038 67.4064 18.0153C67.4064 16.4215 68.0887 15.4736 69.2397 15.4736Z" fill="white"/>
<mask id="mask103_120_4052" style="mask-type:luminance" maskUnits="userSpaceOnUse" x="45" y="18" width="19" height="18">
<path d="M45.0103 18.667H63.3332V35.9274H45.0103V18.667Z" fill="white"/>
</mask>
<g mask="url(#mask103_120_4052)">
<path d="M60.453 23.3753C60.4582 23.3545 60.4738 23.3285 60.4738 23.3024V21.167C60.4738 19.8076 55.63 19.6045 52.7394 19.6045C49.854 19.6045 45.0103 19.8076 45.0103 21.167V23.3076C45.0103 23.917 45.9998 24.2972 47.3436 24.5264C47.3436 24.5524 47.328 24.5732 47.328 24.5993V26.7347C47.328 26.9743 47.4842 27.1774 47.7446 27.3441C47.0363 27.5732 46.5832 27.8805 46.5832 28.2972V30.4326C46.5832 30.766 46.8748 31.0316 47.3644 31.2399C47.1873 31.391 47.078 31.5628 47.078 31.7555V33.891C47.078 35.2555 51.9217 35.4587 54.8071 35.4587C57.6925 35.4587 62.5363 35.2555 62.5363 33.891V31.7555C62.5363 31.4222 62.2394 31.1566 61.755 30.9482C61.9321 30.7972 62.0415 30.6253 62.0415 30.4326V28.2972C62.0415 28.0576 61.8853 27.8545 61.6248 27.6826C62.3332 27.4587 62.7915 27.1514 62.7915 26.7347V24.5993C62.7915 23.9847 61.8019 23.6097 60.453 23.3753ZM52.7394 20.5993C56.0571 20.5993 58.1873 20.9066 59.0884 21.167C58.1873 21.4326 56.0571 21.7399 52.7394 21.7399C49.4269 21.7399 47.2967 21.4326 46.3957 21.167C47.2967 20.9066 49.4269 20.5993 52.7394 20.5993ZM52.7394 24.8701C54.7655 24.8701 57.7446 24.766 59.3488 24.2399C60.2915 24.3441 60.9894 24.4743 61.4061 24.5993C60.505 24.8597 58.3748 25.167 55.0571 25.167C52.4321 25.167 50.5623 24.9743 49.4478 24.766C50.5936 24.8441 51.7759 24.8701 52.7394 24.8701ZM61.1561 31.7607C60.255 32.0212 58.1248 32.3337 54.8071 32.3337C51.4946 32.3337 49.3644 32.0212 48.4634 31.7607C48.5832 31.7243 48.729 31.6878 48.8957 31.6514C50.5363 31.9378 52.7186 32.0003 54.3123 32.0003C56.0675 32.0003 58.5467 31.9222 60.2238 31.5524C60.6144 31.6201 60.9217 31.693 61.1561 31.7607ZM60.6561 28.2972C59.755 28.5576 57.63 28.8701 54.3123 28.8701C50.9946 28.8701 48.8644 28.5576 47.9686 28.2972C48.3436 28.1878 48.9478 28.0732 49.755 27.9743C51.3853 28.2399 53.4998 28.2972 55.0571 28.2972C56.3853 28.2972 58.1196 28.2555 59.6144 28.0785C60.0519 28.1514 60.4061 28.2243 60.6561 28.2972Z" fill="white"/>
</g>
<mask id="mask104_120_4052" style="mask-type:luminance" maskUnits="userSpaceOnUse" x="63" y="22" width="19" height="14">
<path d="M63.3335 22.667H81.9533V35.9274H63.3335V22.667Z" fill="white"/>
</mask>
<g mask="url(#mask104_120_4052)">
<path d="M80.0575 27.2298C80.2189 27.084 80.3179 26.9225 80.3179 26.735V24.5996C80.3179 23.2402 75.4741 23.0371 72.5887 23.0371C69.6981 23.0371 64.8595 23.2402 64.8595 24.5996V26.735C64.8595 27.2298 65.5002 27.5684 66.4481 27.8027C66.2814 27.9486 66.1825 28.1152 66.1825 28.2975V30.4329C66.1825 30.4746 66.2033 30.5163 66.2085 30.5527C64.9116 30.7871 63.9741 31.1621 63.9741 31.7611V33.8965C63.9741 35.2559 68.8179 35.459 71.7033 35.459C74.5939 35.459 79.4325 35.2559 79.4325 33.8965V31.7611C79.4325 31.7194 79.4168 31.6829 79.4064 31.6413C80.7033 31.4069 81.646 31.0319 81.646 30.4329V28.2975C81.646 27.8027 81.0054 27.4642 80.0575 27.2298ZM72.5887 24.0267C75.9064 24.0267 78.0366 24.3392 78.9325 24.5996C78.0366 24.86 75.9064 25.1725 72.5887 25.1725C69.271 25.1725 67.146 24.86 66.245 24.5996C67.146 24.334 69.271 24.0267 72.5887 24.0267ZM71.7033 32.334C68.3908 32.334 66.2606 32.0215 65.3595 31.7611C65.7762 31.6413 66.4637 31.5059 67.4012 31.4017C69.0262 31.9017 71.9325 32.0007 73.9116 32.0007C75.0002 32.0007 76.3647 31.9694 77.6408 31.86C76.5835 32.0944 74.5939 32.334 71.7033 32.334ZM73.9116 28.8704C70.5991 28.8704 68.4689 28.5579 67.5679 28.2975C67.771 28.2402 68.047 28.1777 68.3804 28.1152C69.7918 28.2611 71.3647 28.2975 72.5887 28.2975C74.2241 28.2975 76.4793 28.235 78.1356 27.9329C79.1147 28.0371 79.8283 28.1725 80.2606 28.2975C79.3595 28.5579 77.2293 28.8704 73.9116 28.8704Z" fill="white"/>
</g>
<mask id="mask105_120_4052" style="mask-type:luminance" maskUnits="userSpaceOnUse" x="161" y="4" width="20" height="22">
<path d="M161.25 4.83887H180.224V25.3337H161.25V4.83887Z" fill="white"/>
</mask>
<g mask="url(#mask105_120_4052)">
<path d="M170.849 4.84375C165.547 4.84375 161.25 9.14063 161.25 14.4427C161.25 19.7396 165.547 24.0365 170.849 24.0365C176.146 24.0365 180.443 19.7396 180.443 14.4427C180.443 9.14063 176.146 4.84375 170.849 4.84375ZM170.849 20.8542C167.307 20.8542 164.432 17.9844 164.432 14.4427C164.432 10.901 167.307 8.03125 170.849 8.03125C174.391 8.03125 177.26 10.901 177.26 14.4427C177.26 17.9844 174.391 20.8542 170.849 20.8542Z" fill="white"/>
</g>
<mask id="mask106_120_4052" style="mask-type:luminance" maskUnits="userSpaceOnUse" x="168" y="20" width="5" height="13">
<path d="M168.667 20H172.667V32.7969H168.667V20Z" fill="white"/>
</mask>
<g mask="url(#mask106_120_4052)">
<path d="M170.192 20.8545H171.5C171.76 20.8545 171.979 20.943 172.161 21.1253C172.343 21.3128 172.437 21.5316 172.437 21.792V31.8285C172.437 32.0837 172.343 32.3076 172.161 32.4899C171.979 32.6722 171.76 32.7607 171.5 32.7607H170.192C169.932 32.7607 169.713 32.6722 169.526 32.4899C169.343 32.3076 169.255 32.0837 169.255 31.8285V21.792C169.255 21.5316 169.343 21.3128 169.526 21.1253C169.713 20.943 169.932 20.8545 170.192 20.8545Z" fill="white"/>
</g>
<path d="M175.844 27.4639V28.7764C175.844 29.0316 175.755 29.2555 175.573 29.4378C175.391 29.6201 175.167 29.7087 174.911 29.7087H166.906C166.651 29.7087 166.427 29.6201 166.245 29.4378C166.062 29.2555 165.969 29.0316 165.969 28.7764V27.4639C165.969 27.2035 166.062 26.9847 166.245 26.8024C166.427 26.6201 166.651 26.5264 166.906 26.5264H174.911C175.167 26.5264 175.391 26.6201 175.573 26.8024C175.755 26.9847 175.844 27.2035 175.844 27.4639Z" fill="white"/>
<mask id="mask107_120_4052" style="mask-type:luminance" maskUnits="userSpaceOnUse" x="106" y="0" width="21" height="21">
<path d="M106.479 0.0419922H126.557V20.042H106.479V0.0419922Z" fill="white"/>
</mask>
<g mask="url(#mask107_120_4052)">
<mask id="mask108_120_4052" style="mask-type:luminance" maskUnits="userSpaceOnUse" x="106" y="0" width="21" height="21">
<path d="M107.349 3.30246C105.615 6.34412 106.87 9.30246 108.302 10.8754L116.661 20.042L124.849 10.9066C126.177 9.21912 126.719 7.42225 126.406 5.42746C126.016 2.66704 124.021 0.526416 121.562 0.219124C120.052 0.0316253 118.599 0.521207 117.458 1.59933C117.151 1.891 116.88 2.21912 116.641 2.56808C116.359 2.16704 116.026 1.79725 115.651 1.47433C114.344 0.338915 112.677 -0.114211 111.078 0.239957C109.562 0.573291 108.203 1.68787 107.349 3.30246Z" fill="white"/>
</mask>
<g mask="url(#mask108_120_4052)">
<path d="M106.557 0.120117H126.479V20.042H106.557V0.120117Z" fill="white"/>
</g>
</g>
<mask id="mask109_120_4052" style="mask-type:luminance" maskUnits="userSpaceOnUse" x="79" y="0" width="22" height="22">
<path d="M79.3335 0H100.667V21.3333H79.3335V0Z" fill="white"/>
</mask>
<g mask="url(#mask109_120_4052)">
<mask id="mask110_120_4052" style="mask-type:luminance" maskUnits="userSpaceOnUse" x="76" y="-4" width="29" height="29">
<path d="M85.3231 -3.10938L104.292 5.82812L95.3491 24.7969L76.3804 15.8542L85.3231 -3.10938Z" fill="white"/>
</mask>
<g mask="url(#mask110_120_4052)">
<mask id="mask111_120_4052" style="mask-type:luminance" maskUnits="userSpaceOnUse" x="76" y="-4" width="29" height="29">
<path d="M85.3231 -3.10938L104.292 5.82812L95.3491 24.7969L76.3804 15.8542L85.3231 -3.10938Z" fill="white"/>
</mask>
<g mask="url(#mask111_120_4052)">
<path d="M100.047 15.5989C99.6826 16.3802 98.7503 16.7135 97.9742 16.3437L91.6305 13.3541C91.3701 13.2343 91.0628 13.3437 90.9378 13.6041L87.9482 19.9479C87.5836 20.7239 86.6513 21.0573 85.8753 20.6927C85.0992 20.3281 84.7659 19.3958 85.1305 18.6198L88.1201 12.276C88.2399 12.0156 88.1305 11.7083 87.8701 11.5833L81.5263 8.59371C80.7503 8.22913 80.417 7.29684 80.7815 6.5208C81.1513 5.74475 82.0784 5.41142 82.8545 5.776L89.1982 8.76559C89.4586 8.88538 89.7711 8.776 89.8909 8.51559L92.8805 2.17184C93.2451 1.3958 94.1774 1.06246 94.9534 1.42705C95.7347 1.79684 96.068 2.72392 95.6982 3.49996L92.7086 9.84371C92.5888 10.1041 92.6982 10.4166 92.9586 10.5364L99.3024 13.526C100.078 13.8906 100.412 14.8229 100.047 15.5989Z" fill="white"/>
</g>
</g>
</g>
</svg>
