<svg width="39" height="39" viewBox="0 0 39 39" fill="none" xmlns="http://www.w3.org/2000/svg">
<path d="M37.8229 33.5625L31.6042 27.3594C31.1146 26.8906 30.2865 26.8906 29.7969 27.3594L29.0312 28.125L26.7552 25.849C31.9948 19.9583 31.8177 10.9115 26.1875 5.28125C20.3385 -0.567708 10.8177 -0.567708 4.96875 5.28125C2.14583 8.10417 0.59375 11.875 0.59375 15.8802C0.59375 19.8802 2.14583 23.651 4.98958 26.474C7.91146 29.401 11.7604 30.8542 15.5885 30.8542C19.2969 30.8542 23.0052 29.4792 25.8906 26.75L28.151 29.0104L27.3854 29.776C27.1458 30.0104 27.0104 30.3438 27.0104 30.6771C27.0104 31.0104 27.1458 31.3437 27.3854 31.5781L33.5833 37.7812C33.8229 38.0156 34.1563 38.1562 34.4896 38.1562C34.8229 38.1562 35.1563 38.0156 35.3906 37.7812L37.8438 35.3281C38.3333 34.8594 38.3333 34.0521 37.8229 33.5625ZM5.89062 25.5729C3.30208 22.9844 1.86979 19.5469 1.86979 15.8802C1.86979 12.2083 3.30208 8.75521 5.89062 6.16146C8.5625 3.49479 12.0729 2.15625 15.5885 2.15625C19.099 2.15625 22.6146 3.49479 25.2812 6.16146C30.6406 11.5208 30.6406 20.2135 25.2812 25.5729C19.9427 30.9323 11.2292 30.9323 5.89062 25.5729ZM34.4896 36.8958L28.2656 30.6979L30.7188 28.2448L36.9427 34.4635L34.4896 36.8958Z" fill="white"/>
</svg>
