<svg width="7" height="12" viewBox="0 0 7 12" fill="none" xmlns="http://www.w3.org/2000/svg">
<path d="M2.93781 3.65699L4.39614 3.88616C4.76593 3.94345 5.02114 4.2872 4.95864 4.6622C4.89614 5.08928 5.1826 5.48511 5.60968 5.55282C6.03676 5.62053 6.4326 5.32886 6.50031 4.90178C6.68781 3.69866 5.87531 2.56845 4.67739 2.36011L4.82322 1.42261C4.89093 1.00074 4.59926 0.599697 4.17739 0.531989C3.75031 0.469488 3.34926 0.755947 3.28676 1.18303L3.13572 2.11532C1.93781 1.94866 0.812806 2.77678 0.625306 3.97991C0.432598 5.19866 1.26593 6.34449 2.48468 6.5372L3.94301 6.76636C4.31281 6.82366 4.56801 7.17261 4.51072 7.54241C4.44822 7.9122 4.10447 8.1622 3.73468 8.10491L2.27635 7.87574C1.90656 7.81845 1.65135 7.4747 1.70864 7.0997C1.77635 6.67782 1.48468 6.27678 1.06281 6.20907C0.635722 6.14657 0.23989 6.43303 0.172181 6.86011C-0.0205274 8.06845 0.79718 9.19866 1.9951 9.40699L1.84406 10.3393C1.78156 10.7664 2.06801 11.1622 2.4951 11.2299C2.92218 11.2976 3.31801 11.0059 3.38572 10.5841L3.53156 9.64657C4.73468 9.81324 5.85968 8.99032 6.04718 7.78199C6.23989 6.56324 5.40656 5.41741 4.18781 5.2247L2.72426 4.99553C2.35968 4.93824 2.10447 4.58928 2.16176 4.2247C2.21905 3.8497 2.56801 3.59449 2.93781 3.65699Z" fill="white"/>
</svg>
