<svg width="14" height="22" viewBox="0 0 14 22" fill="none" xmlns="http://www.w3.org/2000/svg">
<path d="M6.78174 6.50553C7.22445 4.67741 9.85465 4.99512 12.2661 7.27116L13.839 4.97428C12.9588 4.12012 12.2453 3.55762 10.8547 3.08887L11.4484 0.635742C10.563 0.729493 9.69841 0.812826 8.75049 0.880534L8.32341 2.64095C6.02132 2.62012 4.16715 3.89095 3.64111 6.05241C3.03174 8.55762 4.68799 10.2347 6.80778 11.7243C11.2765 14.9378 6.81299 18.5785 2.40153 13.7868L0.859863 16.141C1.66716 17.0732 2.65153 17.8597 4.3182 18.4066L3.71924 20.8649L6.24007 21.4743L6.87028 18.8805C11.0994 18.9118 12.8755 14.8285 11.4276 12.0785C9.99007 9.33887 6.28695 8.55762 6.78174 6.50553Z" fill="white"/>
</svg>
