<svg width="21" height="20" viewBox="0 0 21 20" fill="none" xmlns="http://www.w3.org/2000/svg">
<path d="M20.0472 14.5989C19.6826 15.3802 18.7503 15.7135 17.9742 15.3437L11.6305 12.3541C11.3701 12.2343 11.0628 12.3437 10.9378 12.6041L7.9482 18.9479C7.58362 19.7239 6.65133 20.0573 5.87529 19.6927C5.09925 19.3281 4.76591 18.3958 5.1305 17.6198L8.12008 11.276C8.23987 11.0156 8.1305 10.7083 7.87008 10.5833L1.52633 7.59371C0.750289 7.22913 0.416954 6.29684 0.781538 5.5208C1.15133 4.74475 2.07841 4.41142 2.85445 4.776L9.1982 7.76559C9.45862 7.88538 9.77112 7.776 9.89091 7.51559L12.8805 1.17184C13.2451 0.395796 14.1774 0.0624628 14.9534 0.427045C15.7347 0.796837 16.068 1.72392 15.6982 2.49996L12.7086 8.84371C12.5888 9.10413 12.6982 9.41663 12.9586 9.53642L19.3024 12.526C20.0784 12.8906 20.4117 13.8229 20.0472 14.5989Z" fill="white"/>
</svg>
