<svg width="9" height="17" viewBox="0 0 9 17" fill="none" xmlns="http://www.w3.org/2000/svg">
<path d="M6.66157 3.66632L5.02615 14.0778C4.91157 14.7913 4.25011 15.2757 3.53657 15.1663C2.82823 15.0517 2.34386 14.3851 2.45323 13.6767L4.08865 3.26528C4.20324 2.55695 4.8699 2.06736 5.57824 2.18195C6.28657 2.29132 6.77094 2.95799 6.66157 3.66632ZM2.55219 3.02049L0.916776 13.4319C0.671984 14.9944 1.73969 16.458 3.29698 16.7028C4.85428 16.9476 6.31782 15.8799 6.56261 14.3226L8.19803 3.91111C8.44282 2.35382 7.37511 0.88507 5.81782 0.640279C4.26053 0.395487 2.79178 1.4684 2.55219 3.02049Z" fill="white"/>
</svg>
