<svg width="27" height="27" viewBox="0 0 27 27" fill="none" xmlns="http://www.w3.org/2000/svg">
<path d="M22.7918 4.67188C17.7085 -0.411458 9.44808 -0.411458 4.38037 4.67188C-0.702962 9.75521 -0.702962 18.0208 4.38037 23.0833C6.8387 25.5365 10.1147 26.8906 13.5887 26.8906C17.0627 26.8906 20.3387 25.5365 22.7918 23.0833C25.245 20.6302 26.5991 17.3542 26.5991 13.8802C26.5991 10.3854 25.245 7.125 22.7918 4.67188ZM21.8908 22.1823C19.672 24.3958 16.7293 25.6146 13.5887 25.6146C10.4481 25.6146 7.50537 24.3958 5.28662 22.1823C0.713704 17.6094 0.713704 10.151 5.28662 5.55729C9.85954 0.984375 17.3179 0.984375 21.9116 5.55729C24.1252 7.77604 25.3439 10.7187 25.3439 13.8594C25.3231 17.0208 24.1095 19.9635 21.8908 22.1823Z" fill="white"/>
</svg>
