<svg width="17" height="16" viewBox="0 0 17 16" fill="none" xmlns="http://www.w3.org/2000/svg">
<path d="M3.40641 15.0203C3.521 15.114 3.646 15.1661 3.78141 15.1869C4.04183 15.2286 4.32308 15.1348 4.50537 14.9161C4.77621 14.5828 4.72933 14.0932 4.396 13.8171C2.66162 12.3901 1.80225 10.1244 2.15121 7.91089C2.69287 4.44214 5.95329 2.06714 9.41683 2.6088C12.8856 3.15568 15.2606 6.4161 14.7189 9.88484C14.6043 10.5932 14.3804 11.2703 14.047 11.8953C13.8439 12.2703 13.9897 12.7442 14.37 12.9473C14.7502 13.1505 15.2241 13.0046 15.4272 12.6244C15.8387 11.8484 16.12 11.0046 16.2554 10.1244C16.9325 5.81193 13.9793 1.74943 9.66162 1.07234C5.34912 0.390052 1.28662 3.35359 0.60954 7.66609C0.177248 10.4265 1.25016 13.2442 3.40641 15.0203Z" fill="white"/>
</svg>
