<svg width="29" height="28" viewBox="0 0 29 28" fill="none" xmlns="http://www.w3.org/2000/svg">
<path d="M28.0158 11.1615L26.0158 10.8333C25.7814 10.0365 25.4637 9.27604 25.0679 8.54688L26.245 6.90104C26.3595 6.73438 26.4116 6.55208 26.396 6.35417C26.3804 6.15104 26.297 5.97917 26.1564 5.83854L23.0522 2.73438C22.9116 2.59375 22.7397 2.51563 22.5366 2.5C22.3387 2.47917 22.1564 2.53125 21.995 2.64583L20.3491 3.82292C19.62 3.42708 18.8543 3.10937 18.0575 2.875L17.7293 0.875C17.6981 0.677083 17.6043 0.515626 17.4481 0.385417C17.297 0.255209 17.12 0.1875 16.9168 0.1875H12.521C12.3179 0.1875 12.1408 0.255209 11.9897 0.385417C11.8335 0.515626 11.7397 0.677083 11.7085 0.875L11.3804 2.875C10.5835 3.10937 9.81787 3.42708 9.08871 3.82292L7.44287 2.64583C7.28141 2.53125 7.09912 2.47917 6.896 2.5C6.69808 2.51563 6.5262 2.59375 6.38558 2.73438L3.271 5.83333C3.13037 5.97396 3.05225 6.14583 3.03662 6.34375C3.01579 6.54688 3.06787 6.72917 3.18245 6.89062L4.35954 8.53646C3.9637 9.26563 3.646 10.0313 3.41162 10.8281L1.41162 11.1562C1.2137 11.1875 1.05225 11.2813 0.922038 11.4375C0.79183 11.5885 0.724121 11.7656 0.724121 11.9688V16.3542C0.724121 16.5573 0.79183 16.7344 0.922038 16.8854C1.05225 17.0417 1.2137 17.1354 1.41162 17.1667L3.41162 17.4948C3.646 18.2917 3.9637 19.0573 4.35954 19.7865L3.18245 21.4323C3.06787 21.5938 3.01579 21.776 3.03662 21.9792C3.05225 22.1771 3.13037 22.349 3.271 22.4896L6.37516 25.5938C6.51579 25.7396 6.68766 25.8177 6.89079 25.8333C7.0887 25.849 7.271 25.8021 7.43766 25.6823L9.0835 24.5052C9.81266 24.901 10.5731 25.2187 11.37 25.4531L11.6981 27.4531C11.7345 27.651 11.8283 27.8177 11.9793 27.9479C12.1356 28.0781 12.3127 28.1406 12.5106 28.1406H16.9012C17.0991 28.1406 17.2762 28.0781 17.4325 27.9479C17.5887 27.8177 17.6772 27.651 17.7137 27.4531L18.0418 25.4531C18.8387 25.2187 19.5991 24.901 20.3335 24.5052L21.9741 25.6823C22.1408 25.8021 22.3231 25.849 22.521 25.8333C22.7241 25.8177 22.896 25.7396 23.0366 25.5938L26.1408 22.4896C26.2814 22.349 26.3595 22.1771 26.3804 21.9792C26.396 21.776 26.3439 21.5938 26.2293 21.4323L25.0522 19.7865C25.4481 19.0573 25.7658 18.2917 26.0002 17.4948L28.0002 17.1667C28.1981 17.1354 28.3595 17.0417 28.4897 16.8854C28.62 16.7344 28.6877 16.5573 28.6877 16.3542V11.974C28.6877 11.776 28.6252 11.599 28.5002 11.4479C28.37 11.2969 28.2085 11.1979 28.0158 11.1615ZM27.0575 15.6667L25.2241 15.974C24.87 16.0365 24.6512 16.2396 24.5679 16.5885C24.3231 17.5938 23.9325 18.5365 23.396 19.4219C23.2033 19.7292 23.2189 20.0313 23.4272 20.3229L24.5054 21.8385L22.3856 23.9583L20.87 22.875C20.5731 22.6667 20.271 22.6563 19.9637 22.8438C19.0783 23.3802 18.1356 23.7708 17.1356 24.0156C16.7866 24.099 16.5783 24.3177 16.5158 24.6719L16.2137 26.5104H13.2189L12.9064 24.6771C12.8439 24.3229 12.6356 24.1042 12.2866 24.0208C11.2866 23.776 10.3387 23.3854 9.4585 22.849C9.1512 22.6615 8.84912 22.6719 8.55225 22.8802L7.03662 23.9635L4.92725 21.8385L6.01058 20.3229C6.21891 20.0313 6.22933 19.7292 6.04183 19.4219C5.50537 18.5365 5.11475 17.5938 4.86995 16.5885C4.78662 16.2396 4.56266 16.0365 4.2137 15.974L2.36995 15.6667V12.6719L4.20329 12.3594C4.55745 12.2969 4.7762 12.0937 4.86475 11.7448C5.10954 10.7396 5.50016 9.79688 6.03662 8.91146C6.22412 8.60417 6.2137 8.30208 6.00016 8.01042L4.92204 6.49479L7.04704 4.38021L8.55745 5.46354C8.85433 5.67188 9.15641 5.68229 9.46371 5.49479C10.3491 4.95833 11.2918 4.56771 12.297 4.32292C12.646 4.23958 12.8491 4.02083 12.9116 3.66667L13.2189 1.82812H16.2137L16.5158 3.66146C16.5783 4.01563 16.7866 4.23438 17.1356 4.31771C18.1356 4.5625 19.0783 4.95312 19.9637 5.48958C20.271 5.67708 20.5731 5.66667 20.87 5.45833L22.3856 4.375L24.5002 6.49479L23.422 8.01042C23.2085 8.30208 23.1981 8.60417 23.3856 8.91146C23.922 9.79688 24.3127 10.7396 24.5575 11.7448C24.646 12.0937 24.8647 12.2969 25.2189 12.3594L27.0522 12.6667L27.0575 15.6667Z" fill="white"/>
</svg>
