<svg width="28" height="28" viewBox="0 0 28 28" fill="none" xmlns="http://www.w3.org/2000/svg">
<path d="M13.9793 0.46875C6.53141 0.46875 0.474121 6.52604 0.474121 13.974C0.474121 21.4219 6.53141 27.4792 13.9793 27.4792C21.4272 27.4792 27.4845 21.4219 27.4845 13.974C27.4845 13.3646 26.9897 12.8698 26.3804 12.8698C25.771 12.8698 25.2762 13.3646 25.2762 13.974C25.2762 20.2031 20.2085 25.276 13.9793 25.276C7.74496 25.276 2.67725 20.2031 2.67725 13.974C2.67725 7.74479 7.74496 2.67188 13.9793 2.67188C14.5887 2.67188 15.0783 2.18229 15.0783 1.57292C15.0783 0.963541 14.5887 0.46875 13.9793 0.46875Z" fill="white"/>
</svg>
