<svg width="16" height="16" viewBox="0 0 16 16" fill="none" xmlns="http://www.w3.org/2000/svg">
<path d="M7.97933 2.33333C8.5887 2.33333 9.07829 1.83854 9.07829 1.22917C9.07829 0.619792 8.5887 0.125 7.97933 0.125C3.6512 0.125 0.130371 3.64583 0.130371 7.97396C0.130371 12.3021 3.6512 15.8229 7.97933 15.8229C12.3075 15.8229 15.8231 12.3021 15.8231 7.97396C15.8231 7.36458 15.3283 6.86979 14.7241 6.86979C14.1147 6.86979 13.62 7.36458 13.62 7.97396C13.62 11.0833 11.0887 13.6146 7.97933 13.6146C4.86475 13.6146 2.3335 11.0833 2.3335 7.97396C2.3335 4.86458 4.86475 2.33333 7.97933 2.33333Z" fill="white"/>
</svg>
