<svg width="10" height="10" viewBox="0 0 10 10" fill="none" xmlns="http://www.w3.org/2000/svg">
<path d="M3.3387 9.33822C4.42204 9.17676 5.84391 9.07259 7.68766 9.04655C8.87516 8.27051 9.56787 6.86947 9.56787 5.0153C9.56787 2.1403 7.89079 0.333008 5.23975 0.333008C2.5887 0.333008 0.911621 2.1403 0.911621 5.0153C0.911621 7.13509 1.81266 8.66634 3.3387 9.33822ZM5.23975 2.47363C6.39079 2.47363 7.07308 3.42155 7.07308 5.0153C7.07308 6.60384 6.39079 7.5778 5.23975 7.5778C4.0887 7.5778 3.40641 6.60384 3.40641 5.0153C3.40641 3.42155 4.0887 2.47363 5.23975 2.47363Z" fill="white"/>
</svg>
