<svg width="17" height="24" viewBox="0 0 17 24" fill="none" xmlns="http://www.w3.org/2000/svg">
<path fill-rule="evenodd" clip-rule="evenodd" d="M2.146 6.6097C2.146 2.96387 5.09912 0.0107422 8.74496 0.0107422C12.3908 0.0107422 15.3439 2.96387 15.3439 6.6097C15.3439 7.76074 15.047 8.84407 14.5314 9.78678C15.9429 11.2399 16.8127 13.2243 16.8127 15.4066C16.8127 19.8649 13.1981 23.4743 8.74496 23.4743C4.29183 23.4743 0.677246 19.8649 0.677246 15.4066C0.677246 13.2243 1.54704 11.2399 2.9585 9.78678C2.44287 8.84407 2.146 7.76074 2.146 6.6097ZM8.74496 4.41178C7.53141 4.41178 6.54704 5.39616 6.54704 6.6097C6.54704 7.82324 7.53141 8.80762 8.74496 8.80762C9.9585 8.80762 10.9429 7.82324 10.9429 6.6097C10.9429 5.39616 9.9585 4.41178 8.74496 4.41178ZM8.74496 11.7399C6.71891 11.7399 5.07829 13.3857 5.07829 15.4066C5.07829 17.4326 6.71891 19.0732 8.74496 19.0732C10.771 19.0732 12.4116 17.4326 12.4116 15.4066C12.4116 13.3857 10.771 11.7451 8.75016 11.7399H8.74496Z" fill="white"/>
</svg>
