<svg width="20" height="9" viewBox="0 0 20 9" fill="none" xmlns="http://www.w3.org/2000/svg">
<path fill-rule="evenodd" clip-rule="evenodd" d="M15.651 8.18262H4.3125C2.07813 8.18262 0.265625 6.36491 0.265625 4.13574C0.265625 1.90137 2.07813 0.0888672 4.3125 0.0888672C5.02083 0.0888672 5.59896 0.661784 5.59896 1.37533C5.59896 2.08366 5.02083 2.66178 4.3125 2.66178C3.5 2.66178 2.83854 3.32324 2.83854 4.13574C2.83854 4.94824 3.5 5.6097 4.3125 5.6097H15.651C16.4635 5.6097 17.125 4.94824 17.125 4.13574C17.125 3.32324 16.4635 2.66178 15.651 2.66178C14.9427 2.66178 14.3646 2.08366 14.3646 1.37533C14.3646 0.661784 14.9427 0.0888672 15.651 0.0888672C17.8854 0.0888672 19.7031 1.90137 19.7031 4.13574C19.7031 6.36491 17.8854 8.18262 15.651 8.18262Z" fill="white"/>
</svg>
