<svg width="8" height="17" viewBox="0 0 8 17" fill="none" xmlns="http://www.w3.org/2000/svg">
<path d="M5.96333 3.3587L4.32791 13.7702C4.21333 14.4785 3.54666 14.9681 2.83833 14.8535C2.12479 14.7441 1.64562 14.0775 1.755 13.3691L3.39041 2.95766C3.505 2.24412 4.16645 1.75974 4.87479 1.86912C5.58833 1.9837 6.07271 2.65037 5.96333 3.3587ZM1.85396 2.71287L0.218538 13.1243C-0.0262524 14.6868 1.04146 16.1504 2.59354 16.3952C4.15604 16.64 5.61958 15.5722 5.86437 14.015L7.49979 3.60349C7.74458 2.0462 6.67687 0.577454 5.11958 0.332662C3.56229 0.0878697 2.09354 1.16079 1.85396 2.71287Z" fill="white"/>
</svg>
