<svg width="40" height="48" viewBox="0 0 40 48" fill="none" xmlns="http://www.w3.org/2000/svg">
<path fill-rule="evenodd" clip-rule="evenodd" d="M28.1613 47.292C28.0103 47.292 27.854 47.266 27.703 47.2087C27.0415 46.9535 26.7082 46.2087 26.9582 45.5472C27.0363 45.3493 26.9946 45.0785 26.9113 44.5837C26.8384 44.1566 26.7498 43.6253 26.7498 42.9847C26.7498 37.141 29.4373 34.2243 32.0467 31.4066C34.6457 28.5941 37.0988 25.9378 37.0988 20.1045C37.0988 10.6618 29.4217 2.9847 19.9842 2.9847C10.5415 2.9847 2.86442 10.6618 2.86442 20.1045C2.86442 25.9378 5.31755 28.5941 7.92171 31.4066C10.5259 34.2243 13.2186 37.1357 13.2186 42.9847C13.2186 43.6253 13.1248 44.1566 13.0519 44.5837C12.9686 45.0785 12.9269 45.3493 13.005 45.5472C13.2603 46.2087 12.9269 46.9535 12.2603 47.2087C11.5988 47.4639 10.854 47.1305 10.5988 46.4639C10.2707 45.6045 10.4009 44.8337 10.5155 44.1514C10.5832 43.766 10.6457 43.4066 10.6457 42.9847C10.6457 38.1462 8.50504 35.8337 6.03109 33.1566C3.33838 30.2451 0.291504 26.9482 0.291504 20.1045C0.291504 9.25033 9.12484 0.416992 19.9842 0.416992C30.8384 0.416992 39.6717 9.25033 39.6717 20.1045C39.6717 26.9482 36.6248 30.2503 33.9321 33.1618C31.4582 35.8389 29.3228 38.1514 29.3228 42.9847C29.3228 43.4118 29.38 43.7712 29.4478 44.1514C29.5623 44.8337 29.6925 45.6045 29.3644 46.4691C29.1665 46.9795 28.6769 47.292 28.1613 47.292Z" fill="white"/>
</svg>
