<svg width="20" height="20" viewBox="0 0 20 20" fill="none" xmlns="http://www.w3.org/2000/svg">
<path d="M7.53153 19.1875C8.17736 19.3854 8.84924 19.375 9.46382 19.1615C9.93778 19 10.3701 18.7292 10.7294 18.3542L12.719 16.2448L15.5836 16.6979C16.7607 16.8802 17.9274 16.3906 18.6149 15.4063C19.3076 14.4271 19.3805 13.1667 18.8076 12.1146L17.4222 9.57292L18.7347 6.98959C19.2763 5.92188 19.1617 4.66147 18.4482 3.70313C17.7294 2.73959 16.5524 2.28647 15.3753 2.50522L12.5211 3.03126L10.4742 0.989591C9.62528 0.14584 8.39611 -0.140618 7.2659 0.244799C6.12528 0.630215 5.3284 1.61459 5.17215 2.79688L4.79715 5.66667L2.21903 6.98959C1.14611 7.53647 0.500277 8.61459 0.515902 9.81772C0.536736 11.0156 1.21903 12.0781 2.29715 12.5938L4.91694 13.8385L5.37007 16.6979C5.55757 17.8802 6.38569 18.8333 7.53153 19.1875ZM6.21382 8.44792C7.13569 7.97917 7.76069 7.09897 7.89611 6.07813L8.26069 3.19792L10.3232 5.2448C11.0524 5.97397 12.0836 6.29167 13.0992 6.10417L15.9482 5.57813L14.6357 8.15626C14.1722 9.07292 14.1878 10.1667 14.6774 11.0625L16.0628 13.6094L13.2034 13.1563C12.6878 13.0833 12.1826 13.125 11.7086 13.2865C11.2399 13.4479 10.8024 13.7292 10.4534 14.099L8.4534 16.2031L7.99507 13.3385C7.83361 12.3281 7.18257 11.4531 6.25549 11.0104L3.64611 9.77084L6.21382 8.44792Z" fill="white"/>
</svg>
