<svg width="40" height="40" viewBox="0 0 40 40" fill="none" xmlns="http://www.w3.org/2000/svg">
<path d="M38.526 18.8691C37.9167 18.8691 37.4219 19.3639 37.4219 19.9733C37.4219 29.5931 29.5938 37.416 19.9792 37.416C10.3594 37.416 2.53646 29.5931 2.53646 19.9733C2.53646 10.3535 10.3594 2.5306 19.9792 2.5306C20.5885 2.5306 21.0781 2.03581 21.0781 1.42643C21.0781 0.817058 20.5885 0.322266 19.9792 0.322266C9.14583 0.322266 0.328125 9.13997 0.328125 19.9733C0.328125 30.8066 9.14583 39.6244 19.9792 39.6244C30.8125 39.6244 39.625 30.8066 39.625 19.9733C39.625 19.3639 39.1354 18.8691 38.526 18.8691Z" fill="white"/>
</svg>
