<svg width="24" height="24" viewBox="0 0 24 24" fill="none" xmlns="http://www.w3.org/2000/svg">
<path d="M16.3228 12.4012L13.854 11.8127L17.4269 8.23976L19.8957 8.8283L16.3228 12.4012ZM11.703 7.78664L15.2759 4.20851L15.8384 6.55226L12.2655 10.1304L11.703 7.78664ZM23.13 7.91164C23.0207 7.53143 22.7134 7.23455 22.3228 7.1408L17.9998 6.10434L16.9634 1.78143C16.8748 1.3908 16.578 1.08351 16.1925 0.974135C15.8071 0.869969 15.3957 0.974136 15.1144 1.25539L9.70817 6.66164C9.43734 6.93247 9.32275 7.32309 9.4165 7.69809L10.4321 11.9585L1.19775 21.1929C0.765462 21.6252 0.765462 22.3231 1.19775 22.7554C1.4113 22.9689 1.69255 23.0783 1.979 23.0783C2.26025 23.0783 2.5415 22.9689 2.75505 22.7554L11.9009 13.6148L16.4061 14.6929C16.4946 14.7085 16.578 14.7189 16.6613 14.7189C16.953 14.7189 17.2342 14.6043 17.4425 14.396L22.8488 8.99497C23.13 8.70851 23.2394 8.29705 23.13 7.91164Z" fill="white"/>
</svg>
