<svg width="19" height="13" viewBox="0 0 19 13" fill="none" xmlns="http://www.w3.org/2000/svg">
<path d="M17.0575 4.22982C17.2189 4.08398 17.3179 3.92253 17.3179 3.73503V1.59961C17.3179 0.240235 12.4741 0.0371094 9.58871 0.0371094C6.69808 0.0371094 1.85954 0.240235 1.85954 1.59961V3.73503C1.85954 4.22982 2.50016 4.56836 3.44808 4.80273C3.28141 4.94857 3.18245 5.11524 3.18245 5.29753V7.43294C3.18245 7.47461 3.20329 7.51628 3.2085 7.55273C1.91162 7.78711 0.974121 8.16211 0.974121 8.76107V10.8965C0.974121 12.2559 5.81787 12.459 8.70329 12.459C11.5939 12.459 16.4325 12.2559 16.4325 10.8965V8.76107C16.4325 8.7194 16.4168 8.68294 16.4064 8.64128C17.7033 8.4069 18.646 8.0319 18.646 7.43294V5.29753C18.646 4.80273 18.0054 4.46419 17.0575 4.22982ZM9.58871 1.02669C12.9064 1.02669 15.0366 1.33919 15.9325 1.59961C15.0366 1.86003 12.9064 2.17253 9.58871 2.17253C6.271 2.17253 4.146 1.86003 3.24495 1.59961C4.146 1.33398 6.271 1.02669 9.58871 1.02669ZM8.70329 9.33398C5.39079 9.33398 3.26058 9.02149 2.35954 8.76107C2.7762 8.64128 3.4637 8.50586 4.4012 8.40169C6.0262 8.90169 8.93245 9.00065 10.9116 9.00065C12.0002 9.00065 13.3647 8.9694 14.6408 8.86003C13.5835 9.0944 11.5939 9.33398 8.70329 9.33398ZM10.9116 5.87044C7.59912 5.87044 5.46891 5.55794 4.56787 5.29753C4.771 5.24024 5.04704 5.17773 5.38037 5.11523C6.79183 5.26107 8.36475 5.29753 9.58871 5.29753C11.2241 5.29753 13.4793 5.23503 15.1356 4.93294C16.1147 5.03711 16.8283 5.17253 17.2606 5.29753C16.3595 5.55794 14.2293 5.87044 10.9116 5.87044Z" fill="white"/>
</svg>
