<svg width="16" height="16" viewBox="0 0 16 16" fill="none" xmlns="http://www.w3.org/2000/svg">
<path d="M7.71338 0.765625C7.229 0.765625 6.74463 0.812499 6.27067 0.90625C5.7915 0.999999 5.32796 1.14062 4.88005 1.32812C4.43213 1.51562 4.00504 1.73958 3.5988 2.01042C3.19775 2.28125 2.82275 2.58854 2.479 2.93229C2.13525 3.27604 1.82796 3.65104 1.55713 4.05729C1.2863 4.45833 1.05713 4.88542 0.869629 5.33333C0.687337 5.78646 0.546712 6.25 0.452962 6.72396C0.354004 7.20313 0.307129 7.68229 0.307129 8.17188C0.307129 8.65625 0.354004 9.13542 0.452962 9.61458C0.546712 10.0937 0.687337 10.5521 0.869629 11.0052C1.05713 11.4531 1.2863 11.8802 1.55713 12.2865C1.82796 12.6875 2.13525 13.0625 2.479 13.4062C2.82275 13.75 3.19775 14.0573 3.5988 14.3281C4.00504 14.599 4.43213 14.8229 4.88005 15.0104C5.32796 15.1979 5.7915 15.3385 6.27067 15.4323C6.74463 15.526 7.229 15.5729 7.71338 15.5729C8.19775 15.5729 8.68213 15.526 9.1613 15.4323C9.63525 15.3385 10.0988 15.1979 10.5467 15.0104C10.9946 14.8229 11.4217 14.599 11.828 14.3281C12.2342 14.0573 12.6092 13.75 12.953 13.4062C13.2967 13.0625 13.5988 12.6875 13.8696 12.2865C14.1405 11.8802 14.3696 11.4531 14.5571 11.0052C14.7394 10.5521 14.88 10.0937 14.979 9.61458C15.0728 9.13542 15.1196 8.65625 15.1196 8.17188C15.1196 7.68229 15.0728 7.20313 14.9738 6.72396C14.88 6.25 14.7394 5.78646 14.5519 5.33854C14.3696 4.88542 14.1405 4.46354 13.8696 4.05729C13.5988 3.65104 13.2915 3.28125 12.9478 2.9375C12.604 2.59375 12.229 2.28646 11.828 2.01562C11.4217 1.74479 10.9946 1.51562 10.5467 1.32812C10.0988 1.14583 9.63525 1.00521 9.15609 0.90625C8.68213 0.812499 8.19775 0.765625 7.71338 0.765625ZM7.71338 13.9271C7.33838 13.9271 6.96338 13.8906 6.58838 13.8177C6.21859 13.7448 5.85921 13.6354 5.51025 13.4896C5.1613 13.349 4.82796 13.1667 4.51546 12.9583C4.19775 12.75 3.90609 12.5104 3.64046 12.2448C3.37484 11.974 3.13525 11.6823 2.92692 11.3698C2.71338 11.0573 2.5363 10.724 2.39046 10.375C2.24984 10.026 2.14046 9.66667 2.06234 9.29167C1.98942 8.92188 1.95296 8.54688 1.95296 8.17188C1.95296 7.79167 1.98942 7.41667 2.06234 7.04688C2.14046 6.67708 2.24984 6.3125 2.39046 5.96354C2.5363 5.61458 2.71338 5.28646 2.92692 4.96875C3.13525 4.65625 3.37484 4.36458 3.64046 4.09896C3.90609 3.82813 4.19775 3.58854 4.51546 3.38021C4.82796 3.17188 5.1613 2.99479 5.51025 2.84896C5.85921 2.70313 6.21859 2.59375 6.58838 2.52083C6.96338 2.44792 7.33838 2.41146 7.71338 2.41146C8.09359 2.41146 8.46859 2.44792 8.83838 2.52083C9.20817 2.59375 9.56755 2.70313 9.9165 2.84896C10.2655 2.99479 10.5988 3.17188 10.9165 3.38021C11.229 3.58854 11.5207 3.82813 11.7863 4.09896C12.0519 4.36458 12.2915 4.65625 12.505 4.96875C12.7134 5.28646 12.8905 5.61458 13.0363 5.96354C13.1821 6.3125 13.2915 6.67708 13.3644 7.04688C13.4373 7.41667 13.4738 7.79167 13.4738 8.17188C13.4738 8.54688 13.4373 8.92188 13.3644 9.29167C13.2915 9.66667 13.1821 10.026 13.0363 10.375C12.8905 10.724 12.7134 11.0573 12.505 11.3698C12.2915 11.6823 12.0519 11.974 11.7863 12.2448C11.5207 12.5104 11.229 12.75 10.9165 12.9583C10.5988 13.1667 10.2655 13.349 9.9165 13.4896C9.56755 13.6354 9.20817 13.7448 8.83838 13.8177C8.46859 13.8906 8.09359 13.9271 7.71338 13.9271Z" fill="white"/>
</svg>
