<svg width="39" height="26" viewBox="0 0 39 26" fill="none" xmlns="http://www.w3.org/2000/svg">
<path d="M36.4584 0.618838L1.4584 12.5511C1.03132 12.697 0.682362 13.0303 0.515696 13.4626C0.343819 13.8897 0.369863 14.3688 0.588612 14.7699C5.31257 23.5199 15.5834 27.5459 25.0157 24.3324C34.4324 21.1188 40.1095 11.6605 38.5053 1.8428C38.4324 1.38967 38.1563 0.999047 37.7605 0.759463C37.3699 0.525089 36.8959 0.467796 36.4584 0.618838ZM24.0053 21.374C21.2084 22.3272 18.3386 22.5199 15.6042 22.0668C17.2969 19.6918 19.6824 17.8949 22.4897 16.9365C25.2969 15.9834 28.2813 15.947 31.0782 16.7907C29.1876 18.822 26.7917 20.4261 24.0053 21.374ZM33.0626 14.1657C29.3438 12.7699 25.2865 12.6813 21.4844 13.9782C17.6824 15.2751 14.5157 17.822 12.4219 21.2022C9.2032 19.999 6.34903 17.8428 4.31778 14.8793L35.6251 4.20217C35.8178 7.79592 34.8751 11.249 33.0626 14.1657Z" fill="white"/>
</svg>
