<svg width="9" height="10" viewBox="0 0 9 10" fill="none" xmlns="http://www.w3.org/2000/svg">
<path d="M4.81771 0.953125C4.27083 0.953125 3.74479 1.05729 3.24479 1.26562C2.73958 1.47396 2.29167 1.77083 1.90625 2.15625C1.52083 2.54167 1.22396 2.98958 1.01562 3.49479C0.807292 3.99479 0.703125 4.52083 0.703125 5.06771C0.703125 5.61458 0.807292 6.13542 1.01562 6.64062C1.22396 7.14583 1.52083 7.58854 1.90625 7.97396C2.29167 8.36458 2.73958 8.66146 3.24479 8.86979C3.74479 9.07813 4.27083 9.18229 4.81771 9.18229C5.36458 9.18229 5.88542 9.07813 6.39062 8.86979C6.89583 8.66146 7.33854 8.36458 7.72396 7.97396C8.10937 7.58854 8.41146 7.14583 8.61979 6.64062C8.82813 6.13542 8.93229 5.61458 8.93229 5.06771C8.93229 4.52083 8.82813 3.99479 8.61979 3.49479C8.41146 2.98958 8.10937 2.54167 7.72396 2.15625C7.33854 1.77083 6.89583 1.47396 6.39062 1.26562C5.88542 1.05729 5.36458 0.953125 4.81771 0.953125ZM4.81771 7.53646C4.48958 7.53646 4.17187 7.47396 3.86979 7.34896C3.56771 7.22396 3.30208 7.04167 3.07292 6.8125C2.83854 6.58333 2.66146 6.3125 2.53646 6.01042C2.41146 5.70833 2.34896 5.39583 2.34896 5.06771C2.34896 4.73958 2.41146 4.42708 2.53646 4.125C2.66146 3.81771 2.83854 3.55208 3.07292 3.32292C3.30208 3.08854 3.56771 2.91146 3.86979 2.78646C4.17187 2.66146 4.48958 2.59896 4.81771 2.59896C5.14583 2.59896 5.45833 2.66146 5.76042 2.78646C6.0625 2.91146 6.33333 3.08854 6.5625 3.32292C6.79167 3.55208 6.97396 3.81771 7.09896 4.125C7.22396 4.42708 7.28646 4.73958 7.28646 5.06771C7.28646 5.39583 7.22396 5.70833 7.09896 6.01042C6.97396 6.3125 6.79167 6.58333 6.5625 6.8125C6.33333 7.04167 6.0625 7.22396 5.76042 7.34896C5.45833 7.47396 5.14583 7.53646 4.81771 7.53646Z" fill="white"/>
</svg>
