<svg width="47" height="43" viewBox="0 0 47 43" fill="none" xmlns="http://www.w3.org/2000/svg">
<path d="M1.90621 23.209C0.593706 24.1673 -0.364627 26.1934 0.338499 28.1152C0.848916 29.4277 2.01037 30.3861 3.17183 30.6413C3.67704 30.7402 3.88016 30.6413 5.44787 30.6413C6.45829 30.6413 7.31767 30.6413 7.87496 30.6934C9.29162 32.7663 10.401 34.485 11.1614 35.6465C12.677 37.9694 13.1822 38.8288 14.3958 39.9434C15.6093 41.0579 17.125 42.4225 18.8437 42.1673C20.3645 41.9173 21.375 40.5996 21.8281 39.8444C22.4843 38.7298 22.8385 37.4642 23.2447 36.2038C25.7708 27.3027 28.302 18.4069 30.8281 9.50586C32.8489 9.55794 34.875 9.61003 36.8437 9.6569C38.4635 9.70898 40.0833 9.76107 41.6458 9.4069C43.2135 9.05273 44.7343 8.24024 45.6406 6.92773C46.552 5.61524 46.7031 3.69336 45.7448 2.42773C44.5312 0.860026 42.2552 0.708984 40.2812 0.708984C36.7968 0.708984 33.2552 0.708984 29.7656 0.708984C27.9479 0.708984 25.9218 0.807943 24.6614 2.02148C23.4947 3.13607 23.1927 4.50065 23.0416 5.30794C21.625 12.084 19.1979 18.5579 17.3281 25.1777C17.0781 26.0423 16.875 26.3913 16.6718 27.4069C16.5208 28.1152 16.5208 28.3652 16.3697 28.4173C15.9635 28.5163 15.4583 27.0996 14.0416 25.1777C13.1302 23.9173 12.625 23.2611 11.8177 22.8548C11.2135 22.5527 10.3541 22.5007 8.58329 22.4017C7.31766 22.3496 6.7135 22.2975 5.901 22.3496C3.88017 22.5007 2.81766 22.5527 1.90621 23.209Z" fill="white"/>
</svg>
