<svg width="19" height="19" viewBox="0 0 19 19" fill="none" xmlns="http://www.w3.org/2000/svg">
<path d="M18.1823 6.88542L17.1198 6.70833C16.9948 6.31771 16.8333 5.9375 16.6458 5.57292L17.276 4.69792C17.3906 4.53125 17.4427 4.34896 17.4271 4.15104C17.4115 3.94792 17.3281 3.77604 17.1875 3.63542L15.25 1.69792C15.1042 1.55208 14.9323 1.47396 14.7344 1.45833C14.5313 1.44271 14.349 1.48958 14.1875 1.60938L13.3125 2.23438C12.9479 2.04688 12.5677 1.89062 12.1771 1.76562L12 0.703125C11.9687 0.505208 11.875 0.338541 11.7188 0.208333C11.5677 0.0781253 11.3906 0.015625 11.1875 0.015625H8.44792C8.24479 0.015625 8.06771 0.0781253 7.91146 0.208333C7.76042 0.338541 7.66667 0.505208 7.63542 0.703125L7.45833 1.76562C7.06771 1.89062 6.6875 2.04688 6.32292 2.23438L5.44792 1.60938C5.28125 1.48958 5.09896 1.44271 4.90104 1.45833C4.69792 1.47396 4.52604 1.55208 4.38542 1.69792L2.44792 3.63542C2.30208 3.77604 2.22396 3.94792 2.20833 4.15104C2.19271 4.34896 2.23958 4.53125 2.35938 4.69792L2.98438 5.57292C2.79688 5.9375 2.64062 6.31771 2.51562 6.70833L1.45312 6.88542C1.25521 6.91667 1.08854 7.01042 0.958333 7.16146C0.828125 7.31771 0.765625 7.49479 0.765625 7.69792V10.4375C0.765625 10.6406 0.828125 10.8177 0.958333 10.9688C1.08854 11.125 1.25521 11.2187 1.45312 11.25L2.51562 11.4271C2.64062 11.8177 2.79688 12.1979 2.98438 12.5625L2.35938 13.4375C2.23958 13.6042 2.19271 13.7813 2.20833 13.9844C2.22396 14.1823 2.30208 14.3542 2.44792 14.5L4.38542 16.4375C4.52604 16.5781 4.69792 16.6615 4.90104 16.6771C5.09896 16.6927 5.28125 16.6406 5.44792 16.526L6.32292 15.8958C6.6875 16.0885 7.06771 16.2448 7.45833 16.3698L7.63542 17.4323C7.66667 17.6302 7.76042 17.7917 7.91146 17.9219C8.06771 18.0521 8.24479 18.1198 8.44792 18.1198H11.1875C11.3906 18.1198 11.5677 18.0521 11.7188 17.9219C11.875 17.7917 11.9687 17.6302 12 17.4323L12.1771 16.3698C12.5677 16.2448 12.9479 16.0885 13.3125 15.8958L14.1875 16.526C14.349 16.6406 14.5313 16.6927 14.7344 16.6771C14.9323 16.6615 15.1042 16.5781 15.25 16.4375L17.1875 14.5C17.3281 14.3542 17.4115 14.1823 17.4271 13.9844C17.4427 13.7813 17.3906 13.6042 17.276 13.4375L16.6458 12.5625C16.8333 12.1979 16.9948 11.8177 17.1198 11.4271L18.1823 11.25C18.3802 11.2187 18.5417 11.125 18.6719 10.9688C18.8021 10.8177 18.8698 10.6406 18.8698 10.4375V7.69792C18.8698 7.49479 18.8021 7.31771 18.6719 7.16146C18.5417 7.01042 18.3802 6.91667 18.1823 6.88542ZM17.224 9.73958L16.3333 9.89062C15.9792 9.95312 15.7604 10.1563 15.6771 10.5052C15.526 11.1042 15.2917 11.6667 14.974 12.1927C14.7865 12.5052 14.7969 12.8073 15.0052 13.099L15.5312 13.8333L14.5781 14.7865L13.8438 14.2604C13.5521 14.0521 13.25 14.0417 12.9375 14.2292C12.4115 14.5469 11.8542 14.7813 11.2552 14.9271C10.9063 15.0104 10.7031 15.2292 10.6406 15.5833L10.4896 16.474H9.14062L8.99479 15.5833C8.93229 15.2292 8.72917 15.0104 8.38021 14.9271C7.78125 14.7813 7.21875 14.5469 6.69271 14.2292C6.38542 14.0417 6.08333 14.0521 5.79167 14.2604L5.05729 14.7865L4.10417 13.8333L4.625 13.099C4.83854 12.8073 4.84896 12.5052 4.66146 12.1927C4.34375 11.6667 4.10938 11.1094 3.96354 10.5104C3.88021 10.1615 3.65625 9.95833 3.30729 9.89583L2.41667 9.74479V8.39062L3.30729 8.24479C3.65625 8.18229 3.88021 7.97917 3.96354 7.63021C4.10938 7.03125 4.34375 6.46875 4.66146 5.94271C4.84896 5.63021 4.83854 5.32813 4.625 5.03646L4.10417 4.30208L5.05729 3.34896L5.79167 3.86979C6.08333 4.08333 6.38542 4.09375 6.69271 3.90625C7.21875 3.58854 7.78125 3.35417 8.38021 3.20833C8.72917 3.125 8.93229 2.90625 8.99479 2.55208L9.14062 1.66146H10.4896L10.6406 2.55208C10.7031 2.90625 10.9063 3.125 11.2552 3.20833C11.8542 3.35417 12.4115 3.58854 12.9375 3.90625C13.25 4.09375 13.5521 4.08333 13.8438 3.86979L14.5781 3.34896L15.5312 4.30208L15.0052 5.03646C14.7969 5.32813 14.7865 5.63021 14.974 5.94271C15.2917 6.46354 15.526 7.02604 15.6719 7.625C15.7552 7.97396 15.974 8.17708 16.3281 8.23958L17.2188 8.38542L17.224 9.73958Z" fill="white"/>
</svg>
