<svg width="15" height="20" viewBox="0 0 15 20" fill="none" xmlns="http://www.w3.org/2000/svg">
<path d="M13.9063 13.5828C14.3282 13.489 14.5938 13.0776 14.5053 12.6557L12.4897 3.36922C12.448 3.17131 12.323 2.99422 12.1459 2.87964C11.9792 2.77027 11.7657 2.73381 11.5678 2.77547C10.3386 3.03589 9.12508 2.25985 8.85946 1.03589C8.76571 0.614015 8.35425 0.34839 7.93237 0.436932L2.21883 1.67652C1.79696 1.76506 1.53133 2.18172 1.62508 2.6036C1.71883 3.02027 2.13029 3.2911 2.55217 3.19735L7.57821 2.10881C8.19279 3.49943 9.59904 4.40047 11.1147 4.38485L12.8282 12.3015C12.1563 12.6036 11.5782 13.0932 11.1615 13.7338C10.7553 14.3692 10.547 15.0984 10.5522 15.838L1.54175 17.7911C1.11987 17.8848 0.85425 18.3015 0.942791 18.7234C1.0105 19.0463 1.27612 19.2755 1.58342 19.3223C1.67717 19.338 1.77612 19.338 1.86987 19.3171L11.5678 17.213C11.7709 17.1713 11.9428 17.0463 12.0574 16.8744C12.172 16.7026 12.2084 16.489 12.1615 16.2911C11.9011 15.0619 12.6824 13.8536 13.9063 13.5828Z" fill="white"/>
</svg>
