<svg width="18" height="24" viewBox="0 0 18 24" fill="none" xmlns="http://www.w3.org/2000/svg">
<path fill-rule="evenodd" clip-rule="evenodd" d="M11.5938 23.1357C10.8854 23.1357 10.3073 22.5628 10.3073 21.8493V10.2139C10.3073 9.87533 10.4427 9.5472 10.6875 9.30762L14.6094 5.38053C14.8646 5.13053 15 4.7972 15 4.44303C15 4.08887 14.8646 3.75553 14.6094 3.50553C14.3594 3.25033 14.0313 3.11491 13.6719 3.11491C13.3177 3.11491 12.9844 3.25033 12.7344 3.50553L9.89062 6.34928C9.65104 6.58887 9.32292 6.72428 8.98438 6.72428C8.64063 6.72428 8.3125 6.58887 8.07292 6.34928L5.22917 3.50553C4.71354 2.9847 3.86979 2.9847 3.35417 3.50553C3.10417 3.75553 2.96354 4.08887 2.96354 4.44303C2.96354 4.7972 3.10417 5.13053 3.35417 5.38053L7.28125 9.30762C7.52083 9.5472 7.65625 9.87533 7.65625 10.2139V21.8493C7.65625 22.5628 7.07813 23.1357 6.36979 23.1357C5.65625 23.1357 5.08333 22.5628 5.08333 21.8493V10.7451L1.53646 7.19824C0.796874 6.46387 0.390625 5.4847 0.390625 4.44303C0.390625 3.40137 0.796874 2.4222 1.53646 1.68262C3.05729 0.161784 5.53125 0.161784 7.04688 1.68262L8.98438 3.61491L10.9167 1.68262C11.651 0.948242 12.6302 0.541992 13.6719 0.541992C14.7135 0.541992 15.6927 0.948242 16.4323 1.68262C17.1667 2.4222 17.5729 3.40137 17.5729 4.44303C17.5729 5.4847 17.1667 6.46387 16.4323 7.19824L12.8802 10.7451V21.8493C12.8802 22.5576 12.3073 23.1357 11.5938 23.1357Z" fill="white"/>
</svg>
