<svg width="44" height="19" viewBox="0 0 44 19" fill="none" xmlns="http://www.w3.org/2000/svg">
<path d="M33.2446 12.485H33.2342C33.2446 12.485 33.2498 12.485 33.2446 12.485ZM28.203 18.4225C28.9321 18.1568 29.5207 17.61 30.0832 17.0735C35.3123 12.1204 45.2655 1.62037 43.3228 0.193288C43.2238 0.151622 43.1144 0.120373 43.0103 0.0943301C41.7759 -0.207753 40.4582 0.484954 39.3332 1.15683C36.7603 2.6985 34.1821 4.23496 31.6092 5.77662C31.2759 5.97454 31.1405 6.39641 31.3019 6.75579C31.6978 7.63079 31.7603 8.47454 31.6092 9.261C31.2134 11.3027 29.3905 12.7558 27.3123 12.7558H16.8175C16.4478 12.7558 16.1457 12.4537 16.1457 12.0839V11.5891C16.1457 11.2193 16.4478 10.9172 16.8228 10.9172C19.5988 10.9329 22.3696 10.9485 25.1457 10.9641C26.9321 10.9745 29.3071 10.4589 29.3853 8.67245C29.4217 7.73495 28.6769 6.90162 27.8071 6.53704C26.9425 6.17245 25.9686 6.17245 25.0259 6.18287C22.3384 6.20371 19.2134 6.41725 16.4582 5.6985C13.479 4.92245 11.2082 3.84954 8.08317 4.92766C5.30713 5.886 2.98421 7.83391 0.963379 9.95891C3.38005 12.3027 5.80192 14.6464 8.2238 16.9902C8.80192 17.5527 9.40609 18.1308 10.1613 18.412C10.8071 18.6516 11.5155 18.6516 12.2082 18.6516C16.8748 18.6516 21.5415 18.6516 26.2082 18.6568C26.88 18.6568 27.5675 18.6516 28.203 18.4225Z" fill="white"/>
</svg>
