<svg width="22" height="12" viewBox="0 0 22 12" fill="none" xmlns="http://www.w3.org/2000/svg">
<path d="M19.7344 0.833491C18.7344 0.656408 17.7709 1.34391 17.6146 2.34391C17.5574 2.66162 17.5938 2.97412 17.6928 3.26578L13.5105 6.76057C13.3334 6.64599 13.1199 6.58349 12.9063 6.54703C12.5521 6.48453 12.2344 6.5262 11.9219 6.64599L10.1146 4.60432C10.2136 4.42724 10.2761 4.25016 10.3126 4.03141C10.3126 3.93766 10.3126 3.8387 10.3126 3.73974C10.3126 2.85432 9.68756 2.07307 8.78131 1.93245C7.78131 1.75536 6.81777 2.44287 6.66152 3.44287C6.60423 3.81787 6.64069 4.19287 6.80215 4.5262L3.36465 7.93766C3.22923 7.85953 3.05215 7.82308 2.8959 7.80224C2.40111 7.72412 1.91152 7.82307 1.5209 8.11474C1.13027 8.41162 0.854232 8.82307 0.776106 9.31266C0.619857 10.3127 1.28652 11.2762 2.28652 11.4533C2.38548 11.4741 2.48444 11.4741 2.59902 11.4741C3.48444 11.4741 4.26569 10.8439 4.42715 9.94287C4.48444 9.56787 4.44277 9.19287 4.28652 8.85953L7.70319 5.40641C7.83861 5.48453 7.99486 5.5262 8.17194 5.54703C8.29173 5.56266 8.39069 5.56266 8.48965 5.56266C8.72402 5.56266 8.93756 5.5262 9.15631 5.42724L10.9584 7.46891C10.8646 7.64599 10.8021 7.82307 10.7657 8.03662C10.6876 8.5262 10.7865 9.02099 11.0782 9.41162C11.3751 9.80224 11.7865 10.0783 12.2761 10.1564C12.3959 10.1772 12.4896 10.1772 12.5886 10.1772C12.9636 10.1772 13.3334 10.0575 13.6511 9.84391C14.0417 9.54703 14.3178 9.13557 14.3959 8.64599C14.4167 8.5262 14.4167 8.42724 14.4167 8.33349C14.4167 8.11474 14.3751 7.91682 14.2969 7.72412L18.4792 4.22932C18.6563 4.34912 18.8699 4.40641 19.0886 4.44287C19.2032 4.4637 19.3021 4.4637 19.4011 4.4637C19.7709 4.4637 20.1459 4.34912 20.4584 4.10953C20.8542 3.81787 21.1251 3.40641 21.2084 2.91682C21.224 2.81787 21.224 2.69807 21.224 2.59912C21.2449 1.7762 20.6146 0.989741 19.7344 0.833491ZM3.15111 9.70328C3.08861 10.021 2.79694 10.2137 2.50006 10.1772C2.18756 10.1199 1.97402 9.82308 2.03131 9.51057C2.05215 9.35432 2.1459 9.2137 2.26569 9.13557C2.36465 9.07828 2.48444 9.03662 2.59902 9.03662C2.64069 9.03662 2.65631 9.03662 2.69798 9.03662C2.8334 9.05745 2.97402 9.15641 3.05215 9.2762C3.15111 9.39078 3.16673 9.54703 3.15111 9.70328ZM8.39069 4.30745C8.25006 4.28662 8.11465 4.19286 8.01569 4.07307C7.93756 3.95328 7.90111 3.79703 7.91673 3.64078C7.97923 3.36474 8.21361 3.17203 8.48965 3.17203C8.52611 3.17203 8.54694 3.17203 8.5834 3.17203C8.90111 3.22932 9.09381 3.52099 9.05736 3.8387C9.03652 3.99495 8.93756 4.10953 8.82298 4.20849C8.68236 4.28662 8.52611 4.32828 8.39069 4.30745ZM12.6667 7.80224C12.9844 7.85953 13.1771 8.15641 13.1407 8.46891C13.1199 8.62516 13.0209 8.76578 12.9063 8.84391C12.7865 8.93766 12.6303 8.95849 12.4896 8.93766C12.3542 8.92203 12.2188 8.82307 12.1199 8.70328C12.0417 8.5887 12.0001 8.42724 12.0209 8.27099C12.0782 8.00016 12.3126 7.80224 12.5886 7.80224C12.6094 7.78141 12.6511 7.80224 12.6667 7.80224ZM18.849 2.56266C18.8907 2.28662 19.1459 2.0887 19.4219 2.0887C19.4584 2.0887 19.4792 2.0887 19.5157 2.0887C19.8334 2.1512 20.0261 2.44287 19.9896 2.75537C19.9688 2.89599 19.8699 3.03141 19.7553 3.13037C19.6355 3.22932 19.4792 3.25016 19.3438 3.22932C19.1824 3.20849 19.0678 3.13036 18.9688 2.99495C18.849 2.85432 18.8334 2.71891 18.849 2.56266Z" fill="white"/>
</svg>
