<svg width="22" height="29" viewBox="0 0 22 29" fill="none" xmlns="http://www.w3.org/2000/svg">
<path d="M21.5107 23.614L16.5836 0.87964C16.4898 0.457766 16.0732 0.192139 15.6565 0.280682L0.687765 3.52547C0.26589 3.61402 0.000265846 4.03068 0.0940152 4.45256C0.187766 4.86922 0.599224 5.14006 1.0211 5.04631L15.2242 1.96818L19.8232 23.1817L2.90652 26.8484C2.48464 26.9421 2.21901 27.3536 2.30756 27.7755C2.37526 28.0984 2.64089 28.3328 2.94818 28.3796C3.04193 28.3953 3.13568 28.3953 3.23464 28.3744L20.9117 24.5411C21.1148 24.4942 21.2919 24.3744 21.4065 24.2026C21.5159 24.0255 21.5523 23.8171 21.5107 23.614Z" fill="white"/>
</svg>
