<svg width="18" height="17" viewBox="0 0 18 17" fill="none" xmlns="http://www.w3.org/2000/svg">
<path d="M15.453 4.37533C15.4582 4.35449 15.4738 4.32845 15.4738 4.30241V2.16699C15.4738 0.807617 10.63 0.604492 7.73942 0.604492C4.854 0.604492 0.0102539 0.807617 0.0102539 2.16699V4.30762C0.0102539 4.91699 0.999838 5.2972 2.34359 5.52637C2.34359 5.55241 2.32796 5.57324 2.32796 5.59928V7.7347C2.32796 7.97428 2.48421 8.17741 2.74463 8.34408C2.0363 8.57324 1.58317 8.88053 1.58317 9.2972V11.4326C1.58317 11.766 1.87484 12.0316 2.36442 12.2399C2.18734 12.391 2.07796 12.5628 2.07796 12.7555V14.891C2.07796 16.2555 6.92171 16.4587 9.80713 16.4587C12.6925 16.4587 17.5363 16.2555 17.5363 14.891V12.7555C17.5363 12.4222 17.2394 12.1566 16.755 11.9482C16.9321 11.7972 17.0415 11.6253 17.0415 11.4326V9.2972C17.0415 9.05762 16.8853 8.85449 16.6248 8.68262C17.3332 8.45866 17.7915 8.15137 17.7915 7.7347V5.59928C17.7915 4.9847 16.8019 4.6097 15.453 4.37533ZM7.73942 1.59928C11.0571 1.59928 13.1873 1.90658 14.0884 2.16699C13.1873 2.43262 11.0571 2.73991 7.73942 2.73991C4.42692 2.73991 2.29671 2.43262 1.39567 2.16699C2.29671 1.90658 4.42692 1.59928 7.73942 1.59928ZM7.73942 5.87012C9.76546 5.87012 12.7446 5.76595 14.3488 5.23991C15.2915 5.34407 15.9894 5.47428 16.4061 5.59928C15.505 5.8597 13.3748 6.16699 10.0571 6.16699C7.43213 6.16699 5.56234 5.97428 4.44775 5.76595C5.59359 5.84407 6.77588 5.87012 7.73942 5.87012ZM16.1561 12.7607C15.255 13.0212 13.1248 13.3337 9.80713 13.3337C6.49463 13.3337 4.36442 13.0212 3.46338 12.7607C3.58317 12.7243 3.729 12.6878 3.89567 12.6514C5.5363 12.9378 7.71859 13.0003 9.31234 13.0003C11.0675 13.0003 13.5467 12.9222 15.2238 12.5524C15.6144 12.6201 15.9217 12.693 16.1561 12.7607ZM15.6561 9.2972C14.755 9.55762 12.63 9.87012 9.31234 9.87012C5.99463 9.87012 3.86442 9.55762 2.96859 9.2972C3.34359 9.18783 3.94776 9.07324 4.75505 8.97428C6.38525 9.23991 8.49984 9.2972 10.0571 9.2972C11.3853 9.2972 13.1196 9.25553 14.6144 9.07845C15.0519 9.15137 15.4061 9.22429 15.6561 9.2972Z" fill="white"/>
</svg>
