<svg width="20" height="20" viewBox="0 0 20 20" fill="none" xmlns="http://www.w3.org/2000/svg">
<path d="M18.3284 3.8749C17.6149 2.91657 16.4378 2.45823 15.2555 2.68219L12.4065 3.20823L10.3545 1.16657C9.5055 0.322819 8.27633 0.0311522 7.14612 0.416568C6.00549 0.807193 5.20862 1.78636 5.05237 2.97386L4.67737 5.83844L2.09925 7.16657C1.03154 7.71344 0.385703 8.79157 0.39612 9.98948C0.416954 11.1874 1.10445 12.2499 2.18779 12.7655L4.79716 14.0155L5.25029 16.8697C5.443 18.052 6.27112 19.0103 7.41175 19.3645C8.05758 19.5624 8.73466 19.5468 9.34404 19.3384C9.818 19.177 10.2555 18.9062 10.6149 18.5259L12.6045 16.4218L15.4638 16.8749C16.6409 17.0572 17.8076 16.5624 18.5003 15.5832C19.1878 14.6041 19.2607 13.3436 18.6878 12.2916L17.3024 9.7499L18.6149 7.16657C19.1617 6.09365 19.0472 4.83844 18.3284 3.8749ZM14.5159 8.33323C14.0524 9.2499 14.068 10.3384 14.5576 11.2395L15.9482 13.7864L13.0836 13.3332C12.068 13.177 11.0367 13.5312 10.3336 14.2707L8.33883 16.3801L7.8805 13.5155C7.71904 12.5051 7.06279 11.6301 6.1357 11.1874L3.52633 9.94782L6.10445 8.6249C7.02112 8.15615 7.64091 7.27594 7.78154 6.24469L8.14612 3.36969L8.15654 3.3749L10.2034 5.41657C10.9326 6.15094 11.9742 6.46344 12.9847 6.27594L15.8336 5.7499L14.5159 8.33323Z" fill="white"/>
</svg>
