<svg width="8" height="17" viewBox="0 0 8 17" fill="none" xmlns="http://www.w3.org/2000/svg">
<path d="M6.31245 3.51527L4.67703 13.9267C4.56245 14.6351 3.89578 15.1194 3.18745 15.0101C2.47911 14.9007 1.99474 14.234 2.10411 13.5205L3.73953 3.10902C3.85411 2.40069 4.52078 1.91632 5.22911 2.02569C5.93745 2.13507 6.42182 2.80173 6.31245 3.51527ZM2.20307 2.86944L0.567655 13.2809C0.322864 14.8382 1.39057 16.3069 2.94786 16.5517C4.50515 16.7965 5.9687 15.7288 6.21349 14.1663L7.8489 3.75486C8.0937 2.19757 7.02599 0.728816 5.4687 0.484024C3.91141 0.239233 2.44265 1.31215 2.20307 2.86944Z" fill="white"/>
</svg>
