<svg width="12" height="22" viewBox="0 0 12 22" fill="none" xmlns="http://www.w3.org/2000/svg">
<path d="M5.19792 0.442383V3.05176C2.76562 3.5778 1.33333 5.33822 1.33333 7.86947C1.33333 12.2653 7.8125 12.5413 7.8125 14.5465C7.8125 15.5257 7.30729 15.9528 6.05208 15.9528C5 15.9528 3.94271 15.5518 2.58854 14.5465L0.734375 17.458C1.98438 18.5882 3.77083 19.1924 5.19792 19.3695V21.8799H8.01042V19.2184C10.6458 18.5882 11.9271 16.682 11.9271 14.2445C11.9271 9.67676 5.45312 9.5778 5.45312 7.67155C5.45312 6.66634 5.97917 6.36426 7.05729 6.36426C7.98437 6.36426 8.76563 6.7653 9.66667 7.56738L11.8021 5.10905C10.7969 4.05697 9.59375 3.25488 8.01042 2.99967V0.442383H5.19792Z" fill="white"/>
</svg>
